SplineFontDB: 3.0
FontName: StickNoBills-Bold
FullName: Stick No Bills
FamilyName: Stick No Bills
Weight: Bold
Copyright: Copyright (c) 2013 STICK NO BILLS, Copyright (c) 2015 mooniak\n
UComments: "2015-2-15: Created with FontForge (http://fontforge.org) The  Free Font Editor"
Version: 1.0
ItalicAngle: 0
UnderlinePosition: -99.6094
UnderlineWidth: 49.8047
Ascent: 800
Descent: 200
InvalidEm: 0
UFOAscent: 799.805
UFODescent: -200.195
LayerCount: 3
Layer: 0 0 "Back" 1
Layer: 1 0 "Fore" 1
Layer: 2 0 "Back 2" 1
PreferredKerning: 4
FSType: 0
OS2Version: 0
OS2_WeightWidthSlopeOnly: 0
OS2_UseTypoMetrics: 0
CreationTime: 1429518268
ModificationTime: 1444841647
PfmFamily: 16
TTFWeight: 400
TTFWidth: 5
LineGap: 92
VLineGap: 0
OS2TypoAscent: 800
OS2TypoAOffset: 0
OS2TypoDescent: -200
OS2TypoDOffset: 0
OS2TypoLinegap: 92
OS2WinAscent: 896
OS2WinAOffset: 0
OS2WinDescent: 200
OS2WinDOffset: 0
HheadAscent: 896
HheadAOffset: 0
HheadDescent: -200
HheadDOffset: 0
OS2Vendor: 'PfEd'
OS2UnicodeRanges: 00000002.00000000.00000000.00000000
Lookup: 258 0 0 "'kern' Horizontal Kerning lookup 0" { "'kern' Horizontal Kerning lookup 0-1" [153,15,0] } ['kern' ('DFLT' <'dflt' > 'hani' <'dflt' > 'latn' <'dflt' > ) ]
MarkAttachClasses: 1
DEI: 91125
KernClass2: 7 7 "'kern' Horizontal Kerning lookup 0-1"
 7 uni0041
 31 uni0054 uni0059 uni0050 uni0046
 39 uni0066 uni0072 uni0076 uni0077 uni0079
 7 uni004C
 15 uni0057 uni0056
 0 
 31 uni0057 uni0056 uni0054 uni0059
 15 uni002E uni002C
 71 uni0061 uni0065 uni0073 uni006F uni0071 uni0064 uni0063 uni0067 uni0075
 7 uni0041
 23 uni0077 uni0076 uni0074
 15 uni003B uni003A
 0 {} 0 {} 0 {} 0 {} 0 {} 0 {} 0 {} 0 {} -68 {} 60 {} -22 {} 0 {} -66 {} 44 {} 0 {} 16 {} -78 {} -29 {} -98 {} -22 {} -62 {} 0 {} 0 {} -40 {} 0 {} 0 {} 0 {} 0 {} 0 {} -80 {} 0 {} 82 {} 0 {} -75 {} 61 {} 0 {} 0 {} -106 {} -54 {} -127 {} 0 {} -73 {} 0 {} 0 {} 0 {} 0 {} 0 {} 0 {} 0 {}

StartChar: tml_Oo
Encoding: 14 2963 0
Width: 895
VWidth: 0
Flags: W
HStem: -132 123<629 752> 29 122<174 210 265 305> 266 123<182 210 265 309> 573 122<310 426 479 593>
VStem: 39 171<144 152 266 389> 39 124<161 259> 216 123<-169 -109> 317 123<162 257> 483 123<14 166 171 350> 733 123<163 455>
LayerCount: 3
Fore
SplineSet
265 29 m 1xf1c0
 265 152 l 0
 299 152 318 174 317 210 c 0
 316 244 305 266 265 266 c 1
 265 389 l 0
 364 389 439 309 439 248 c 0
 439 177 l 0
 439 115 364 29 265 29 c 1xf1c0
39 177 m 0
 39 250 l 0xf4c0
 38 354 160 389 210 389 c 1xf8c0
 210 266 l 0xf8c0
 181 266 163 246 163 210 c 0xf4c0
 163 173 180 152 210 152 c 1
 210 29 l 0xf8c0
 108 29 39 124 39 177 c 0
39 256 m 1xf4c0
 39 310 l 1
 39 452 121 695 426 695 c 0
 426 573 l 1
 243 573 179 456 179 357 c 0
 179 300 45 286 39 256 c 1xf4c0
483 25 m 0
 483 276 l 1
 604 171 l 0
 604 52 l 0
 604 3 678 -9 752 -9 c 0
 752 -132 l 1
 589 -132 483 -66 483 25 c 0
479 573 m 1
 479 695 l 1
 745 695 857 494 857 398 c 0
 857 165 l 2
 857 -17 483 -16 483 166 c 2
 483 350 l 0
 606 350 l 1
 606 196 l 1
 606 137 732 136 733 196 c 0
 733 398 l 0
 733 458 641 573 479 573 c 1
216 -141 m 0
 216 -64 256 19 386 19 c 1
 386 -104 l 1
 361 -104 339 -115 339 -141 c 0xf2c0
 339 -176 404 -203 451 -138 c 0
 459 -127 462 -121 474 -98 c 1
 586 -163 l 1
 563 -206 488 -302 382 -301 c 0
 279 -300 216 -226 216 -141 c 0
EndSplineSet
EndChar

StartChar: tml_Ya
Encoding: 28 2991 1
Width: 724
VWidth: 0
Flags: W
HStem: 0 119<163 195 249 309 442 476 529 563>
VStem: 39 122<121 595> 319 122<123 595> 529 156<0 119> 563 122<120 595>
LayerCount: 3
Fore
SplineSet
529 0 m 257
 529 119 l 257xf0
 535 119 l 258
 556 119 563 132 563 145 c 257xe8
 563 595 l 257
 686 595 l 257xe8
 686 0 l 1
 529 0 l 257
39 140 m 258
 39 595 l 257
 161 595 l 257
 161 145 l 257
 161 134 166 119 189 119 c 258
 195 119 l 257
 195 0 l 257
 189 0 l 258
 92 0 39 96 39 140 c 258
249 0 m 257
 249 119 l 257
 255 119 l 258
 277 119 319 121 319 145 c 257
 319 595 l 257
 441 595 l 257
 441 145 l 258
 441 134 448 119 470 119 c 258
 476 119 l 257
 476 0 l 257
 319 0 l 1
 314 33 l 257
 309 12 288 0 255 0 c 258
 249 0 l 257
EndSplineSet
EndChar

StartChar: tml_O
Encoding: 13 2962 2
Width: 895
VWidth: 0
Flags: HMW
LayerCount: 3
Fore
SplineSet
265 29 m 1
 265 152 l 0
 299 152 318 174 317 210 c 0
 316 244 305 266 265 266 c 1
 265 389 l 0
 364 389 439 309 439 248 c 0
 439 177 l 0
 439 115 364 29 265 29 c 1
39 177 m 0
 39 250 l 0
 38 354 160 389 210 389 c 1
 210 266 l 0
 181 266 163 246 163 210 c 0
 163 173 180 152 210 152 c 1
 210 29 l 0
 108 29 39 124 39 177 c 0
39 256 m 1
 39 310 l 1
 39 452 121 695 426 695 c 0
 426 695 l 1
 426 573 l 1
 243 573 179 456 179 357 c 0
 179 300 45 286 39 256 c 1
189 -124 m 1
 308 -94 l 1
 336 -151 430 -156 462 -94 c 0
 567 -155 l 1
 501 -297 244 -298 189 -124 c 1
483 25 m 0
 483 276 l 1
 604 171 l 0
 604 52 l 0
 604 3 678 -9 752 -9 c 0
 752 -132 l 1
 589 -132 483 -66 483 25 c 0
479 573 m 1
 479 695 l 1
 745 695 857 494 857 398 c 0
 857 165 l 2
 857 -17 483 -16 483 166 c 2
 483 350 l 0
 606 350 l 1
 606 196 l 1
 606 137 732 136 733 196 c 0
 733 398 l 0
 733 458 641 573 479 573 c 1
EndSplineSet
EndChar

StartChar: tml_Va
Encoding: 34 2997 3
Width: 873
VWidth: 0
Flags: HMW
LayerCount: 3
Fore
SplineSet
267 0 m 1
 267 122 l 1
 299 123 314 142 314 180 c 0
 314 218 298 237 267 237 c 1
 267 359 l 0
 363 359 436 276 436 224 c 0
 436 152 l 0
 437 89 376 0 267 0 c 1
40 151 m 0
 40 220 l 0
 39 324 162 359 212 359 c 1
 212 237 l 0
 183 237 165 218 165 181 c 0
 165 147 179 122 212 122 c 1
 212 0 l 0
 110 0 40 91 40 151 c 0
40 226 m 1
 40 305 l 1
 40 433 91 605 301 605 c 1
 301 483 l 1
 237 483 178 439 176 354 c 0
 40 226 l 1
352 483 m 1
 429 483 487 423 488 354 c 1
 488 146 l 0
 488 127 462 124 455 123 c 1
 455 0 l 1
 656 0 l 1
 656 123 l 1
 609 123 l 1
 609 355 l 1
 608 466 521 605 352 605 c 1
 352 483 l 1
711 0 m 1
 711 595 l 1
 834 595 l 1
 834 0 l 1
 711 0 l 1
EndSplineSet
EndChar

StartChar: tml_E
Encoding: 10 2958 4
Width: 746
VWidth: 0
Flags: W
HStem: 1 122<180 210 265 298> 238 123<181 210 265 304> 472 123<235 304 359 484 606 707> 472 105<484 606>
VStem: 39 171<116 123 238 360> 39 131<310 405> 39 124<145 217> 317 123<146 215> 484 123<0 577>
LayerCount: 3
Fore
SplineSet
265 1 m 5xc180
 265 123 l 4
 299 123 318 146 317 182 c 4
 316 216 305 238 265 238 c 5
 265 360 l 4
 364 360 439 281 439 220 c 4
 439 148 l 4
 439 86 364 1 265 1 c 5xc180
39 149 m 4
 39 221 l 4xc380
 38 325 160 360 210 360 c 5xc980
 210 238 l 4xc980
 181 238 163 218 163 182 c 4xc380
 163 145 180 123 210 123 c 5
 210 1 l 4xc980
 108 1 39 96 39 149 c 4
359 472 m 1
 359 595 l 1
 707 595 l 1xe180
 707 472 l 1
 359 472 l 1
484 0 m 1
 484 577 l 1xd180
 606 577 l 1
 606 0 l 1
 484 0 l 1
265 1 m 1
 265 123 l 0
 299 123 318 146 317 182 c 0
 316 216 305 238 265 238 c 1
 265 360 l 0
 364 360 439 281 439 220 c 0
 439 148 l 0
 439 86 364 1 265 1 c 1
39 228 m 5xe380
 39 281 l 6
 39 396 101 595 304 595 c 5xe980
 304 472 l 5
 217 472 177 406 170 329 c 4xe580
 165 272 45 258 39 228 c 5xe380
39 149 m 0
 39 221 l 0xc380
 38 325 160 360 210 360 c 1xc980
 210 238 l 0xc980
 181 238 163 218 163 182 c 0xc380
 163 145 180 123 210 123 c 1
 210 1 l 0xc980
 108 1 39 96 39 149 c 0
EndSplineSet
EndChar

StartChar: tml_A
Encoding: 4 2949 5
Width: 1013
VWidth: 0
Flags: HW
HStem: -127 122<202 390 445 657> 110 125<363 390 444 471> 205 119<201 253 498 681 762 855> 373 122<371 466> 562 122<430 609>
VStem: 39 122<39 165> 225 116<205 323 326 466> 498 110<217 324> 681 122<16 205 378 486> 762 41<205 324> 853 122<-107 205 324 578> 853 3<205 324>
LayerCount: 3
Back
SplineSet
802.734375 392.578125 m 13x9f80
 802.734375 261.71875 l 5
 680.6640625 261.71875 l 5
 680.6640625 396.484375 l 4
 680.6640625 502.340820312 639.763671875 573.2421875 517.578125 573.2421875 c 4
 427.374023438 573.2421875 382.8125 532.2265625 382.8125 486.328125 c 4
 382.8125 440.4296875 412.109375 411.1328125 452.1484375 411.1328125 c 4
 497.162109375 411.1328125 537.109375 432.6171875 537.109375 498.046875 c 4
 621.09375 409.1796875 l 4
 616.2109375 345.703125 541.9921875 289.0625 452.1484375 289.0625 c 4
 362.3046875 289.0625 260.7421875 352.5390625 260.7421875 486.328125 c 4
 260.7421875 606.4453125 363.032226562 695.3125 517.578125 695.3125 c 4
 697.634765625 695.3125 802.734375 584.75390625 802.734375 392.578125 c 13x9f80
443.359375 269.53125 m 5xbf80
 525.715820312 269.53125 720.377929688 269.53125 802.734375 269.53125 c 5xbf40
 803.7109375 67.3828125 l 5
 803.7109375 -34.4775390625 733.3984375 -126.953125 607.421875 -126.953125 c 4
 445.3125 -126.953125 l 4
 445.3125 -4.8828125 l 21
 595.703125 -4.8828125 l 4
 662.109375 -4.3408203125 680.6640625 33.1396484375 680.6640625 67.3828125 c 5
 680.6640625 150.390625 l 5
 639.6484375 150.390625 484.375 150.390625 443.359375 150.390625 c 5
 443.359375 269.53125 l 5xbf80
389.6484375 -4.8828125 m 5
 389.6484375 -126.953125 l 5
 242.1875 -126.953125 l 4
 129.8828125 -126.953125 39.0625 -47.2060546875 39.0625 72.265625 c 4
 39.0625 188.219726562 123.046875 271.484375 252.9296875 271.484375 c 6
 388.671875 271.484375 l 5
 388.671875 149.4140625 l 5
 235.3515625 149.4140625 l 4
 210.9375 149.4140625 161.1328125 128.90625 161.1328125 71.8134765625 c 4
 161.1328125 19.103515625 207.03125 -4.8828125 252.9296875 -4.8828125 c 4
 389.6484375 -4.8828125 l 5
761.71875 269.53125 m 5
 855.46875 269.53125 l 5
 855.46875 150.390625 l 5xbf50
 761.71875 150.390625 l 5
 761.71875 269.53125 l 5
852.5390625 578.125 m 5x9f20
 974.609375 578.125 l 5
 974.609375 -107.421875 l 5
 852.5390625 -107.421875 l 5
 852.5390625 578.125 l 5x9f20
EndSplineSet
Fore
SplineSet
261 486 m 4
 261 606 363 695 518 695 c 4
 698 695 803 585 803 393 c 13x9f80
 803 262 l 5
 681 262 l 5
 681 396 l 4
 681 502 640 573 518 573 c 4
 428 573 383 532 383 486 c 4
 383 440 412 411 452 411 c 4
 497 411 537 433 537 498 c 4
 621 409 l 4
 616 346 542 289 452 289 c 4
 362 289 261 352 261 486 c 4
443 150 m 5
 443 270 l 5xbf80
 525 270 721 270 803 270 c 5xbf40
 804 67 l 5
 804 -35 733 -127 607 -127 c 4
 445 -127 l 4
 445 -5 l 21
 596 -5 l 4
 662 -4 681 33 681 67 c 5
 681 150 l 5
 640 150 484 150 443 150 c 5
39 72 m 4
 39 188 123 271 253 271 c 6
 389 271 l 5
 389 149 l 5
 235 149 l 4
 211 149 161 129 161 72 c 4
 161 19 207 -5 253 -5 c 4
 390 -5 l 5
 390 -127 l 5
 242 -127 l 4
 130 -127 39 -47 39 72 c 4
762 150 m 5
 762 270 l 5
 855 270 l 5
 855 150 l 5xbf50
 762 150 l 5
853 -107 m 5
 853 578 l 5x9f20
 975 578 l 5
 975 -107 l 5
 853 -107 l 5
EndSplineSet
EndChar

StartChar: tml_Pa
Encoding: 26 2986 6
Width: 537
VWidth: 0
Flags: W
HStem: 1 122<161 241> 107 17<39 161>
VStem: 39 202<1 123> 39 122<123 595>
LayerCount: 3
Fore
SplineSet
39 107 m 1x60
 39 595 l 1
 161 595 l 1
 161 107 l 1x50
 39 107 l 1x60
376 104 m 1
 498 104 l 17
 498 595 l 1
 376 595 l 1
 376 104 l 1
297 1 m 1
 498 1 l 1x80
 498 123 l 1
 297 123 l 1
 297 1 l 1
39 1 m 1xa0
 39 123 l 1x60
 241 123 l 1
 241 1 l 1
 39 1 l 1xa0
EndSplineSet
EndChar

StartChar: tml_Tta
Encoding: 21 2975 7
Width: 625
VWidth: 0
Flags: W
HStem: 0 122<27 587>
VStem: 27 122<176 596>
LayerCount: 3
Fore
SplineSet
27 0 m 1
 27 122 l 1
 587 122 l 1
 587 0 l 1
 27 0 l 1
27 176 m 1
 27 596 l 1
 149 596 l 1
 149 176 l 1
 27 176 l 1
EndSplineSet
EndChar

StartChar: tml_Ra
Encoding: 29 2992 8
Width: 595
VWidth: 0
Flags: W
HStem: 0 21G<39 161> 473 122<41 217>
VStem: 39 178<473 595> 39 122<0 473>
LayerCount: 3
Fore
SplineSet
151 -177 m 1
 294 -177 l 1
 443 0 l 2
 445 591 l 1xc0
 320 591 l 1
 320 33 l 1
 151 -177 l 1
39 0 m 21xd0
 39 595 l 1xe0
 161 595 l 1
 161 0 l 5
 39 0 l 21xd0
271 473 m 1
 557 473 l 1
 557 595 l 1
 271 595 l 1
 271 473 l 1
41 473 m 1
 41 595 l 1
 217 595 l 1
 217 473 l 1
 41 473 l 1
EndSplineSet
EndChar

StartChar: tml_MatraAa
Encoding: 39 3006 9
Width: 568
VWidth: 0
Flags: W
HStem: 0 21G<39 161> 473 122<39 218>
VStem: 39 179<473 595> 39 122<0 473>
LayerCount: 3
Fore
SplineSet
323 0 m 1xc0
 445 0 l 1
 445 593 l 1
 323 593 l 1
 323 0 l 1xc0
39 0 m 17xd0
 39 592 l 1xe0
 161 593 l 1
 161 0 l 1
 39 0 l 17xd0
271 473 m 1
 529 473 l 1
 529 595 l 1
 271 595 l 1
 271 473 l 1
39 473 m 1
 39 595 l 1
 218 595 l 1
 218 473 l 1
 39 473 l 1
EndSplineSet
EndChar

StartChar: tml_Na
Encoding: 24 2984 10
Width: 681
VWidth: 0
Flags: W
HStem: -157 122<182 508>
VStem: 39 128<-257 -170> 520 123<-27 250>
LayerCount: 3
Fore
SplineSet
39 -257 m 1
 39 -107 110 -35 247 -35 c 2
 468 -35 l 0
 517 -35 520 -5 520 25 c 0
 521 206 l 2
 521 252 516 253 489 253 c 0
 489 375 l 1
 565 375 643 353 643 206 c 0
 643 25 l 0
 643 -41 622 -157 469 -157 c 0
 226 -157 l 2
 184 -157 167 -182 167 -257 c 1
 39 -257 l 1
312 0 m 1
 437 0 l 1
 436 588 l 1
 313 588 l 1
 312 0 l 1
71 0 m 9
 193 0 l 1
 193 590 l 1
 71 590 l 1
 71 0 l 9
71 595 m 1
 72 474 l 1
 580 474 l 1
 580 595 l 1
 71 595 l 1
EndSplineSet
EndChar

StartChar: tml_Three
Encoding: 56 3049 11
Width: 734
VWidth: 0
Flags: W
HStem: 0 122<255 471 626 681>
VStem: 503 123<123 231>
LayerCount: 3
Fore
SplineSet
333 0 m 1
 333 122 l 1
 681 122 l 1
 681 0 l 1
 333 0 l 1
255 0 m 1
 255 122 l 1
 288 122 381 122 448 122 c 0
 506 122 503 126 503 145 c 0
 503 211 l 2
 503 232 507 231 457 231 c 0
 457 354 l 1
 543 354 626 322 626 229 c 0
 626 111 l 0
 626 43 565 0 471 0 c 0
 394 0 337 0 255 0 c 1
281 177 m 1
 403 177 l 1
 403 589 l 1
 281 589 l 1
 281 177 l 1
39 0 m 9
 161 0 l 1
 161 591 l 1
 39 591 l 1
 39 0 l 9
39 595 m 1
 40 473 l 1
 512 473 l 1
 512 595 l 1
 39 595 l 1
EndSplineSet
EndChar

StartChar: tml_Nga
Encoding: 17 2969 12
Width: 895
VWidth: 0
Flags: W
HStem: 0 122<275 471 626 681>
VStem: 503 123<123 231> 734 122<0 595>
LayerCount: 3
Fore
SplineSet
734 0 m 1
 734 595 l 1
 856 595 l 1
 856 0 l 1
 734 0 l 1
333 0 m 1
 333 122 l 1
 681 122 l 1
 681 0 l 1
 333 0 l 1
275 0 m 1
 275 122 l 1
 308 122 381 122 448 122 c 0
 506 122 503 126 503 145 c 0
 503 211 l 2
 503 232 507 231 457 231 c 0
 457 354 l 1
 543 354 626 322 626 229 c 0
 626 111 l 0
 626 43 565 0 471 0 c 0
 275 0 l 1
281 162 m 1
 403 162 l 1
 403 589 l 1
 281 589 l 1
 281 162 l 1
39 0 m 9
 161 0 l 1
 161 591 l 1
 39 591 l 1
 39 0 l 9
39 595 m 1
 40 473 l 1
 512 473 l 1
 512 595 l 1
 39 595 l 1
EndSplineSet
EndChar

StartChar: tml_Ii
Encoding: 7 2952 13
Width: 629
VWidth: 0
Flags: HW
HStem: 1 21G<39 161> 187 125<193 287 482 574> 473 123<39 217>
VStem: 39 178<473 596> 39 122<1 473> 178 125<202 296> 466 125<201 296>
LayerCount: 3
Fore
SplineSet
466 248 m 0xe2
 466 282 494 311 528 311 c 0
 562 311 591 282 591 248 c 0
 591 214 562 186 528 186 c 0
 494 186 466 214 466 248 c 0xe2
178 249 m 0xe6
 178 283 206 312 240 312 c 0
 274 312 303 283 303 249 c 0
 303 215 274 187 240 187 c 0
 206 187 178 215 178 249 c 0xe6
323 0 m 1
 445 0 l 1
 445 593 l 5
 323 593 l 5
 323 0 l 1
39 1 m 17xea
 39 592 l 5xf2
 161 593 l 5
 161 1 l 1
 39 1 l 17xea
271 473 m 1
 587 473 l 1
 587 595 l 5
 271 595 l 5
 271 473 l 1
39 473 m 1
 39 595 l 5
 217 595 l 5
 217 473 l 1
 39 473 l 1
EndSplineSet
EndChar

StartChar: tml_Lla
Encoding: 32 2995 14
Width: 976
VWidth: 0
Flags: W
HStem: 0 122<175 212 267 305> 237 123<175 212 267 306> 482 123<230 299 353 416 622 660>
VStem: 41 171<115 122 237 359> 41 131<306 418> 41 124<130 225 226 228> 313 123<127 231>
LayerCount: 3
Fore
SplineSet
41 226 m 1xe6
 41 326 l 2
 41 427 120 605 299 605 c 1xf2
 299 484 l 1
 234 484 172 427 172 327 c 0xea
 172 270 47 256 41 226 c 1xe6
267 0 m 1
 267 122 l 0
 308 122 314 150 313 181 c 0
 312 208 309 237 267 237 c 1
 267 359 l 0
 363 359 436 276 436 224 c 0
 436 152 l 0
 437 89 376 0 267 0 c 1
353 484 m 1
 422 484 473 417 474 354 c 1
 475 0 l 1
 601 0 l 1
 597 355 l 1
 597 454 515 605 353 605 c 1
 353 484 l 1
41 151 m 0
 41 193 42 140 41 220 c 0xe6
 40 324 162 359 212 359 c 1xf2
 212 237 l 0xf2
 183 237 165 210 165 181 c 0xe6
 165 149 179 122 212 122 c 1
 212 0 l 0xf2
 110 0 41 91 41 151 c 0
742 0 m 1
 864 0 l 1
 864 574 l 1
 742 574 l 1
 742 0 l 1
714 482 m 1
 938 482 l 1
 938 605 l 1
 714 605 l 1
 714 482 l 1
474 325 m 1
 597 326 l 1
 597 454 619 482 660 482 c 1
 660 605 l 1
 487 605 474 440 474 325 c 1
EndSplineSet
EndChar

StartChar: tml_La
Encoding: 31 2994 15
Width: 892
VWidth: 0
Flags: W
HStem: 0 122<173 210 265 303 599 635 688 727> 237 123<173 210 265 304> 485 121<235 297 351 416>
VStem: 39 171<115 122 237 359> 39 131<306 416> 39 124<130 225 226 228> 311 123<127 231> 472 122<127 165 353 425> 731 122<130 166 422 465>
LayerCount: 3
Fore
SplineSet
265 0 m 1xe380
 265 122 l 0
 306 122 312 150 311 181 c 0
 310 208 307 237 265 237 c 1
 265 359 l 0
 361 359 434 276 434 224 c 0
 434 152 l 0
 435 89 374 0 265 0 c 1xe380
39 151 m 0
 39 193 40 140 39 220 c 0xe780
 38 324 160 359 210 359 c 1xf380
 210 237 l 0xf380
 181 237 163 210 163 181 c 0xe780
 163 149 177 122 210 122 c 1
 210 0 l 0xf380
 108 0 39 91 39 151 c 0
39 226 m 1xe780
 39 323 l 2
 39 424 118 606 297 606 c 1
 297 485 l 1
 232 485 170 427 170 327 c 0xeb80
 170 270 45 256 39 226 c 1xe780
351 484 m 1
 429 484 470 418 471 354 c 10
 472 165 l 18
 472 84 520 0 635 0 c 1
 635 123 l 1
 610 123 594 138 594 165 c 2
 594 353 l 2
 593 456 519 606 351 606 c 1
 351 484 l 1
680 594 m 1
 681 471 l 1
 719 471 731 458 731 422 c 1
 731 166 l 17
 731 139 715 123 688 123 c 1
 688 0 l 1
 798 0 854 81 854 166 c 2
 854 424 l 2
 854 541 800 595 680 594 c 1
EndSplineSet
EndChar

StartChar: tml_Nya
Encoding: 20 2974 16
Width: 868
VWidth: 0
Flags: W
HStem: -165 122<46 701> 1 122<180 210 265 298> 238 123<181 210 265 304> 472 105<484 606> 472 123<235 304 359 484 606 707>
VStem: 39 124<145 217> 39 131<310 405> 39 171<116 123 238 360> 317 123<146 215> 484 123<0 577> 706 123<-36 197>
LayerCount: 3
Fore
SplineSet
46 -43 m 5
 643 -43 l 6xe0e0
 705 -43 706 -23 706 26 c 4
 707 154 l 2
 707 200 702 201 660 201 c 0
 660 323 l 1
 745 323 829 296 829 154 c 0
 829 26 l 4
 829 -82 790 -165 616 -165 c 4
 46 -165 l 5
 46 -43 l 5
EndSplineSet
Refer: 4 2958 N 1 0 0 1 0 0 2
EndChar

StartChar: tml_Nnna
Encoding: 25 2985 17
Width: 1076
VWidth: 0
Flags: W
HStem: -14 122<164 186 239 261 547 568 622 644> 0 21G<819 941> 483 90<819 941> 483 122<230 335 389 490 707 748 801 819 941 1037>
VStem: 40 122<110 154 290 413> 263 122<112 336> 423 122<111 399> 646 122<113 396> 819 122<0 573>
LayerCount: 3
Fore
SplineSet
423 154 m 5
 423 288 l 6
 423 591 689 606 748 606 c 5
 748 484 l 5x0f80
 667 484 545 477 545 290 c 6
 545 155 l 4
 545 143 543 109 568 109 c 5
 568 -13 l 4
 473 -13 423 69 423 154 c 5
389 483 m 5
 389 605 l 5x1f80
 531 605 768 586 768 301 c 6
 768 154 l 4
 768 62 719 -13 622 -13 c 5
 622 109 l 4
 650 109 646 143 646 154 c 4
 646 290 l 6
 646 476 522 482 389 483 c 5
40 153 m 5
 40 68 91 -14 186 -14 c 4
 186 108 l 5x9f80
 161 108 162 142 162 154 c 4
 162 290 l 6
 162 476 255 483 335 483 c 5
 335 605 l 5
 266 605 40 596 40 290 c 6
 40 153 l 5
210 342 m 5
 207 376 238 432 295 437 c 5
 362 437 385 378 385 290 c 6
 385 154 l 4
 385 62 336 -14 239 -14 c 5
 239 109 l 4
 267 109 263 143 263 154 c 4
 263 290 l 6
 263 342 231 342 210 342 c 5
801 483 m 1x2f80
 801 605 l 1
 1037 605 l 1x1f80
 1037 482 l 1
 801 483 l 1x2f80
819 0 m 1x6f80
 819 573 l 1
 941 573 l 1
 941 0 l 1
 819 0 l 1x6f80
EndSplineSet
EndChar

StartChar: tml_Nna
Encoding: 22 2979 18
Width: 1460
VWidth: 0
Flags: HW
HStem: -12 122<163 190 230 258 546 573 613 641 935 958 998 1026> 1 21G<1203 1325> 484 122<221 349 388 483 711 762 801 869 1100 1146 1186 1203 1325 1422> 484 90<1203 1325>
VStem: 39 122<111 155 300 414> 262 122<113 346> 422 122<112 407> 645 122<114 405> 807 122<113 408> 1029 122<115 406> 1203 122<1 574>
LayerCount: 3
Fore
SplineSet
807 168 m 1
 807 288 l 2
 807 591 1075 595 1139 595 c 1
 1139 473 l 1
 1051 473 929 476 929 290 c 2
 929 169 l 0
 929 157 927 123 952 123 c 1
 952 1 l 0
 857 1 807 83 807 168 c 1
809 473 m 1
 809 595 l 1
 941 595 1152 586 1152 301 c 2
 1152 168 l 0
 1152 76 1103 1 1006 1 c 1
 1006 123 l 0
 1034 123 1029 157 1029 168 c 0
 1029 290 l 2
 1029 476 932 473 809 473 c 1
422 167 m 1
 422 287 l 2
 422 590 690 595 755 595 c 1
 755 472 l 1
 666 472 544 475 544 289 c 2
 544 168 l 0
 544 156 542 122 567 122 c 1
 567 -0 l 0
 472 0 422 82 422 167 c 1
388 472 m 1
 388 595 l 1
 530 595 767 585 767 300 c 2
 767 167 l 0
 767 75 717 0 620 -0 c 1
 620 122 l 0
 648 122 645 156 645 167 c 0
 645 289 l 2
 645 475 521 471 388 472 c 1
39 166 m 1
 39 81 89 -1 184 -1 c 0
 184 121 l 1
 159 121 161 155 161 167 c 0
 161 289 l 2
 161 475 254 472 334 472 c 1
 334 595 l 1
 265 595 39 595 39 289 c 2
 39 166 l 1
209 341 m 1
 206 375 237 431 294 436 c 1
 361 436 384 377 384 289 c 2
 384 166 l 0
 384 74 335 -1 238 -1 c 1
 238 121 l 0
 266 121 262 155 262 166 c 0
 262 289 l 2
 262 341 230 341 209 341 c 1
1194 473 m 1
 1194 595 l 1x2fe0
 1422 595 l 1
 1422 472 l 1
 1194 473 l 1
1203 1 m 1x5fe0
 1203 563 l 1
 1325 563 l 1
 1325 1 l 1
 1203 1 l 1x5fe0
EndSplineSet
EndChar

StartChar: tml_Ma
Encoding: 27 2990 19
Width: 663
VWidth: 0
Flags: HW
HStem: 0 123<161 243 365 405 459 497> 107 17<39 161> 122 1<243 365> 483 122<371 405 459 495>
VStem: 39 122<123 595> 243 122<122 480> 503 123<130 478>
LayerCount: 3
Fore
SplineSet
459 0 m 0
 459 123 l 1x9e
 499 123 502 157 502 179 c 2
 502 434 l 0
 502 457 500 483 459 483 c 1
 459 605 l 1
 547 605 624 564 624 434 c 0
 624 197 l 0
 624 51 540 0 459 0 c 0
243 122 m 0x3e
 243 434 l 0
 242 571 324 605 405 605 c 1
 405 483 l 17
 371 483 365 459 365 434 c 2
 365 122 l 1
 243 122 l 0x3e
39 107 m 1x5e
 39 595 l 1
 161 595 l 1
 161 107 l 1
 39 107 l 1x5e
39 0 m 1x9e
 39 123 l 1x5e
 405 123 l 1
 405 0 l 1x9e
 39 0 l 1x9e
EndSplineSet
EndChar

StartChar: tml_Llla
Encoding: 33 2996 20
Width: 663
VWidth: 0
Flags: HW
HStem: -145 123<368 559> 0 123<161 243 365 405 459 497> 107 17<39 161> 122 1<243 365> 483 122<371 405 459 495>
VStem: 39 122<123 595> 243 122<122 480> 503 123<130 478>
LayerCount: 3
Fore
SplineSet
53 -67 m 1
 53 -191 183 -260 327 -165 c 1
 281 -160 235 -119 231 -87 c 1
 213 -103 176 -91 175 -67 c 1x8f
 53 -67 l 1
243 1 m 1
 365 1 l 1
 365 -29 401 -22 559 -22 c 1
 559 -146 l 0
 429 -145 l 1
 265 -146 243 -60 243 1 c 1
EndSplineSet
Refer: 19 2990 N 1 0 0 1 0 0 2
EndChar

StartChar: tml_Aa
Encoding: 5 2950 21
Width: 1221
VWidth: 0
Flags: HW
HStem: -293 122<578 1065> -127 122<207 390 445 662> 205 119<211 253 341 341 498 681 762 855> 373 122<377 455> 562 122<384 638>
VStem: 39 122<17 192> 225 116<205 466> 498 110<217 324> 681 122<33 205 378 490> 762 41<205 324> 853 122<-107 205 324 578> 853 3<205 324> 1073 122<-159 65>
LayerCount: 3
Back
SplineSet
802.734375 383.7890625 m 13xff88
 802.734375 377.9296875 l 5
 680.6640625 377.9296875 l 5
 680.6640625 383.7890625 l 4
 680.6640625 489.645507812 637.810546875 561.5234375 515.625 561.5234375 c 4
 383.7890625 561.5234375 346.6796875 465.8203125 346.6796875 323.2421875 c 5
 224.609375 304.6875 l 5
 224.609375 313.03125 224.633789062 377.797851562 224.609375 385.7421875 c 4
 224.015625 577.1484375 356.98046875 683.725585938 515.625 683.59375 c 5
 695.681640625 683.59375 802.734375 564.24609375 802.734375 383.7890625 c 13xff88
443.84765625 110.3515625 m 5
 443.84765625 235.3515625 l 5
 465.444335938 243.720703125 486.223632812 270.486328125 486.223632812 302.837890625 c 4
 486.223632812 342.044921875 455.22265625 373.046875 416.015625 373.046875 c 4
 376.809570312 373.046875 345.806640625 342.044921875 345.806640625 302.837890625 c 4
 345.806640625 270.249023438 367.2265625 243.330078125 390.13671875 235.170898438 c 5
 390.13671875 110.3515625 l 5
 306.15234375 110.3515625 224.609375 205.078125 224.609375 274.4140625 c 4
 224.609375 320.3125 l 6
 224.609375 399.909179688 321.564453125 495.081054688 413.0859375 495.1171875 c 4
 520.001953125 495.159179688 608.3984375 408.279296875 608.3984375 326.171875 c 6
 608.3984375 274.4140625 l 6
 608.3984375 216.796875 525.87890625 110.3515625 443.84765625 110.3515625 c 5
498.046875 324.21875 m 5
 580.403320312 324.21875 720.377929688 324.21875 802.734375 324.21875 c 5xff48
 803.7109375 67.3828125 l 5
 803.7109375 -34.4775390625 733.3984375 -126.953125 607.421875 -126.953125 c 4
 445.3125 -126.953125 l 4
 445.3125 -4.8828125 l 21
 595.703125 -4.8828125 l 4
 662.109375 -4.3408203125 680.6640625 33.1396484375 680.6640625 67.3828125 c 5
 680.6640625 205.078125 l 5
 639.6484375 205.078125 539.0625 205.078125 498.046875 205.078125 c 5
 498.046875 324.21875 l 5
389.6484375 -4.8828125 m 5
 389.6484375 -126.953125 l 5
 242.1875 -126.953125 l 4
 129.8828125 -126.953125 39.0625 -14.0029296875 39.0625 105.46875 c 4
 39.0625 221.422851562 123.046875 326.171875 252.9296875 326.171875 c 6
 340.8203125 326.171875 l 5
 340.8203125 204.1015625 l 5
 235.3515625 204.1015625 l 4
 210.9375 204.1015625 161.1328125 162.109375 161.1328125 105.016601562 c 4
 161.1328125 48.400390625 207.03125 -4.8828125 252.9296875 -4.8828125 c 4
 389.6484375 -4.8828125 l 5
761.71875 324.21875 m 5
 855.46875 324.21875 l 5
 855.46875 205.078125 l 5xff58
 761.71875 205.078125 l 5
 761.71875 324.21875 l 5
852.5390625 578.125 m 5xff28
 974.609375 578.125 l 5
 974.609375 -107.421875 l 5
 852.5390625 -107.421875 l 5
 852.5390625 578.125 l 5xff28
802.734375 383.7890625 m 13xff88
 802.734375 377.9296875 l 5
 680.6640625 377.9296875 l 5
 680.6640625 383.7890625 l 4
 680.6640625 489.645507812 637.810546875 561.5234375 515.625 561.5234375 c 4
 383.7890625 561.5234375 346.6796875 465.8203125 346.6796875 323.2421875 c 5
 224.609375 304.6875 l 5
 224.609375 313.03125 224.633789062 377.797851562 224.609375 385.7421875 c 4
 224.015625 577.1484375 356.98046875 683.725585938 515.625 683.59375 c 5
 695.681640625 683.59375 802.734375 564.24609375 802.734375 383.7890625 c 13xff88
443.84765625 110.3515625 m 5
 443.84765625 235.3515625 l 5
 465.444335938 243.720703125 486.223632812 270.486328125 486.223632812 302.837890625 c 4
 486.223632812 342.044921875 455.22265625 373.046875 416.015625 373.046875 c 4
 376.809570312 373.046875 345.806640625 342.044921875 345.806640625 302.837890625 c 4
 345.806640625 270.249023438 367.2265625 243.330078125 390.13671875 235.170898438 c 5
 390.13671875 110.3515625 l 5
 306.15234375 110.3515625 224.609375 205.078125 224.609375 274.4140625 c 4
 224.609375 320.3125 l 6
 224.609375 399.909179688 321.564453125 495.081054688 413.0859375 495.1171875 c 4
 520.001953125 495.159179688 608.3984375 408.279296875 608.3984375 326.171875 c 6
 608.3984375 274.4140625 l 6
 608.3984375 216.796875 525.87890625 110.3515625 443.84765625 110.3515625 c 5
498.046875 324.21875 m 5
 580.403320312 324.21875 720.377929688 324.21875 802.734375 324.21875 c 5xff48
 803.7109375 67.3828125 l 5
 803.7109375 -34.4775390625 733.3984375 -126.953125 607.421875 -126.953125 c 4
 445.3125 -126.953125 l 4
 445.3125 -4.8828125 l 21
 595.703125 -4.8828125 l 4
 662.109375 -4.3408203125 680.6640625 33.1396484375 680.6640625 67.3828125 c 5
 680.6640625 205.078125 l 5
 639.6484375 205.078125 539.0625 205.078125 498.046875 205.078125 c 5
 498.046875 324.21875 l 5
389.6484375 -4.8828125 m 5
 389.6484375 -126.953125 l 5
 242.1875 -126.953125 l 4
 129.8828125 -126.953125 39.0625 -14.0029296875 39.0625 105.46875 c 4
 39.0625 221.422851562 123.046875 326.171875 252.9296875 326.171875 c 6
 340.8203125 326.171875 l 5
 340.8203125 204.1015625 l 5
 235.3515625 204.1015625 l 4
 210.9375 204.1015625 161.1328125 162.109375 161.1328125 105.016601562 c 4
 161.1328125 48.400390625 207.03125 -4.8828125 252.9296875 -4.8828125 c 4
 389.6484375 -4.8828125 l 5
761.71875 324.21875 m 5
 855.46875 324.21875 l 5
 855.46875 205.078125 l 5xff58
 761.71875 205.078125 l 5
 761.71875 324.21875 l 5
852.5390625 578.125 m 5xff28
 974.609375 578.125 l 5
 974.609375 -107.421875 l 5
 852.5390625 -107.421875 l 5
 852.5390625 578.125 l 5xff28
1006.8359375 -170.573242188 m 6
 1069.3359375 -170.5390625 1073.2421875 -150.390625 1073.2421875 -101.5625 c 4
 1073.2421875 21.484375 l 6
 1073.70214844 67.4072265625 1070.3125 68.359375 1028.3203125 68.359375 c 4
 1028.3203125 190.4296875 l 5
 1119.140625 190.4296875 1195.3125 168.9453125 1195.3125 21.484375 c 4
 1195.3125 -101.5625 l 4
 1195.3125 -209.9609375 1154.296875 -292.96875 980.46875 -292.96875 c 4
 578.125 -292.96875 l 5
 578.125 -170.8984375 l 5
 1006.8359375 -170.573242188 l 6
EndSplineSet
Fore
SplineSet
683 -136 m 1
 1007 -135 l 2
 1069 -135 1073 -115 1073 -66 c 0
 1073 21 l 2
 1073 67 1070 68 1028 68 c 0
 1028 190 l 1
 1119 190 1195 168 1195 21 c 0
 1195 -66 l 0
 1195 -174 1154 -258 980 -258 c 0
 683 -258 l 1
 683 -136 l 1
EndSplineSet
Refer: 5 2949 N 1 0 0 1 0 0 2
EndChar

StartChar: tml_I
Encoding: 6 2951 22
Width: 1143
VWidth: 0
Flags: HW
HStem: -141 119<194 299 549 760> 35 121<463 494 548 577> 131 11<207 306> 136 122<210 277 306 342 343 431 659 784 906 960> 141 90<182 218> 279 122<505 578> 424 121<535 711> 583 123<501 738>
VStem: 39 121<9 122> 342 89<130 255> 659 54<136 258> 784 122<-0 136 309 360> 944 122<309 406> 981 123<5 115>
LayerCount: 3
Back
SplineSet
784.1796875 308.59375 m 1x87f0
 784.1796875 353.515625 724.838867188 423.828125 618.1640625 423.828125 c 0
 524.4140625 423.828125 463.8671875 360.3515625 463.8671875 262.6953125 c 1
 341.796875 250 l 1
 341.796875 462.890625 481.506835938 540.994140625 618.1640625 544.921875 c 1
 761.111328125 544.921875 906.25 450.96484375 906.25 308.59375 c 1
 784.1796875 308.59375 l 1x87f0
616.2109375 706.090820312 m 0
 805.735351562 706.497070312 1066.40625 589.598632812 1066.40625 308.59375 c 1
 944.3359375 308.59375 l 1
 944.3359375 535.87890625 704.408203125 583.935546875 620.1171875 583.497070312 c 0
 467.639648438 582.703125 302.734375 491.2109375 302.734375 251.1640625 c 0
 174.8046875 230.46875 l 1x8ff8
 174.8046875 547.8515625 387.231445312 705.599609375 616.2109375 706.090820312 c 0
494.140625 -21.484375 m 1
 382.8125 -82.03125 l 0
 289.0625 -91.796875 181.640625 36.1328125 181.640625 140.625 c 1x8ff0
 305.6640625 141.6015625 l 1xa7f0
 317.3828125 70.3125 397.4609375 -1.953125 494.140625 -21.484375 c 1
659.1796875 257.8125 m 1x97f0
 741.536132812 257.8125 823.893554688 257.8125 906.25 257.8125 c 1
 906.25 50.78125 l 1
 906.25 -51.0791015625 835.9375 -140.625 709.9609375 -140.625 c 0
 548.828125 -140.625 l 0
 547.8515625 -21.484375 l 17
 698.2421875 -21.484375 l 0
 764.6484375 -20.9423828125 784.1796875 16.5380859375 784.1796875 50.78125 c 1
 784.1796875 135.7421875 l 1
 743.1640625 135.7421875 700.1953125 135.7421875 659.1796875 135.7421875 c 1
 659.1796875 257.8125 l 1x97f0
547.8515625 156.25 m 1xc7f0
 574.21875 156.575195312 592.7734375 190.4296875 592.7734375 218.75 c 0
 592.7734375 244.140625 572.265625 279.296875 540.0390625 279.296875 c 0
 535.17578125 279.296875 506.547851562 278.3203125 500.9765625 278.3203125 c 0
 471.6796875 278.3203125 448.2421875 249.0234375 448.2421875 218.75 c 0
 448.2421875 185.546875 472.65625 156.575195312 494.140625 156.25 c 1
 494.140625 35.15625 l 17
 393.5546875 35.15625 342.7734375 129.8828125 342.7734375 167.96875 c 0
 341.796875 250 l 2
 341.796875 329.596679688 444.611328125 401.3671875 540.0390625 401.3671875 c 0
 630.859375 401.3671875 712.890625 311.5234375 712.890625 237.3046875 c 0
 712.890625 169.921875 l 2
 712.890625 121.09375 639.6484375 35.15625 547.8515625 35.15625 c 9
 547.8515625 156.25 l 1xc7f0
494.140625 -21.484375 m 1
 494.140625 -140.625 l 1
 298.828125 -140.625 l 0
 117.1875 -140.625 39.0625 -46.2294921875 39.0625 58.59375 c 0
 39.0625 177.734375 140.625 254.8828125 277.34375 254.8828125 c 2
 430.6640625 254.8828125 l 1
 430.6640625 129.8828125 l 1
 248.046875 130.859375 l 0xa7f0
 207.03125 130.859375 160.15625 101.5625 160.15625 58.1416015625 c 0
 160.15625 22.033203125 190.4296875 -21.484375 257.8125 -21.484375 c 0
 494.140625 -21.484375 l 1
906.25 257.8125 m 1x97f4
 1044.921875 257.8125 1104.4921875 176.7578125 1104.4921875 73.2421875 c 2
 1104.4921875 39.0625 l 1
 1104.4921875 -37.421875 1025.390625 -150.78125 873.046875 -131.8359375 c 1
 929.6875 -11.71875 l 1
 975.5859375 0 981.4453125 35.15625 981.4453125 66.3896484375 c 0
 981.4453125 112.3046875 945.3125 135.725585938 906.25 135.725585938 c 1
 906.25 257.8125 l 1x97f4
EndSplineSet
Fore
SplineSet
222 117 m 1x8ff8
 115 509 265 803 614 803 c 0
 908 803 1083 636 1075 244 c 1
 953 244 l 1
 961 542 867 680 618 680 c 0
 315 680 244 421 351 131 c 1
 222 117 l 1x8ff8
229 104 m 1x8ff0
 365 104 l 1xa7f0
 387 54 425 -14 494 -56 c 1
 374 -119 l 0
 312 -54 265 16 229 104 c 1x8ff0
873 -169 m 1
 930 -49 l 1
 976 -37 981 -2 981 29 c 0
 981 75 945 99 906 99 c 1
 906 221 l 1x97f4
 1045 221 1104 140 1104 36 c 2
 1104 2 l 1
 1104 -74 1025 -188 873 -169 c 1
365 436 m 0
 365 556 467 645 622 645 c 0
 802 645 907 534 907 342 c 9x9f80
 907 211 l 1
 785 211 l 1
 785 346 l 0
 785 452 744 522 622 522 c 0
 532 522 487 482 487 436 c 0
 487 390 517 360 557 360 c 0
 602 360 642 382 642 447 c 0
 726 358 l 0
 721 295 647 238 557 238 c 0
 467 238 365 302 365 436 c 0
548 100 m 1
 548 219 l 1xbf80
 630 219 825 219 907 219 c 1xbf40
 908 17 l 1
 908 -85 838 -178 712 -178 c 0
 550 -178 l 0
 550 -56 l 17
 700 -56 l 0
 766 -55 785 -17 785 17 c 1
 785 100 l 1
 744 100 589 100 548 100 c 1
37 21 m 0
 37 137 121 221 251 221 c 2
 493 221 l 1
 493 99 l 1
 233 99 l 0
 209 99 159 78 159 21 c 0
 159 -32 205 -56 251 -56 c 0
 494 -56 l 1
 494 -178 l 1
 240 -178 l 0
 128 -178 37 -98 37 21 c 0
EndSplineSet
EndChar

StartChar: tml_Ka
Encoding: 16 2965 23
Width: 818
VWidth: 0
Flags: W
HStem: -11 123<186 277 331 401> 2 124<571 655> 249 122<181 229 295 655> 348 23<173 295> 470 125<296 335 389 428 550 682> 470 71<428 550>
VStem: 48 121<128 244> 173 162<470 595> 173 122<348 470> 428 122<137 541> 664 122<135 241>
LayerCount: 3
Fore
SplineSet
331 -11 m 13x8660
 331 112 l 5
 397 112 428 141 428 187 c 4
 428 541 l 5
 550 541 l 5
 550 191 l 6
 550 95 498 -11 331 -11 c 13x8660
173 348 m 21x12e0
 173 539 l 5x1360
 296 539 l 5
 295 348 l 5
 173 348 l 21x12e0
389 470 m 5
 389 595 l 5x0a60
 682 595 l 5
 682 470 l 5
 389 470 l 5
173 470 m 5x0760
 173 595 l 5x0b60
 335 595 l 5
 335 470 l 5x0b60
 173 470 l 5x0760
48 157 m 4
 48 240 l 4
 48 347 140 371 226 371 c 4
 603 371 l 4
 709 371 786 350 786 236 c 6
 786 156 l 4
 786 60 703 2 569 2 c 5
 571 126 l 4
 647 126 664 129 664 185 c 4
 664 239 652 249 611 249 c 6
 229 249 l 6x6260
 181 249 169 239 169 188 c 4
 169 127 188 112 277 112 c 5
 277 -11 l 5xa260
 120 -11 48 68 48 157 c 4
EndSplineSet
EndChar

StartChar: tml_Ca
Encoding: 18 2970 24
Width: 726
VWidth: 0
Flags: W
HStem: -1 123<172 269 322 398> 249 122<174 238 286 643> 348 23<164 286> 470 125<287 327 381 688> 470 118<419 541>
VStem: 39 121<133 241> 164 163<470 595> 164 122<371 470> 419 122<142 588>
LayerCount: 3
Fore
SplineSet
39 157 m 0
 39 218 l 0
 39 326 149 371 235 371 c 0
 643 371 l 9xc480
 643 249 l 1
 238 249 l 2
 174 249 160 239 160 188 c 0
 160 127 180 122 269 122 c 1
 269 -1 l 1
 112 0 39 68 39 157 c 0
322 -1 m 9
 322 122 l 1
 388 122 419 141 419 187 c 0
 419 588 l 1
 541 588 l 1x8c80
 541 191 l 2
 541 95 489 -1 322 -1 c 9
164 348 m 17xa580
 164 586 l 1xa680
 287 586 l 1
 286 348 l 1
 164 348 l 17xa580
381 470 m 1
 381 595 l 1x9480
 688 595 l 1
 688 470 l 1
 381 470 l 1
164 470 m 1x8e80
 164 595 l 1x9680
 327 595 l 1
 327 470 l 1x9680
 164 470 l 1x8e80
EndSplineSet
EndChar

StartChar: tml_Ta
Encoding: 23 2980 25
Width: 790
VWidth: 0
Flags: HW
HStem: -158 122<271 599> 2 123<171 269 322 398> 251 123<182 238 564 606> 351 23<164 235>
VStem: 39 123<135 165 205 242> 130 128<-256 -169> 611 122<-28 151>
LayerCount: 3
Fore
SplineSet
130 -256 m 1
 130 -107 193 -36 329 -36 c 2
 559 -36 l 0
 608 -36 610 -6 610 24 c 0
 611 151 l 1
 733 151 l 1xc6
 733 24 l 0
 733 -42 713 -158 560 -158 c 0
 312 -158 l 2
 271 -158 258 -180 258 -256 c 1
 130 -256 l 1
39 157 m 9xca
 162 157 l 17
 169 120 196 125 269 125 c 1
 269 2 l 1
 109 2 39 64 39 157 c 9xca
39 212 m 9
 160 212 l 17
 160 252 181 252 238 252 c 2
 576 251 l 1
 618 251 611 205 611 205 c 2
 733 205 l 1
 733 352 655 374 564 374 c 1xea
 235 374 l 2
 138 374 39 332 39 212 c 9
322 2 m 17
 489 2 541 98 541 194 c 2
 541 591 l 1
 419 591 l 1
 419 190 l 0
 419 144 388 125 322 125 c 1
 322 2 l 17
164 351 m 9xd2
 286 351 l 1
 287 589 l 1
 164 589 l 1
 164 351 l 9xd2
380 473 m 1
 673 473 l 1
 673 595 l 1
 380 595 l 1
 380 473 l 1
164 473 m 1
 326 473 l 1
 326 595 l 1
 164 595 l 1
 164 473 l 1
EndSplineSet
EndChar

StartChar: tml_Four
Encoding: 57 3050 26
Width: 908
VWidth: 0
Flags: HW
LayerCount: 3
Fore
SplineSet
742 249 m 17xa580
 742 487 l 1xa680
 865 487 l 1
 864 249 l 1
 742 249 l 17xa580
39 157 m 0
 39 218 l 0
 39 326 149 371 235 371 c 0
 856 371 l 9xc480
 856 249 l 1
 238 249 l 2
 174 249 160 239 160 188 c 0
 160 127 180 122 269 122 c 1
 269 -1 l 1
 112 0 39 68 39 157 c 0
322 -1 m 9
 322 122 l 1
 388 122 419 141 419 187 c 0
 419 588 l 1
 541 588 l 1x8c80
 541 191 l 2
 541 95 489 -1 322 -1 c 9
164 348 m 17xa580
 164 586 l 1xa680
 287 586 l 1
 286 348 l 1
 164 348 l 17xa580
381 470 m 1
 381 595 l 1x9480
 688 595 l 1
 688 470 l 1
 381 470 l 1
164 470 m 1x8e80
 164 595 l 1x9680
 327 595 l 1
 327 470 l 1x9680
 164 470 l 1x8e80
EndSplineSet
EndChar

StartChar: tml_Five
Encoding: 58 3051 27
Width: 0
VWidth: 0
Flags: HW
LayerCount: 3
Fore
SplineSet
542 473 m 1
 812 473 l 1
 812 595 l 1
 542 595 l 1xd9
 542 473 l 1
542 -55 m 13
 542 -177 l 5
 730 -178 l 4
 856 -178 917 -82 917 -15 c 4
 917 221 l 2
 917 339 815 366 754 372 c 1
 754 251 l 1
 775 251 795 237 795 187 c 0
 795 38 l 4
 795 -5 798 -55 729 -55 c 4
 542 -55 l 13
39 30 m 4
 39 -109 124 -176 233 -176 c 4
 487 -177 l 5
 487 -55 l 21
 249 -55 l 4
 185 -55 162 -35 162 29 c 4
 162 287 l 0
 162 323 165 379 239 379 c 0
 238 501 l 0xe9
 153 501 39 455 39 292 c 0
 39 30 l 4
575 1 m 1
 698 1 l 1
 700 591 l 1
 575 591 l 1
 575 1 l 1
294 1 m 17xdb
 294 595 l 1xdd
 416 595 l 1
 416 1 l 1
 294 1 l 17xdb
296 473 m 1
 296 595 l 1
 488 595 l 1
 488 473 l 1
 296 473 l 1
EndSplineSet
EndChar

StartChar: tml_Six
Encoding: 59 3052 28
Width: 1078
VWidth: 0
Flags: HW
LayerCount: 3
Fore
SplineSet
860 2 m 17xa580
 860 257 l 1xa680
 983 257 l 1
 982 2 l 1
 860 2 l 17xa580
655 2 m 17xa580
 655 257 l 1xa680
 778 257 l 1
 777 2 l 1
 655 2 l 17xa580
39 157 m 0
 39 218 l 0
 39 326 149 371 235 371 c 0
 1039 371 l 9xc480
 1039 249 l 1
 238 249 l 2
 174 249 160 239 160 188 c 0
 160 127 180 122 269 122 c 1
 269 -1 l 1
 112 0 39 68 39 157 c 0
322 -1 m 9
 322 122 l 1
 388 122 419 141 419 187 c 0
 419 588 l 1
 541 588 l 1x8c80
 541 191 l 2
 541 95 489 -1 322 -1 c 9
164 348 m 17xa580
 164 586 l 1xa680
 287 586 l 1
 286 348 l 1
 164 348 l 17xa580
381 470 m 1
 381 595 l 1x9480
 688 595 l 1
 688 470 l 1
 381 470 l 1
164 470 m 1x8e80
 164 595 l 1x9680
 327 595 l 1
 327 470 l 1x9680
 164 470 l 1x8e80
EndSplineSet
EndChar

StartChar: tml_Seven
Encoding: 60 3053 29
Width: 0
VWidth: 0
Flags: W
LayerCount: 3
Fore
SplineSet
265 1 m 1xc180
 265 123 l 0
 299 123 318 146 317 182 c 0
 316 216 305 238 265 238 c 1
 265 360 l 0
 364 360 439 281 439 220 c 0
 439 148 l 0
 439 86 364 1 265 1 c 1xc180
39 149 m 0
 39 221 l 0xc380
 38 325 160 360 210 360 c 1xc980
 210 238 l 0xc980
 181 238 163 218 163 182 c 0xc380
 163 145 180 123 210 123 c 1
 210 1 l 0xc980
 108 1 39 96 39 149 c 0
359 472 m 1
 359 595 l 1
 707 595 l 1xe180
 707 472 l 1
 359 472 l 1
484 0 m 1
 484 577 l 1xd180
 606 577 l 1
 606 0 l 1
 484 0 l 1
265 1 m 1
 265 123 l 0
 299 123 318 146 317 182 c 0
 316 216 305 238 265 238 c 1
 265 360 l 0
 364 360 439 281 439 220 c 0
 439 148 l 0
 439 86 364 1 265 1 c 1
39 228 m 1xe380
 39 281 l 2
 39 396 101 595 304 595 c 1xe980
 304 472 l 1
 217 472 177 406 170 329 c 0xe580
 165 272 45 258 39 228 c 1xe380
39 149 m 0
 39 221 l 0xc380
 38 325 160 360 210 360 c 1xc980
 210 238 l 0xc980
 181 238 163 218 163 182 c 0xc380
 163 145 180 123 210 123 c 1
 210 1 l 0xc980
 108 1 39 96 39 149 c 0
EndSplineSet
EndChar

StartChar: tml_Eight
Encoding: 61 3054 30
Width: 0
VWidth: 0
Flags: HW
LayerCount: 3
Fore
SplineSet
329 486 m 0
 329 632 408 734 565 734 c 0
 725 734 803 638 803 486 c 9x9f80
 803 264 l 5
 681 264 l 5
 681 486 l 0
 681 563 643 612 565 612 c 0
 486 612 451 562 451 486 c 0
 451 382 625 290 684 228 c 1
 530 228 l 1
 471 264 329 338 329 486 c 0
383 150 m 1
 383 270 l 1xbf80
 465 270 721 270 803 270 c 1xbf40
 804 67 l 1
 804 -35 733 -127 607 -127 c 0
 385 -127 l 0
 385 -5 l 17
 596 -5 l 0
 662 -4 681 33 681 67 c 1
 681 150 l 1
 640 150 424 150 383 150 c 1
39 72 m 0
 39 188 123 271 253 271 c 2
 328 271 l 1
 328 149 l 1
 235 149 l 0
 211 149 161 129 161 72 c 0
 161 19 207 -5 253 -5 c 0
 329 -5 l 1
 329 -127 l 1
 242 -127 l 0
 130 -127 39 -47 39 72 c 0
762 150 m 1
 762 270 l 1
 855 270 l 1
 855 150 l 1xbf50
 762 150 l 1
853 -107 m 1
 853 578 l 1x9f20
 975 578 l 1
 975 -107 l 1
 853 -107 l 1
EndSplineSet
EndChar

StartChar: tml_Nine
Encoding: 62 3055 31
Width: 977
VWidth: 0
Flags: HW
LayerCount: 3
Fore
SplineSet
555 249 m 1
 555 371 l 1
 731 371 l 2
 842 371 938 348 938 215 c 0
 938 205 l 0
 938 101 850 50 795 50 c 0
 767 50 l 0
 698 50 626 120 626 205 c 1
 748 205 l 0
 748 185 760 172 782 172 c 0
 805 172 816 186 816 204 c 0
 816 242 784 249 728 249 c 2
 555 249 l 1
39 157 m 0
 39 218 l 0
 39 326 149 371 235 371 c 0
 643 371 l 9xc480
 643 249 l 1
 238 249 l 2
 174 249 160 239 160 188 c 0
 160 127 180 122 269 122 c 1
 269 -1 l 1
 112 0 39 68 39 157 c 0
322 -1 m 9
 322 122 l 1
 388 122 419 141 419 187 c 0
 419 588 l 1
 541 588 l 1x8c80
 541 191 l 2
 541 95 489 -1 322 -1 c 9
164 348 m 17xa580
 164 586 l 1xa680
 287 586 l 1
 286 348 l 1
 164 348 l 17xa580
381 470 m 1
 381 595 l 1x9480
 688 595 l 1
 688 470 l 1
 381 470 l 1
164 470 m 1x8e80
 164 595 l 1x9680
 327 595 l 1
 327 470 l 1x9680
 164 470 l 1x8e80
EndSplineSet
EndChar

StartChar: tml_Ten
Encoding: 63 3056 32
Width: 0
VWidth: 0
Flags: HW
LayerCount: 3
Fore
SplineSet
485 729 m 1
 608 729 l 1
 709 595 l 1
 587 595 l 1
 485 729 l 1
548 0 m 257
 548 119 l 257xf0
 572 119 587 130 587 145 c 258xe8
 587 595 l 257
 709 595 l 257xe8
 709 145 l 2
 708 97 678 0 548 0 c 257
80 146 m 262
 80 595 l 261
 202 595 l 261
 202 146 l 262
 202 132 208 119 234 119 c 261
 234 0 l 261
 134 0 80 68 80 146 c 262
288 0 m 261
 288 119 l 261
 312 119 333 126 333 145 c 262
 333 595 l 261
 454 595 l 261
 454 145 l 262
 454 132 465 119 494 119 c 261
 494 0 l 261
 439 0 413 0 392 33 c 261
 368 0 337 0 288 0 c 261
EndSplineSet
EndChar

StartChar: tml_Hundred
Encoding: 64 3057 33
Width: 844
VWidth: 0
Flags: HW
LayerCount: 3
Fore
SplineSet
581 0 m 1
 581 511 l 9
 703 511 l 258
 703 0 l 0xf6
 581 0 l 1
498 483 m 1
 498 606 l 1
 806 606 l 1
 806 483 l 1
 498 483 l 1
39 0 m 257
 39 479 l 0xee
 39 529 79 606 191 606 c 257
 191 483 l 257
 166 483 160 471 160 458 c 258
 163 0 l 257
 39 0 l 257
245 483 m 257
 245 606 l 257
 291 606 321 597 345 576 c 257
 373 599 405 606 444 606 c 257
 444 484 l 257
 426 484 405 481 405 459 c 258
 407 0 l 257
 285 0 l 257
 282 458 l 258
 282 472 271 483 245 483 c 257
EndSplineSet
EndChar

StartChar: tml_Thousand
Encoding: 65 3058 34
Width: 1095
VWidth: 0
Flags: HW
LayerCount: 3
Fore
SplineSet
630 -258 m 1
 723 -258 l 0
 725 -193 734 -178 775 -178 c 0
 860 -178 l 0
 965 -178 1057 -130 1057 16 c 0
 1057 148 966 204 856 204 c 0
 856 111 l 1
 922 111 962 77 962 16 c 0
 962 -46 920 -85 860 -85 c 0
 775 -85 l 2
 665 -85 630 -165 630 -258 c 1
568 69 m 0
 568 128 608 193 694 193 c 1
 694 101 l 0
 674 101 661 83 661 65 c 0
 661 46 679 32 693 32 c 0
 724 32 738 57 738 100 c 2
 738 350 l 1
 830 350 l 1
 830 96 l 2
 830 6 786 -61 694 -61 c 0
 616 -61 568 -3 568 69 c 0
39 157 m 0
 39 218 l 0
 39 326 149 371 235 371 c 0
 958 371 l 9xc480
 958 249 l 1
 238 249 l 2
 174 249 160 239 160 188 c 0
 160 127 180 122 269 122 c 1
 269 -1 l 1
 112 0 39 68 39 157 c 0
322 -1 m 9
 322 122 l 1
 388 122 419 141 419 187 c 0
 419 588 l 1
 541 588 l 1x8c80
 541 191 l 2
 541 95 489 -1 322 -1 c 9
164 348 m 17xa580
 164 586 l 1xa680
 287 586 l 1
 286 348 l 1
 164 348 l 17xa580
381 470 m 1
 381 595 l 1x9480
 688 595 l 1
 688 470 l 1
 381 470 l 1
164 470 m 1x8e80
 164 595 l 1x9680
 327 595 l 1
 327 470 l 1x9680
 164 470 l 1x8e80
EndSplineSet
EndChar

StartChar: tml_Day
Encoding: 66 3059 35
Width: 972
VWidth: 0
Flags: HW
LayerCount: 3
Fore
SplineSet
266 0 m 1
 266 122 l 1
 298 123 313 142 313 180 c 0
 313 218 297 237 266 237 c 1
 266 359 l 0
 362 359 435 276 435 224 c 0
 435 152 l 0
 436 89 375 0 266 0 c 1
39 151 m 0
 39 220 l 0
 38 324 161 359 211 359 c 1
 211 237 l 0
 182 237 164 218 164 181 c 0
 164 147 178 122 211 122 c 1
 211 0 l 0
 109 0 39 91 39 151 c 0
39 226 m 1
 39 305 l 1
 39 433 90 605 300 605 c 1
 300 483 l 1
 236 483 177 439 175 354 c 0
 39 226 l 1
351 483 m 1
 428 483 486 423 487 354 c 1
 487 146 l 0
 487 127 461 124 454 123 c 1
 454 0 l 1
 934 0 l 1
 934 123 l 1
 608 123 l 1
 608 355 l 1
 607 466 520 605 351 605 c 1
 351 483 l 1
EndSplineSet
EndChar

StartChar: tml_Month
Encoding: 67 3060 36
Width: 859
VWidth: 0
Flags: HW
LayerCount: 3
Fore
SplineSet
403 633 m 0
 403 748 467 814 531 814 c 0
 592 814 632 786 632 719 c 0
 632 672 593 635 539 635 c 0
 480 635 462 690 462 724 c 0
 462 813 525 881 593 881 c 0
 666 881 723 830 723 715 c 0
 820 715 l 0
 820 655 l 0
 666 655 l 1
 672 723 665 821 591 821 c 0
 527 821 513 753 513 727 c 0
 513 684 572 686 572 727 c 0
 572 737 563 753 539 753 c 0
 504 753 463 710 463 633 c 1
 403 633 l 0
459 0 m 0
 459 123 l 1x9e
 499 123 502 157 502 179 c 2
 502 434 l 0
 502 457 500 483 459 483 c 1
 459 605 l 1
 547 605 624 564 624 434 c 0
 624 197 l 0
 624 51 540 0 459 0 c 0
243 122 m 0x3e
 243 434 l 0
 242 571 324 605 405 605 c 1
 405 483 l 17
 371 483 365 459 365 434 c 2
 365 122 l 1
 243 122 l 0x3e
39 107 m 1x5e
 39 595 l 1
 161 595 l 1
 161 107 l 1
 39 107 l 1x5e
39 0 m 1x9e
 39 123 l 1x5e
 405 123 l 1
 405 0 l 1x9e
 39 0 l 1x9e
EndSplineSet
EndChar

StartChar: tml_Year
Encoding: 68 3061 37
Width: 1689
VWidth: 0
Flags: HW
LayerCount: 3
Fore
SplineSet
824 650 m 2
 824 773 l 17
 1432 773 l 2
 1628 773 1599 569 1650 517 c 1
 1524 517 l 1
 1485 572 1516 650 1432 650 c 2
 824 650 l 2
39 9 m 0
 39 -130 124 -198 233 -198 c 0
 771 -198 l 1
 771 -76 l 17
 249 -76 l 0
 185 -76 162 -56 162 8 c 0
 162 558 l 0
 162 594 165 650 239 650 c 1
 771 650 l 1
 771 773 l 1
 238 773 l 1
 153 773 39 725 39 562 c 0
 39 9 l 0
824 -76 m 13
 824 -198 l 5
 1370 -198 l 4
 1496 -198 1557 -103 1557 -36 c 4
 1557 159 l 6
 1557 267 1455 304 1393 310 c 5
 1393 183 l 5xe470
 1415 183 1435 175 1435 125 c 4
 1435 8 l 4
 1435 -35 1438 -76 1369 -76 c 4
 824 -76 l 13
1216 0 m 1xc0
 1338 0 l 1
 1338 593 l 1
 1216 593 l 1
 1216 0 l 1xc0
1164 473 m 1
 1422 473 l 1
 1422 595 l 1
 1164 595 l 1
 1164 473 l 1
932 473 m 1
 932 595 l 1
 1111 595 l 1
 1111 473 l 1
 932 473 l 1
442 0 m 1
 442 122 l 1
 474 123 490 142 490 180 c 0
 490 218 473 237 442 237 c 1
 442 359 l 0
 538 359 611 276 611 224 c 0
 611 152 l 0
 612 89 551 0 442 0 c 1
216 151 m 0
 216 220 l 0
 215 324 338 359 388 359 c 1
 388 237 l 0
 359 237 340 218 340 181 c 0
 340 147 355 122 388 122 c 1
 388 0 l 0
 286 0 216 91 216 151 c 0
216 226 m 1
 216 305 l 1
 216 433 267 605 477 605 c 1
 477 483 l 1
 413 483 354 439 352 354 c 0
 216 226 l 1
528 483 m 1
 605 483 662 423 663 354 c 1
 663 146 l 0
 663 127 638 124 631 123 c 1
 631 0 l 1
 877 0 l 1
 877 123 l 1
 784 123 l 1
 784 355 l 1
 783 466 697 605 528 605 c 1
 528 483 l 1
932 0 m 1
 932 592 l 1
 1054 592 l 1
 1054 0 l 1
 932 0 l 1
EndSplineSet
EndChar

StartChar: tml_Debit
Encoding: 69 3062 38
Width: 706
VWidth: 0
Flags: HW
LayerCount: 3
Fore
SplineSet
255 -164 m 17
 306 -164 301 -126 301 -81 c 2
 301 21 l 1
 301 239 l 9
 423 239 l 258
 423 18 l 2xf6
 423 -81 l 2
 423 -159 419 -258 255 -258 c 1
 255 -164 l 17
39 -126 m 0
 39 -57 102 -28 190 -28 c 0
 545 -28 l 1
 545 381 l 0
 667 381 l 0
 667 -121 l 1
 190 -121 l 2
 150 -121 151 -164 189 -164 c 2
 202 -164 l 9
 202 -258 l 1
 189 -258 l 2
 156 -258 40 -254 39 -159 c 0
 39 -126 l 0
48 146 m 258
 48 595 l 257
 170 595 l 257
 170 146 l 258
 170 132 176 119 202 119 c 257
 202 0 l 257
 102 0 48 68 48 146 c 258
256 0 m 257
 256 119 l 257
 280 119 301 126 301 145 c 258
 301 487 l 257
 423 487 l 257
 423 145 l 258
 423 -10 351 0 256 0 c 257
EndSplineSet
EndChar

StartChar: tml_Credit
Encoding: 70 3063 39
Width: 1140
VWidth: 0
Flags: HW
LayerCount: 3
Fore
SplineSet
584 132 m 1
 584 199 l 1
 692 199 l 1
 692 132 l 1
 584 132 l 1
788 0 m 1
 788 68 l 1
 806 68 814 79 814 100 c 0
 814 121 805 132 788 132 c 1
 788 200 l 0
 841 200 881 153 881 124 c 0
 881 85 l 0
 881 50 848 0 788 0 c 1
662 84 m 0
 662 122 l 0
 662 180 729 200 757 200 c 1
 757 132 l 0
 741 132 731 120 731 100 c 0
 731 81 739 68 757 68 c 1
 757 0 l 0
 701 0 662 51 662 84 c 0
662 125 m 1
 662 169 l 1
 662 240 690 336 806 336 c 1
 806 268 l 1
 770 268 738 244 737 197 c 0
 662 125 l 1
835 268 m 1
 878 268 909 235 910 197 c 1
 910 81 l 0
 910 71 896 70 892 69 c 1
 892 1 l 1
 1004 1 l 1
 1004 69 l 1
 977 69 l 1
 977 197 l 1
 976 259 929 336 835 336 c 1
 835 268 l 1
1034 1 m 1
 1034 330 l 1
 1102 330 l 1
 1102 1 l 1
 1034 1 l 1
265 1 m 1xc180
 265 123 l 0
 299 123 318 146 317 182 c 0
 316 216 305 238 265 238 c 1
 265 360 l 0
 364 360 439 281 439 220 c 0
 439 148 l 0
 439 86 364 1 265 1 c 1xc180
39 149 m 0
 39 221 l 0xc380
 38 325 160 360 210 360 c 1xc980
 210 238 l 0xc980
 181 238 163 218 163 182 c 0xc380
 163 145 180 123 210 123 c 1
 210 1 l 0xc980
 108 1 39 96 39 149 c 0
359 472 m 1
 359 595 l 1
 707 595 l 1xe180
 707 472 l 1
 359 472 l 1
484 0 m 1
 484 577 l 1xd180
 606 577 l 1
 606 0 l 1
 484 0 l 1
265 1 m 1
 265 123 l 0
 299 123 318 146 317 182 c 0
 316 216 305 238 265 238 c 1
 265 360 l 0
 364 360 439 281 439 220 c 0
 439 148 l 0
 439 86 364 1 265 1 c 1
39 228 m 1xe380
 39 281 l 2
 39 396 101 595 304 595 c 1xe980
 304 472 l 1
 217 472 177 406 170 329 c 0xe580
 165 272 45 258 39 228 c 1xe380
39 149 m 0
 39 221 l 0xc380
 38 325 160 360 210 360 c 1xc980
 210 238 l 0xc980
 181 238 163 218 163 182 c 0xc380
 163 145 180 123 210 123 c 1
 210 1 l 0xc980
 108 1 39 96 39 149 c 0
EndSplineSet
EndChar

StartChar: tml_Above
Encoding: 71 3064 40
Width: 1561
VWidth: 0
Flags: HW
LayerCount: 3
Fore
SplineSet
208 40 m 1
 208 134 l 0
 288 134 346 59 346 7 c 0
 346 -15 l 0
 346 -82 292 -148 208 -148 c 1xc180
 208 -55 l 0
 228 -55 253 -43 253 -6 c 0
 253 23 232 40 208 40 c 1
39 7 m 0xc380
 39 69 104 134 176 134 c 1xc980
 176 40 l 0xc980
 159 40 133 29 133 -6 c 0xc380
 133 -39 158 -55 176 -55 c 1
 176 -148 l 0xc980
 106 -148 39 -85 39 -13 c 0
 39 7 l 0xc380
39 -5 m 0
 39 142 l 0
 39 311 178 359 300 359 c 0
 514 359 l 1xe980
 514 267 l 1
 300 267 l 0
 203 267 133 239 133 141 c 0
 133 -6 l 0xe580
 39 -5 l 0
569 0 m 1xe780
 569 122 l 1
 601 123 617 142 617 180 c 0
 617 218 600 237 569 237 c 1
 569 359 l 0
 665 359 738 276 738 224 c 0
 738 152 l 0
 739 89 678 0 569 0 c 1xe780
343 151 m 0
 343 220 l 0xef80
 342 324 465 359 515 359 c 1xf780
 515 237 l 0xf780
 486 237 467 218 467 181 c 0xef80
 467 147 482 122 515 122 c 1
 515 0 l 0xf780
 413 0 343 91 343 151 c 0
343 226 m 1xef80
 343 305 l 1
 343 433 394 605 604 605 c 1
 604 483 l 1
 540 483 481 439 479 354 c 0
 343 226 l 1xef80
654 483 m 1
 731 483 788 424 789 354 c 1
 789 146 l 0
 789 127 764 124 757 123 c 1
 757 0 l 1
 1152 0 l 1
 1152 123 l 1
 910 123 l 1
 910 355 l 1
 909 466 823 605 654 605 c 1
 654 483 l 1
1206 485 m 1
 1245 485 1265 486 1265 413 c 2
 1265 158 l 1
 1387 158 l 1
 1387 413 l 2
 1387 561 1309 607 1206 607 c 1
 1206 485 l 1
1265 123 m 1
 1265 -178 l 1
 1387 -178 l 1
 1387 123 l 1
 1265 123 l 1
1206 158 m 1
 1522 158 l 1
 1522 280 l 0
 1206 280 l 9
 1206 158 l 1
972 334 m 2
 972 191 1048 158 1152 158 c 1
 1152 279 l 17
 1108 279 1095 287 1095 340 c 0
 1095 424 l 0
 1095 463 1107 485 1152 485 c 1
 1152 607 l 1
 1048 607 972 570 972 433 c 0
 972 334 l 2
1423 0 m 1
 1522 0 l 1
 1522 280 l 1
 1423 280 l 1
 1423 0 l 1
1206 1 m 1
 1522 0 l 1
 1522 123 l 1
 1206 123 l 1
 1206 1 l 1
EndSplineSet
EndChar

StartChar: tml_Rupee
Encoding: 72 3065 41
Width: 938
VWidth: 0
Flags: HW
LayerCount: 3
Fore
SplineSet
386 631 m 0
 445 631 l 1
 445 708 486 753 521 753 c 0
 545 753 555 737 555 727 c 0
 555 686 495 684 495 727 c 0
 495 753 509 821 573 821 c 0
 647 821 654 723 648 655 c 1
 803 655 l 0
 803 715 l 0
 705 715 l 0
 705 830 648 881 575 881 c 0
 507 881 444 813 444 724 c 0
 444 690 462 635 521 635 c 0
 575 635 614 672 614 719 c 0
 614 786 575 814 514 814 c 0
 450 814 386 746 386 631 c 0
524 473 m 1
 794 473 l 1
 794 595 l 1
 524 595 l 1xd9
 524 473 l 1
524 -55 m 9
 524 -177 l 1
 713 -178 l 0
 839 -178 899 -82 899 -15 c 0
 899 221 l 2
 899 339 797 366 736 372 c 1
 736 251 l 1
 757 251 777 237 777 187 c 0
 777 38 l 0
 777 -5 781 -55 712 -55 c 0
 524 -55 l 9
39 30 m 0
 39 -109 124 -176 233 -176 c 0
 470 -177 l 1
 470 -55 l 17
 249 -55 l 0
 185 -55 162 -35 162 29 c 0
 162 529 l 0
 162 555 153 615 238 615 c 0
 451 615 l 0
 450 675 l 0xe9
 217 675 l 0
 111 675 39 660 39 534 c 0
 39 30 l 0
558 1 m 1
 681 1 l 1
 683 591 l 1
 558 591 l 1
 558 1 l 1
276 1 m 17xdb
 276 595 l 1xdd
 398 595 l 1
 398 1 l 1
 276 1 l 17xdb
278 473 m 1
 278 595 l 1
 471 595 l 1
 471 473 l 1
 278 473 l 1
EndSplineSet
EndChar

StartChar: tml_Number
Encoding: 73 3066 42
Width: 0
VWidth: 0
Flags: HW
LayerCount: 3
Fore
SplineSet
386 586 m 0
 445 586 l 1
 445 690 466 746 521 746 c 0
 545 746 555 730 555 720 c 0
 555 679 495 677 495 720 c 0
 495 746 509 814 573 814 c 0
 647 814 654 716 648 648 c 1
 803 648 l 0
 803 708 l 0
 705 708 l 0
 705 823 648 874 575 874 c 0
 507 874 444 806 444 717 c 0
 444 683 462 628 521 628 c 0
 575 628 614 665 614 712 c 0
 614 779 575 808 514 808 c 0
 433 808 386 733 386 586 c 0
EndSplineSet
Refer: 10 2984 N 1 0 0 1 0 0 2
EndChar

StartChar: tml_TtI
Encoding: 82 -1 46
Width: 782
VWidth: 0
Flags: W
LayerCount: 3
Fore
SplineSet
347 99 m 1
 159 253 206 606 441 606 c 1
 441 484 l 1
 308 473 333 235 500 111 c 1
 347 99 l 1
494 484 m 1
 494 606 l 1
 589 606 666 540 666 446 c 0
 666 -199 l 1
 543 -199 l 1
 542 430 l 0
 542 453 537 484 494 484 c 1
40 0 m 1
 40 122 l 1
 742 122 l 1
 742 0 l 1
 40 0 l 1
40 176 m 1
 40 596 l 1
 162 596 l 1
 162 176 l 1
 40 176 l 1
EndSplineSet
Colour: ff0000
EndChar

StartChar: tml_KU
Encoding: 121 -1 47
Width: 956
VWidth: 0
Flags: HW
LayerCount: 3
Fore
SplineSet
197 157 m 0
 197 218 l 0
 197 326 308 371 394 371 c 0
 497 371 596 371 699 371 c 9
 699 249 l 1
 396 249 l 2
 332 249 318 239 318 188 c 0
 318 127 338 122 427 122 c 1
 427 -1 l 1
 270 -1 197 68 197 157 c 0
480 -55 m 9
 480 -177 l 1
 730 -177 l 0
 856 -177 917 -81 917 -14 c 0
 917 219 l 2
 917 337 815 364 753 370 c 1
 753 248 l 1
 775 247 795 235 795 185 c 0
 795 38 l 0
 795 -5 798 -55 729 -55 c 0
 480 -55 l 9
39 30 m 0
 39 -109 124 -177 233 -177 c 0
 427 -177 l 1
 427 -55 l 17
 249 -55 l 0
 185 -55 162 -10 162 54 c 0
 162 284 l 0
 162 320 165 377 239 377 c 0
 238 499 l 0
 153 499 39 452 39 289 c 0
 39 30 l 0
480 -1 m 9
 480 122 l 1
 546 122 577 141 577 187 c 0
 577 591 l 1
 699 591 l 1
 699 191 l 2
 699 95 647 -1 480 -1 c 9
322 348 m 17
 322 589 l 1
 445 589 l 1
 444 348 l 1
 322 348 l 17
539 473 m 1
 539 595 l 1
 831 595 l 1
 831 473 l 1
 539 473 l 1
322 473 m 1
 322 595 l 1
 484 595 l 1
 484 473 l 1
 322 473 l 1
EndSplineSet
EndChar

StartChar: tml_CU
Encoding: 123 -1 48
Width: 796
VWidth: 0
Flags: HW
HStem: -1 123<172 270 323 399> 249 62<606 729> 348 23<165 287> 470 122<165 328 382 694>
VStem: 40 121<133 241> 165 163<470 592> 165 122<371 470> 420 122<142 588> 596 160<249 371> 606 122<0 311>
LayerCount: 3
Fore
SplineSet
606 0 m 1
 606 311 l 1xf940
 729 311 l 1
 729 0 l 1
 606 0 l 1
596 249 m 1
 596 371 l 1xf980
 756 371 l 1
 756 249 l 1
 596 249 l 1
40 157 m 0
 40 218 l 0
 40 326 150 371 236 371 c 0
 538 371 l 9
 538 249 l 1
 239 249 l 2
 175 249 161 239 161 188 c 0
 161 127 181 122 270 122 c 1
 270 -1 l 1
 112 -1 40 68 40 157 c 0
323 -1 m 9
 323 122 l 1
 389 122 420 141 420 187 c 0
 420 591 l 1
 542 591 l 1
 542 191 l 2
 542 95 490 -1 323 -1 c 9
165 348 m 17xfb
 165 589 l 1xfd
 288 589 l 1
 287 348 l 1
 165 348 l 17xfb
382 473 m 1
 382 595 l 1
 694 595 l 1
 694 473 l 1
 382 473 l 1
165 473 m 1
 165 595 l 1
 328 595 l 1
 328 473 l 1
 165 473 l 1
EndSplineSet
EndChar

StartChar: tml_NyU
Encoding: 124 -1 49
Width: 1034
VWidth: 0
Flags: W
HStem: -257 94<164.006 190.006 644.006 678.006> 1 122<181.006 211.006 181.006 211.006 266.006 299.006 266.006 299.006> 238 123<182.006 211.006 182.006 211.006 266.006 305.006 266.006 305.006> 472 105<485.006 607.006 485.006 607.006> 472 123<236.006 305.006 236.006 305.006 360.006 485.006 360.006 485.006 607.006 708.006 607.006 708.006>
VStem: 40.0061 124<145 217 145 217> 40.0061 131<310 405 310 405> 40.0061 171<116 123 116 123 238 360 238 360> 318.006 123<146 215 146 215> 485.006 123<0 577 0 577> 696.006 122<-150 -80 154 200>
LayerCount: 3
Fore
SplineSet
449.005859375 -163 m 9
 449.005859375 -257 l 1
 645.005859375 -257 l 0
 798.005859375 -257 818.005859375 -146 818.005859375 -80 c 2
 818.005859375 157 l 1xe0e0
 818.005859375 299 734.005859375 323 664.005859375 323 c 1
 664.005859375 201 l 0
 691.005859375 201 697.005859375 200 697.005859375 154 c 1
 696.005859375 -80 l 0
 696.005859375 -110 693.005859375 -163 644.005859375 -163 c 0
 449.005859375 -163 l 9
40.005859375 -125 m 0
 40.005859375 -158 l 0
 41.005859375 -253 157.005859375 -257 190.005859375 -257 c 2
 396.005859375 -257 l 1
 396.005859375 -163 l 17
 190.005859375 -163 l 2
 152.005859375 -163 151.005859375 -120 191.005859375 -120 c 2
 994.005859375 -120 l 1
 994.005859375 583 l 0
 872.005859375 583 l 0
 872.005859375 -27 l 1
 191.005859375 -27 l 2
 103.005859375 -27 40.005859375 -57 40.005859375 -125 c 0
EndSplineSet
Refer: 4 2958 N 1 0 0 1 1.00611 0 2
Refer: 4 2958 N 1 0 0 1 1.00611 0 2
EndChar

StartChar: tml_TtU
Encoding: 125 -1 50
Width: 714
VWidth: 0
Flags: HW
LayerCount: 3
Fore
SplineSet
40 6 m 0
 40 606 l 0
 40 769 154 816 239 816 c 1
 455 816 l 0
 589 816 670 749 670 610 c 0
 670 551 l 2
 547 551 l 1
 547 611 l 0
 547 675 503 694 439 694 c 0
 240 694 l 1
 166 694 163 638 163 602 c 0
 163 5 l 0
 163 -59 186 -78 250 -78 c 0
 332 -78 l 9
 332 -200 l 1
 234 -200 l 0
 125 -200 40 -133 40 6 c 0
386 -78 m 0
 467 -78 l 0
 512 -78 550 -51 550 1 c 0
 550 139 l 0
 550 168 539 182 510 182 c 0
 468 182 l 0
 468 304 l 1
 509 304 l 2
 616 304 674 227 674 139 c 2
 674 0 l 0
 674 -105 595 -200 470 -200 c 0
 386 -200 l 1
 386 -78 l 0
292 0 m 17
 292 592 l 1
 414 593 l 1
 414 0 l 1
 292 0 l 17
EndSplineSet
EndChar

StartChar: tml_NnU
Encoding: 126 -1 51
Width: 848
VWidth: 0
Flags: HW
HStem: -258 94<163 303 356 494> -121 93<163 688>
VStem: 512 122<-151 151 205 249> 688 122<-28 582>
LayerCount: 3
Fore
SplineSet
356 -164 m 17
 459 -164 l 0
 508 -164 511 -111 511 -81 c 0
 512 151 l 1
 634 151 l 1
 634 -81 l 0
 634 -147 613 -258 460 -258 c 0
 356 -258 l 1
 356 -164 l 17
39 -126 m 0
 39 -58 102 -28 190 -28 c 2
 688 -28 l 1
 688 582 l 0
 810 582 l 0
 810 -121 l 1
 190 -121 l 2
 150 -121 151 -164 189 -164 c 2
 303 -164 l 9
 303 -258 l 1
 189 -257 l 2
 156 -257 40 -254 39 -159 c 0
 39 -126 l 0
465 252 m 0
 507 252 512 251 512 205 c 10
 634 205 l 1
 634 352 556 374 465 374 c 1
 465 252 l 0
301 1 m 1
 426 1 l 1
 425 588 l 5
 303 588 l 5
 301 1 l 1
61 1 m 9
 183 1 l 1
 183 590 l 5
 61 590 l 5
 61 1 l 9
61 595 m 5
 62 473 l 5
 569 473 l 5
 569 595 l 5
 61 595 l 5
EndSplineSet
EndChar

StartChar: tml_TU
Encoding: 127 -1 52
Width: 944
VWidth: 0
Flags: W
HStem: -258 94<163 356 410 603> -121 277<150 172 621 743> -121 93<163 783> 2 123<175 275 329 413> 252 122<191 248 574 618> 351 23<174 245>
VStem: 49 121<130 155 210 245> 621 122<-151 156 210 251> 783 122<-28 582>
LayerCount: 3
Fore
SplineSet
410 -164 m 17xc380
 568 -164 l 0
 617 -164 620 -111 620 -81 c 0
 621 156 l 1
 743 156 l 1
 743 -81 l 0
 743 -147 722 -258 569 -258 c 0
 410 -258 l 1
 410 -164 l 17xc380
39 -126 m 0
 39 -58 102 -28 190 -28 c 2
 783 -28 l 1
 783 582 l 0
 905 582 l 0
 905 -121 l 1
 190 -121 l 2xa380
 150 -121 151 -164 189 -164 c 2
 356 -164 l 9
 356 -258 l 1
 189 -257 l 2
 156 -257 40 -254 39 -159 c 0
 39 -126 l 0
49 155 m 9
 172 155 l 17
 179 118 195 125 275 125 c 1
 275 2 l 1x9380
 108 2 49 62 49 155 c 9
49 210 m 9
 170 210 l 17
 170 250 191 252 248 252 c 2
 574 252 l 1
 616 252 621 256 621 210 c 10
 743 210 l 1
 743 346 659 374 574 374 c 1x8b80
 245 374 l 2
 160 374 49 329 49 221 c 0
 49 210 l 9
329 2 m 17x9380
 499 2 551 103 551 194 c 2
 551 591 l 1
 429 591 l 1
 429 190 l 0
 429 144 403 125 329 125 c 1
 329 2 l 17x9380
174 351 m 9x8780
 296 351 l 1
 297 589 l 1
 174 589 l 1
 174 351 l 9x8780
389 473 m 1
 683 473 l 1
 683 595 l 1
 389 595 l 1
 389 473 l 1
174 473 m 1
 335 473 l 1
 335 595 l 1
 174 595 l 1
 174 473 l 1
EndSplineSet
EndChar

StartChar: tml_NU
Encoding: 128 -1 53
Width: 1215
VWidth: 0
Flags: HW
HStem: -256 94<164 453 507 801> -119 93<164 995> 3 122<161 187 240 269 544 569 623 651> 489 123<266 329 336 336 390 522 689 749 803 819 874 926> 489 32<819 941>
VStem: 264 122<159 359> 424 122<160 491> 647 122<160 492> 803 139<489 601> 819 122<-150 521> 995 122<-26 584>
LayerCount: 3
Fore
SplineSet
989 388.7265625 m 5
 989 -79 l 5
 989 -145 968.653320312 -256 813 -256 c 4
 507 -256 l 5
 507 -162 l 5
 812 -162 l 4
 861 -162 864 -109 864 -79 c 5
 864 381.7265625 l 6
 864 472.076171875 839.392578125 472.229492188 813 472.7265625 c 5
 813 594.7265625 l 5
 878.942382812 594.7265625 989 588.420898438 989 388.7265625 c 5
40 -124 m 0
 40 -56 103 -26 191 -26 c 2
 1053 -26 l 1
 1053 584 l 0
 1175 584 l 0
 1175 -119 l 1
 191 -119 l 2
 151 -119 152 -162 190 -162 c 2
 453 -162 l 1
 453 -256 l 1
 190 -256 l 2
 157 -256 41 -252 40 -157 c 0
 40 -124 l 0
424 167 m 1
 424 298 l 2
 424 601 693.2734375 605 753 605 c 1
 753 483 l 1
 670.404296875 483 546 486 546 300 c 2
 546 168 l 0
 546 156 544 122 569 122 c 1
 569 0 l 0
 474 0 424 82 424 167 c 1
390 483 m 1
 390 605 l 1
 532 605 769 596 769 311 c 2
 769 167 l 0
 769 75 720 0 623 0 c 1
 623 122 l 0
 651 122 647 156 647 167 c 0
 647 300 l 2
 647 486 523 482 390 483 c 1
41 166 m 1
 41 81 92 -1 187 -1 c 0
 187 121 l 1
 162 121 163 155 163 167 c 0
 163 300 l 2
 163 486 256 483 336 483 c 1
 336 605 l 1
 267 605 41 606 41 300 c 2
 41 166 l 1
211 352 m 1
 208 386 239 441 296 446 c 1
 363 446 386 388 386 300 c 2
 386 166 l 0
 386 74 337 -1 240 -1 c 1
 240 121 l 0
 268 121 264 155 264 166 c 0
 264 300 l 2
 264 352 232 352 211 352 c 1
EndSplineSet
EndChar

StartChar: tml_NnnU
Encoding: 129 -1 54
Width: 1596
VWidth: 0
Flags: HW
HStem: -256 94<178 653 707 1186> -119 93<177 1380> 0 122<163 185 239 261 547 568 621 643 932 953 1007 1029> 470 52<1204 1326> 472 122<221 328 389 484 710 756 810 869 1104 1140 1193 1204 1258 1310>
VStem: 40 122<123 167 289 400> 263 122<125 335> 423 122<124 396> 646 122<125 394> 808 122<125 397> 1030 122<126 405> 1193 133<470 583> 1204 122<-150 521> 1380 122<-26 584>
LayerCount: 3
Fore
SplineSet
1369 389 m 1
 1369 -78.7265625 l 1
 1369 -144.7265625 1348.65332031 -255.7265625 1193 -255.7265625 c 0
 734 -255.7265625 l 1
 734 -161.7265625 l 1
 1192 -161.7265625 l 0
 1241 -161.7265625 1244 -108.7265625 1244 -78.7265625 c 1
 1244 382 l 2
 1244 472.349609375 1219.39257812 472.502929688 1193 473 c 1
 1193 595 l 1
 1258.94238281 595 1369 588.694335938 1369 389 c 1
54 -124 m 0
 54 -56 117 -26 205 -26 c 2
 1434 -26 l 1
 1434 584 l 0
 1556 584 l 0
 1556 -119 l 1
 205 -119 l 2
 165 -119 166 -162 204 -162 c 2
 679 -162 l 1
 679 -256 l 1
 204 -256 l 2
 171 -256 55 -252 54 -157 c 0
 54 -124 l 0
808 168 m 1
 808 288 l 2
 808 591 1076 595 1140 595 c 1
 1140 473 l 1
 1052 473 930 476 930 290 c 2
 930 169 l 0
 930 157 928 123 953 123 c 1
 953 1 l 0
 858 1 808 83 808 168 c 1
810 473 m 1
 810 595 l 1
 942 595 1153 586 1153 301 c 2
 1153 168 l 0
 1153 76 1104 1 1007 1 c 1
 1007 123 l 0
 1035 123 1030 157 1030 168 c 0
 1030 290 l 2
 1030 476 933 473 810 473 c 1
423 167 m 1
 423 287 l 2
 423 590 691 595 756 595 c 1
 756 472 l 1
 667 472 545 475 545 289 c 2
 545 168 l 0
 545 156 543 122 568 122 c 1
 568 0 l 0
 473 0 423 82 423 167 c 1
389 472 m 1
 389 595 l 1
 531 595 768 585 768 300 c 2
 768 167 l 0
 768 75 718 0 621 0 c 1
 621 122 l 0
 649 122 646 156 646 167 c 0
 646 289 l 2
 646 475 522 471 389 472 c 1
40 166 m 1
 40 81 90 -1 185 -1 c 0
 185 121 l 1
 160 121 162 155 162 167 c 0
 162 289 l 2
 162 475 255 472 335 472 c 1
 335 595 l 1
 266 595 40 595 40 289 c 2
 40 166 l 1
224 361 m 1
 309 434 l 1
 354.720634921 434 385 375.802721088 385 289 c 2
 385 166 l 0
 385 74 336 -1 239 -1 c 1
 239 121 l 0
 267 121 263 155 263 166 c 0
 263 289 l 2
 263 337.774193548 251.271012007 361 224 361 c 1
EndSplineSet
EndChar

StartChar: tml_MU
Encoding: 131 -1 55
Width: 915
VWidth: 0
Flags: HW
HStem: -151 122<180 249 394 493> 0 123<411 493 615 655 709 747> 107 17<289 411> 122 1<493 615> 483 122<621 655 709 745> 634 122<184 238>
VStem: 39 123<-11 55 541 614> 289 122<123 595> 493 122<122 480> 753 123<130 478>
LayerCount: 3
Fore
SplineSet
394 -56 m 0
 493 -56 l 0
 493 15 l 1
 615 15 l 1x8fc0
 615 -57 l 0
 615 -126 575 -178 494 -178 c 0
 394 -178 l 1
 394 -56 l 0
39 28 m 0
 39 -111 124 -178 233 -178 c 0
 340 -178 l 1
 340 -56 l 17
 249 -56 l 0
 185 -56 161 -37 161 27 c 0
 161 541 l 0
 161 577 164 634 238 634 c 0
 238 756 l 0
 153 756 39 709 39 546 c 0
 39 28 l 0
EndSplineSet
Refer: 19 2990 N 1 0 0 1 250 0 2
EndChar

StartChar: tml_RU
Encoding: 133 -1 56
Width: 956
VWidth: 0
Flags: HW
HStem: -150 122<180 249 729 780> 1 21G<294 416> 379 122<184 238> 473 122<296 488>
VStem: 39 123<-8 57 287 360> 294 194<473 595> 294 122<1 473> 795 122<-14 65 187 242>
LayerCount: 3
Fore
SplineSet
542 473 m 1
 812 473 l 1
 812 595 l 1
 542 595 l 1xd9
 542 473 l 1
542 -56 m 9
 542 -178 l 1
 730 -179 l 0
 856 -179 917 -83 917 -16 c 0
 917 221 l 2
 917 339 815 366 754 372 c 1
 754 251 l 1
 775 251 795 237 795 187 c 0
 795 37 l 0
 795 -6 798 -56 729 -56 c 0
 542 -56 l 9
39 29 m 0
 39 -110 124 -177 233 -177 c 0
 487 -178 l 1
 487 -56 l 17
 249 -56 l 0
 185 -56 162 -36 162 28 c 0
 162 287 l 0
 162 323 165 379 239 379 c 0
 238 501 l 0xe9
 153 501 39 455 39 292 c 0
 39 29 l 0
575 1 m 1
 698 1 l 1
 700 591 l 1
 575 591 l 1
 575 1 l 1
294 1 m 17xdb
 294 595 l 1xdd
 416 595 l 1
 416 1 l 1
 294 1 l 17xdb
296 473 m 1
 296 595 l 1
 488 595 l 1
 488 473 l 1
 296 473 l 1
EndSplineSet
EndChar

StartChar: tml_RrU
Encoding: 134 -1 57
Width: 901
VWidth: 0
Flags: HW
HStem: -257 94<138 311 364 546> -120 93<137 739> -1 21G<288 410> 494 117<164 193 247 285 408 458 512 561>
VStem: 37 129<-1 491> 288 122<0 492> 564 122<-150 490> 739 122<-27 583>
LayerCount: 3
Fore
SplineSet
384 -163 m 9
 384 -257 l 1
 513 -257 l 0
 666 -257 687 -146 687 -80 c 2
 687 18 l 2xf6
 687 487 l 258
 687 542 635 606 522 606 c 257
 522 484 l 257
 544 484 564 481 564 460 c 258
 564 21 l 1
 564 -80 l 0
 564 -110 561 -163 512 -163 c 0
 384 -163 l 9
65 0 m 257
 65 479 l 0xee
 65 529 106 606 218 606 c 257
 218 483 l 257
 193 483 187 471 187 458 c 258
 189 1 l 257
 65 0 l 257
272 483 m 257
 272 606 l 257
 318 606 347 597 371 576 c 257
 399 599 432 606 471 606 c 257
 471 484 l 257
 453 484 431 481 431 459 c 258
 434 2 l 257
 312 1 l 257
 309 458 l 258
 309 472 298 483 272 483 c 257
564 21 m 1025
687 18 m 1025
40 -125 m 0
 40 -158 l 0
 41 -253 157 -257 190 -257 c 2
 330 -257 l 1
 330 -163 l 17
 190 -163 l 2
 152 -163 151 -120 191 -120 c 2
 861 -120 l 1
 861 583 l 0
 739 583 l 0
 739 -27 l 1
 548 -27 382 -27 191 -27 c 0
 103 -27 40 -57 40 -125 c 0
EndSplineSet
EndChar

StartChar: tml_LU
Encoding: 135 -1 58
Width: 1080
VWidth: 0
Flags: W
HStem: -257 94<163 189 690 725> 0 122<185 222 276 315 611 646 700 739> 237 123<184 222 276 315> 485 121<247 309 363 428>
VStem: 51 124<130 225 226 228> 51 131<306 416> 51 171<115 122 237 359> 323 123<127 231> 483 122<127 165 353 425> 743 122<-150 -80 130 166 422 465>
LayerCount: 3
Fore
SplineSet
461 -163 m 9
 461 -257 l 1
 691 -257 l 0
 844 -257 865 -146 865 -80 c 2
 865 231 l 1
 743 231 l 1xf1c0
 743 -80 l 0
 743 -110 739 -163 690 -163 c 0
 461 -163 l 9
39 -125 m 0
 39 -158 l 0
 40 -253 156 -257 189 -257 c 2
 407 -257 l 1
 407 -163 l 17
 189 -163 l 2
 151 -163 150 -120 190 -120 c 2
 1041 -120 l 1
 1041 583 l 0
 919 583 l 0
 919 -27 l 1
 190 -27 l 2
 102 -27 39 -57 39 -125 c 0
EndSplineSet
Refer: 15 2994 N 1 0 0 1 10 0 2
EndChar

StartChar: tml_LlU
Encoding: 136 -1 59
Width: 1350
VWidth: 0
Flags: HW
LayerCount: 3
Fore
SplineSet
708 -56 m 9
 708 -178 l 1
 1123 -178 l 0
 1249 -178 1310 -83 1310 -16 c 0
 1310 221 l 2
 1310 329 1208 366 1146 372 c 1
 1146 245 l 1xe470
 1168 245 1188 237 1188 187 c 0
 1188 37 l 0
 1188 -6 1191 -56 1122 -56 c 0
 708 -56 l 9
40 29 m 0
 40 -110 125 -178 234 -178 c 0
 654 -178 l 1
 654 -56 l 17
 250 -56 l 0
 186 -56 163 -36 163 28 c 0
 163 287 l 0
 163 323 166 379 240 379 c 0
 239 501 l 0xf470
 154 501 40 455 40 292 c 0
 40 29 l 0
EndSplineSet
Refer: 14 2995 N 1 0 0 1 228 -3 2
EndChar

StartChar: tml_LllU
Encoding: 137 -1 60
Width: 892
VWidth: 0
Flags: HW
HStem: -258 93<207 262 431 653> -146 179<470 592> 0 123<389 471 593 633 687 724> 107 17<267 389> 122 1<471 593> 483 122<599 633 687 723>
VStem: 52 123<-133 -52 529 612> 267 122<123 595> 470 122<-146 -120 -27 32> 471 122<122 480> 587 5<-120 -27> 653 93<-165 -120> 730 123<130 478>
LayerCount: 3
Fore
SplineSet
49 532 m 2
 52 -52 l 0
 52 -191 137 -258 246 -258 c 0
 377 -258 l 1
 377 -165 l 17
 262 -165 l 0
 198 -165 175 -117 175 -53 c 0
 176 529 l 2
 176 595 181 619 219 619 c 1
 286 619 l 0
 286 740 l 1x87
 208 740 l 0
 75 740 48 623 49 532 c 2
470 32 m 1xc780
 592 32 l 1
 592 -146 l 1
 470 -146 l 1
 470 32 l 1xc780
431 -165 m 0
 653 -165 l 0
 653 -120 l 0
 587 -120 l 0
 587 -27 l 1
 663 -27 l 2
 727 -27 746 -57 746 -107 c 2x8730
 746 -174 l 0
 746 -226 720 -258 657 -258 c 0
 431 -258 l 1
 431 -165 l 0
EndSplineSet
Refer: 19 2990 N 1 0 0 1 228 0 2
EndChar

StartChar: tml_KUu
Encoding: 139 -1 61
Width: 1154
VWidth: 0
Flags: HW
HStem: -1 123<172 270 323 399> 21 120<558 595 750 1114> 249 122<175 239 287 538 596 626> 348 23<165 287> 470 122<165 328 382 694>
VStem: 40 121<133 241> 165 163<470 592> 165 122<371 470> 420 122<142 588> 627 123<143 251>
LayerCount: 3
Fore
SplineSet
558 21 m 1
 558 142 l 1x4cc0
 1114 142 l 1
 1114 21 l 1
 558 21 l 1
558 20 m 1
 558 142 l 1
 578 142 l 0
 624 142 627 150 627 188 c 0
 627 230 l 2
 627 251 631 250 596 251 c 0
 596 373 l 1
 666 373 750 342 750 249 c 0x6cc0
 750 131 l 0
 750 63 673 20 595 20 c 0
 581 20 640 20 558 20 c 1
40 157 m 0
 40 218 l 0
 40 326 150 371 236 371 c 0
 538 371 l 9
 538 249 l 1
 239 249 l 2
 175 249 161 239 161 188 c 0
 161 127 181 122 270 122 c 1
 270 -1 l 1xacc0
 112 -1 40 68 40 157 c 0
323 -1 m 9
 323 122 l 1
 389 122 420 141 420 187 c 0
 420 591 l 1
 542 591 l 1
 542 191 l 2
 542 95 490 -1 323 -1 c 9
165 348 m 17x1dc0
 165 589 l 1x1ec0
 288 589 l 1
 287 348 l 1
 165 348 l 17x1dc0
382 473 m 1
 382 595 l 1
 694 595 l 1
 694 473 l 1
 382 473 l 1
165 473 m 1
 165 595 l 1
 328 595 l 1
 328 473 l 1
 165 473 l 1
EndSplineSet
EndChar

StartChar: tml_NgUu
Encoding: 140 -1 62
Width: 1040
VWidth: 0
Flags: HW
HStem: -258 93<131 164 546 911> -106 93<130 197 845 911> 0 122<337 518 673 728>
VStem: 40 88<-163 -111> 200 88<-142 -111> 550 123<123 231> 726 122<-153 -112 -20 0 122 595> 845 3<-112 -20> 911 89<-165 -112>
LayerCount: 3
Fore
SplineSet
40 -128 m 0
 40 -151 l 0
 40 -235 119 -258 164 -258 c 0
 492 -258 l 1
 492 -165 l 1xfc80
 162 -165 l 0
 144 -165 128 -158 128 -137 c 0
 128 -117 144 -106 166 -106 c 1
 188 -107 200 -120 200 -142 c 0
 288 -142 l 0
 288 -134 l 0
 288 -61 241 -14 166 -14 c 1
 95 -14 40 -54 40 -128 c 0
546 -165 m 0
 911 -165 l 0
 911 -112 l 0
 845 -112 l 0
 845 -20 l 1xfd80
 917 -20 l 2
 981 -20 1000 -50 1000 -100 c 2
 1000 -174 l 0
 1000 -226 974 -258 911 -258 c 0
 546 -258 l 1
 546 -165 l 0
726 -153 m 1
 726 595 l 1xfe80
 848 595 l 1
 848 -153 l 1
 726 -153 l 1
380 0 m 1
 380 122 l 1
 728 122 l 1
 728 0 l 1
 380 0 l 1
337 0 m 1
 337 122 l 1
 495 122 l 0
 553 122 550 126 550 145 c 0
 550 211 l 2
 550 232 554 230 519 231 c 0
 519 354 l 1
 589 354 673 322 673 229 c 0
 673 111 l 0
 673 43 612 0 518 0 c 0
 337 0 l 1
343 176 m 1
 465 176 l 1
 465 589 l 1
 343 589 l 1
 343 176 l 1
101 0 m 9
 223 0 l 1
 223 591 l 1
 101 591 l 1
 101 0 l 9
101 595 m 1
 102 473 l 1
 573 473 l 1
 573 595 l 1
 101 595 l 1
EndSplineSet
EndChar

StartChar: tml_CUu
Encoding: 141 -1 63
Width: 1149
VWidth: 0
Flags: HW
HStem: -198 122<180 249 923 973> -1 123<337 435 488 564> 249 62<771 894> 348 23<330 452> 360 122<184 238> 470 122<330 493 547 859>
VStem: 39 123<-56 9 268 341> 205 121<133 241> 330 163<470 592> 330 122<371 470> 585 122<142 588> 771 122<0 311> 988 122<-62 -15 47 91>
LayerCount: 3
Fore
SplineSet
604 -56 m 13
 604 -178 l 5
 924 -179 l 4
 1050 -179 1110 -82 1110 -15 c 4
 1110 65 l 2
 1110 183 1008 209 947 215 c 1
 947 94 l 1xe338
 968 94 988 97 988 47 c 0
 988 6 l 4
 988 -42 959 -56 923 -56 c 4
 604 -56 l 13
39 29 m 4
 39 -110 124 -177 233 -177 c 4
 549 -178 l 5
 549 -56 l 21
 249 -56 l 4
 185 -56 162 -36 162 28 c 4
 162 268 l 0
 162 304 165 360 239 360 c 0
 238 482 l 0xeb38
 153 482 39 435 39 272 c 0
 39 29 l 4
771 0 m 1
 771 311 l 1
 894 311 l 1
 894 0 l 1
 771 0 l 1
703 249 m 1
 703 371 l 1xf338
 954 371 l 1
 954 249 l 1
 703 249 l 1
205 157 m 0
 205 218 l 0
 205 326 315 371 401 371 c 0
 703 371 l 9
 703 249 l 1
 404 249 l 2
 340 249 326 239 326 188 c 0
 326 127 346 122 435 122 c 1
 435 -1 l 1
 277 -1 205 68 205 157 c 0
488 -1 m 9
 488 122 l 1
 554 122 585 141 585 187 c 0
 585 591 l 1
 707 591 l 1
 707 191 l 2
 707 95 655 -1 488 -1 c 9
330 348 m 17xf378
 330 589 l 1xf3b8
 453 589 l 1
 452 348 l 1
 330 348 l 17xf378
547 473 m 1
 547 595 l 1xe738
 859 595 l 1
 859 473 l 1
 547 473 l 1
330 473 m 1
 330 595 l 1xe7b8
 493 595 l 1
 493 473 l 1
 330 473 l 1
EndSplineSet
EndChar

StartChar: tml_NyUu
Encoding: 142 -1 64
Width: 1400
VWidth: 0
Flags: W
HStem: -257 94<163 189 643 677> 1 122<180 210 265 298> 238 123<181 210 265 304> 472 105<484 606> 472 123<235 304 359 484 606 707>
VStem: 39 124<145 217> 39 131<310 405> 39 171<116 123 238 360> 317 123<146 215> 484 123<0 577> 695 122<-150 -80 154 200>
LayerCount: 3
Fore
SplineSet
1155 -0 m 1xe0e0
 1277 -0 l 1
 1277 593 l 1
 1155 593 l 1
 1155 -0 l 1xe0e0
1104 473 m 1
 1361 473 l 1
 1361 595 l 1
 1104 595 l 1
 1104 473 l 1
871 473 m 1
 1050 473 l 1
 1050 595 l 1
 871 595 l 1
 871 473 l 1
448 -163 m 9
 448 -257 l 1
 644 -257 l 0
 797 -257 817 -146 817 -80 c 2
 817 157 l 1
 817 299 733 323 663 323 c 1
 663 201 l 0
 690 201 696 200 696 154 c 1
 695 -80 l 0
 695 -110 692 -163 643 -163 c 0
 448 -163 l 9
39 -125 m 0
 39 -158 l 0
 40 -253 156 -257 189 -257 c 2
 395 -257 l 1
 395 -163 l 17
 189 -163 l 2
 151 -163 150 -120 190 -120 c 2
 993 -120 l 1
 993 583 l 0
 871 583 l 0
 871 -27 l 1
 190 -27 l 2
 102 -27 39 -57 39 -125 c 0
EndSplineSet
Refer: 4 2958 N 1 0 0 1 0 0 2
EndChar

StartChar: tml_TtUu
Encoding: 143 -1 65
Width: 1312
VWidth: 0
Flags: W
HStem: -258 94<163 356 410 603> -121 277<150 172 621 743> -121 93<163 783> 2 123<175 275 329 413> 252 122<191 248 574 618> 351 23<174 245> 473 109<783 905> 473 122<905 962>
VStem: 49 121<130 155 210 245> 621 122<-151 156 210 251> 783 179<473 595> 783 122<-28 473>
LayerCount: 3
Fore
SplineSet
1067 -0 m 1x80c0
 1189 -0 l 1
 1189 593 l 1
 1067 593 l 1
 1067 -0 l 1x80c0
1016 473 m 1
 1273 473 l 1x82c0
 1273 595 l 1
 1016 595 l 1
 1016 473 l 1
783 473 m 1
 783 595 l 1x82e0
 962 595 l 1
 962 473 l 1
 783 473 l 1
410 -164 m 17
 568 -164 l 0
 617 -164 620 -111 620 -81 c 0
 621 156 l 1
 743 156 l 1xc0c0
 743 -81 l 0
 743 -147 722 -258 569 -258 c 0
 410 -258 l 1
 410 -164 l 17
39 -126 m 0
 39 -58 102 -28 190 -28 c 2
 783 -28 l 1xa2d0
 783 582 l 0xa2e0
 905 582 l 0
 905 -121 l 1
 190 -121 l 2xa2d0
 150 -121 151 -164 189 -164 c 2
 356 -164 l 9
 356 -258 l 1
 189 -257 l 2
 156 -257 40 -254 39 -159 c 0
 39 -126 l 0
49 155 m 9
 172 155 l 17
 179 118 195 125 275 125 c 1
 275 2 l 1x90c0
 108 2 49 62 49 155 c 9
49 210 m 9
 170 210 l 17
 170 250 191 252 248 252 c 2
 574 252 l 1
 616 252 621 256 621 210 c 10
 743 210 l 1
 743 346 659 374 574 374 c 1x88c0
 245 374 l 2
 160 374 49 329 49 221 c 0
 49 210 l 9
329 2 m 17x90c0
 499 2 551 103 551 194 c 2
 551 591 l 1
 429 591 l 1
 429 190 l 0
 429 144 403 125 329 125 c 1
 329 2 l 17x90c0
174 351 m 9x84c0
 296 351 l 1
 297 589 l 1
 174 589 l 1
 174 351 l 9x84c0
389 473 m 1
 683 473 l 1
 683 595 l 1
 389 595 l 1x81c0
 389 473 l 1
174 473 m 1
 335 473 l 1
 335 595 l 1
 174 595 l 1
 174 473 l 1
EndSplineSet
EndChar

StartChar: tml_NnUu
Encoding: 144 -1 66
Width: 1216
VWidth: 0
Flags: HW
LayerCount: 3
Fore
SplineSet
972 0 m 1
 1094 0 l 1
 1094 593 l 1
 972 593 l 1
 972 0 l 1
920 473 m 1
 1178 473 l 1
 1178 595 l 1
 920 595 l 1
 920 473 l 1
688 473 m 1
 688 595 l 1
 866 595 l 1
 866 473 l 1
 688 473 l 1
356 -164 m 17
 459 -164 l 0
 508 -164 511 -111 511 -81 c 0
 512 151 l 1
 634 151 l 1
 634 -81 l 0
 634 -147 613 -258 460 -258 c 0
 356 -258 l 1
 356 -164 l 17
39 -126 m 0
 39 -58 102 -28 190 -28 c 2
 688 -28 l 1
 688 582 l 0
 810 582 l 0
 810 -121 l 1
 190 -121 l 2
 150 -121 151 -164 189 -164 c 2
 303 -164 l 9
 303 -258 l 1
 189 -257 l 2
 156 -257 40 -254 39 -159 c 0
 39 -126 l 0
465 252 m 0
 507 252 512 251 512 205 c 2
 512 205 l 9
 634 205 l 1
 634 205 l 0
 634 352 556 374 465 374 c 1
 465 252 l 0
301 0 m 1
 426 0 l 1
 425 589 l 1
 303 589 l 1
 301 0 l 1
61 0 m 9
 183 0 l 1
 183 591 l 1
 61 591 l 1
 61 0 l 9
61 595 m 1
 62 473 l 1
 569 473 l 1
 569 595 l 1
 61 595 l 1
EndSplineSet
EndChar

StartChar: tml_TUu
Encoding: 145 -1 67
Width: 792
VWidth: 0
Flags: HW
HStem: -200 122<180 331 385 524> 0 21G<291 413> 111 122<407 545> 495 122<566 629> 693 123<233 622>
VStem: 39 123<-59 615> 291 122<0 111 233 592> 407 6<111 233> 549 124<-53 109> 632 122<623 684>
LayerCount: 3
Fore
SplineSet
39 6 m 0
 39 492 l 0
 39 743 138 816 332 816 c 6
 477 816 l 6
 634 816 754 793 754 660 c 4
 754 650 l 4
 754 546 665 495 610 495 c 4
 582 495 l 4
 513 495 441 565 441 650 c 5
 563 650 l 4
 563 630 576 617 598 617 c 4
 621 617 632 631 632 649 c 4
 632 687 614 693 473 693 c 6
 333 693 l 6xfc40
 159 693 161 566 161 487 c 0
 161 5 l 0
 161 -59 185 -78 249 -78 c 0
 331 -78 l 9
 331 -200 l 1
 233 -200 l 0
 124 -200 39 -133 39 6 c 0
385 -78 m 0
 466 -78 l 0
 511 -78 549 -51 549 1 c 0
 549 68 l 0
 549 97 538 111 509 111 c 0
 407 111 l 0
 407 233 l 1
 508 233 l 2
 615 233 671 156 671 68 c 2xfd80
 671 0 l 0
 671 -105 594 -200 469 -200 c 0
 385 -200 l 1
 385 -78 l 0
291 0 m 17xfe
 291 592 l 1xfe
 413 593 l 1xfd
 413 0 l 1
 291 0 l 17xfe
EndSplineSet
EndChar

StartChar: tml_NUu
Encoding: 146 -1 68
Width: 1583
VWidth: 0
Flags: HW
HStem: -256 94<163 452 506 800> -119 93<163 994> 3 122<160 186 239 268 543 568 622 650> 473 122<1116 1173> 473 111<994 1116> 489 123<265 328 335 335 389 521 688 748 802 818 873 925> 489 32<818 940>
VStem: 263 122<159 359> 423 122<160 491> 646 122<160 492> 802 139<489 601> 818 122<-150 521> 994 179<473 595> 994 122<-26 473>
LayerCount: 3
Fore
SplineSet
1337 0 m 1xe1c0
 1459 0 l 1
 1459 593 l 1
 1337 593 l 1
 1337 0 l 1xe1c0
1286 473 m 1
 1543 473 l 1xe9c0
 1543 595 l 1
 1286 595 l 1xf1c0
 1286 473 l 1
1053 473 m 1xe9c8
 1053 595 l 1xf1c8
 1232 595 l 1
 1232 473 l 1xf1c8
 1053 473 l 1xe9c8
EndSplineSet
Refer: 53 -1 N 1 0 0 1 0 0 2
EndChar

StartChar: tml_NnnUu
Encoding: 147 -1 69
Width: 1964
VWidth: 0
Flags: HW
HStem: -256 94<177 652 706 1185> -119 93<176 1379> -0 122<162 184 238 260 546 567 620 642 931 952 1006 1028> 470 52<1203 1325> 473 122<220 327 388 483 709 755 809 868 1103 1139 1192 1203 1501 1558> 473 111<1379 1501>
VStem: 39 122<123 167 289 400> 262 122<125 335> 422 122<124 396> 645 122<125 394> 807 122<125 397> 1029 122<126 405> 1192 133<470 583> 1203 122<-150 521> 1379 179<473 595> 1379 122<-26 473>
LayerCount: 3
Fore
SplineSet
1718 0 m 5xe3f0
 1840 0 l 5
 1840 593 l 5
 1718 593 l 5
 1718 0 l 5xe3f0
1666 473 m 5
 1924 473 l 5xe7f0
 1924 595 l 5
 1666 595 l 5xebf0
 1666 473 l 5
1434 473 m 5xe7f2
 1434 595 l 5xebf2
 1613 595 l 5
 1613 473 l 5xebf2
 1434 473 l 5xe7f2
EndSplineSet
Refer: 54 -1 N 1 0 0 1 0 0 2
EndChar

StartChar: tml_PUu
Encoding: 148 -1 70
Width: 756
VWidth: 0
Flags: HW
HStem: -258 93<117 150 616 616> -106 93<116 184> 1 122<217 297> 107 17<95 217>
VStem: 26 88<-163 -111> 95 122<123 595> 95 202<1 123> 187 88<-142 -111> 550 4<-112 -20>
LayerCount: 3
Fore
SplineSet
26 -128 m 0
 26 -151 l 0
 26 -235 105 -258 150 -258 c 0
 297 -258 l 1
 297 -165 l 1xc980
 148 -165 l 0
 130 -165 114 -158 114 -137 c 0
 114 -117 130 -106 152 -106 c 1
 174 -107 187 -120 187 -142 c 0
 274 -142 l 0
 274 -134 l 0
 274 -61 227 -14 152 -14 c 1
 81 -14 26 -54 26 -128 c 0
353 -165 m 0
 353 -258 l 1
 616 -258 l 0
 679 -258 705 -226 705 -174 c 0
 705 -100 l 2
 705 -50 686 -20 622 -20 c 2
 550 -20 l 1
 550 -112 l 0
 616 -112 l 0
 616 -165 l 0
 353 -165 l 0
432 7 m 1
 432 -143 l 1
 554 -143 l 1
 554 7 l 1
 432 7 l 1
EndSplineSet
Refer: 6 2986 N 1 0 0 1 56 0 2
EndChar

StartChar: tml_MUu
Encoding: 149 -1 71
Width: 1016
VWidth: 0
Flags: HW
HStem: -151 122<181 250 495 595> 0 123<513 595 717 757 811 849> 107 17<391 513> 122 1<595 717> 442 122<173 234> 483 122<723 757 811 847>
VStem: 39 125<-11 54 353 436> 239 122<376 440> 391 122<123 595> 595 122<122 480> 854 123<130 478>
LayerCount: 3
Fore
SplineSet
39 27 m 0x8be0
 39 -111 125 -178 234 -178 c 0
 441 -178 l 1
 441 -56 l 17
 250 -56 l 0
 186 -56 164 -37 164 26 c 0
 164 353 l 2
 164 419 169 442 207 442 c 0
 225 442 239 431 239 408 c 0
 239 386 226 374 206 374 c 0
 206 252 l 1
 291 252 361 324 361 393 c 0
 361 421 l 0
 361 476 310 564 206 564 c 0
 196 564 l 0
 63 564 38 447 39 356 c 2
 39 27 l 0x8be0
495 -56 m 0
 595 -56 l 0
 595 15 l 1
 717 15 l 1
 717 -57 l 0
 717 -126 677 -178 596 -178 c 0
 495 -178 l 1
 495 -56 l 0
EndSplineSet
Refer: 19 2990 N 1 0 0 1 352 0 2
EndChar

StartChar: tml_YUu
Encoding: 150 -1 72
Width: 967
VWidth: 0
Flags: W
HStem: -258 93<130 163 489 840> -106 93<129 196 757 840> 0 119<243 275 329 390 522 556 609 643>
VStem: 39 88<-163 -111> 119 122<121 595> 199 88<-142 -111> 399 122<123 595> 609 156<0 119> 644 122<-143 -112 -20 168 120 595> 757 9<-112 -20> 840 89<-165 -112>
LayerCount: 3
Fore
SplineSet
39 -128 m 0
 39 -151 l 0
 39 -235 118 -258 163 -258 c 0
 436 -258 l 1
 436 -165 l 1xf620
 161 -165 l 0
 143 -165 127 -158 127 -137 c 0
 127 -117 143 -106 165 -106 c 1
 187 -107 199 -120 199 -142 c 0
 287 -142 l 0
 287 -134 l 0
 287 -61 240 -14 165 -14 c 1
 94 -14 39 -54 39 -128 c 0
489 -165 m 0
 840 -165 l 0
 840 -112 l 0
 757 -112 l 0
 757 -20 l 1xe260
 846 -20 l 2
 910 -20 929 -50 929 -100 c 2
 929 -174 l 0
 929 -226 903 -258 840 -258 c 0
 489 -258 l 1
 489 -165 l 0
644 -143 m 1
 644 168 l 1
 766 168 l 1
 766 -143 l 9xe2a0
 644 -143 l 1
EndSplineSet
Refer: 1 2991 N 1 0 0 1 80 0 2
EndChar

StartChar: tml_RUu
Encoding: 151 -1 73
Width: 1037
VWidth: 0
Flags: HW
HStem: -150 122<180 249 811 861> 1 21G<375 497> 321 122<171 232> 473 122<377 569>
VStem: 39 123<-8 57 220 317> 237 122<255 319> 375 194<473 595> 375 122<1 473> 876 122<-14 65 187 242>
LayerCount: 3
Fore
SplineSet
623 473 m 1
 893 473 l 1
 893 595 l 1
 623 595 l 1xfc80
 623 473 l 1
623 -56 m 9
 623 -178 l 1
 812 -178 l 0
 938 -178 998 -83 998 -16 c 0
 998 221 l 2
 998 339 896 366 835 372 c 1
 835 251 l 1
 856 251 876 237 876 187 c 0
 876 37 l 0
 876 -6 880 -56 811 -56 c 0
 623 -56 l 9
39 29 m 0
 39 -110 124 -178 233 -178 c 0
 568 -178 l 1
 568 -56 l 17
 249 -56 l 0
 185 -56 162 -36 162 28 c 0
 162 232 l 2
 162 298 167 321 205 321 c 0
 223 321 237 310 237 287 c 0
 237 265 224 253 204 253 c 0
 204 131 l 1
 289 131 359 202 359 271 c 0
 359 300 l 0
 359 355 308 443 204 443 c 0
 194 443 l 0
 61 443 39 311 39 220 c 2
 39 29 l 0
656 1 m 1
 779 1 l 1
 781 591 l 1
 656 591 l 1
 656 1 l 1
375 1 m 17xfd80
 375 595 l 1xfe80
 497 595 l 1
 497 1 l 1
 375 1 l 17xfd80
377 473 m 1
 377 595 l 1
 569 595 l 1
 569 473 l 1
 377 473 l 1
EndSplineSet
EndChar

StartChar: tml_RrUu
Encoding: 152 -1 74
Width: 1293
VWidth: 0
Flags: HW
HStem: -257 94<163 336 390 572> -120 93<163 765> -1 21G<313 436> 474 122<887 943> 474 109<765 887> 494 117<189 219 272 310 434 483 537 586>
VStem: 62 129<-1 491> 313 122<0 492> 590 122<-150 490> 765 179<474 596> 765 122<-27 474>
LayerCount: 3
Fore
SplineSet
1049 1 m 1xe380
 1171 1 l 1
 1171 594 l 1
 1049 594 l 1
 1049 1 l 1xe380
997 474 m 1
 1255 474 l 1xeb80
 1255 596 l 1
 997 596 l 1xf380
 997 474 l 1
765 474 m 1xebc0
 943 474 l 1xf3c0
 943 596 l 1
 765 596 l 1xf3c0
 765 474 l 1xebc0
EndSplineSet
Refer: 57 -1 N 1 0 0 1 26 0 2
EndChar

StartChar: tml_LUu
Encoding: 153 -1 75
Width: 1448
VWidth: 0
Flags: W
HStem: -257 94<163 189 690 725> 0 122<185 222 276 315 611 646 700 739> 237 123<184 222 276 315> 485 121<247 309 363 428>
VStem: 51 124<130 225 226 228> 51 131<306 416> 51 171<115 122 237 359> 323 123<127 231> 483 122<127 165 353 425> 743 122<-150 -80 130 166 422 465>
LayerCount: 3
Fore
SplineSet
1203 1 m 1xf1c0
 1325 1 l 1
 1325 594 l 1
 1203 594 l 1
 1203 1 l 1xf1c0
1151 474 m 1
 1409 474 l 1
 1409 596 l 1
 1151 596 l 1
 1151 474 l 1
919 474 m 1
 1098 474 l 1
 1098 596 l 1
 919 596 l 1
 919 474 l 1
461 -163 m 9
 461 -257 l 1
 691 -257 l 0
 844 -257 865 -146 865 -80 c 2
 865 231 l 1
 743 231 l 1
 743 -80 l 0
 743 -110 739 -163 690 -163 c 0
 461 -163 l 9
39 -125 m 0
 39 -158 l 0
 40 -253 156 -257 189 -257 c 2
 407 -257 l 1
 407 -163 l 17
 189 -163 l 2
 151 -163 150 -120 190 -120 c 2
 1041 -120 l 1
 1041 583 l 0
 919 583 l 0
 919 -27 l 1
 190 -27 l 2
 102 -27 39 -57 39 -125 c 0
EndSplineSet
Refer: 15 2994 N 1 0 0 1 10 0 2
EndChar

StartChar: tml_LlUu
Encoding: 154 -1 76
Width: 1461
VWidth: 0
Flags: HW
LayerCount: 3
Fore
SplineSet
40.0283203125 29 m 0xf638
 40.0283203125 -108 126.028320312 -176 235.028320312 -176 c 0
 766.028320312 -176 l 1
 766.028320312 -54 l 17
 251.028320312 -54 l 0
 187.028320312 -54 165.028320312 -34 165.028320312 28 c 0
 165.028320312 353 l 2
 165.028320312 419 170.028320312 442 208.028320312 442 c 0
 226.028320312 442 240.028320312 431 240.028320312 408 c 0
 240.028320312 386 227.028320312 374 207.028320312 374 c 0
 207.028320312 252 l 1
 292.028320312 252 362.028320312 324 362.028320312 393 c 0
 362.028320312 421 l 0
 362.028320312 476 311.028320312 564 207.028320312 564 c 0
 197.028320312 564 l 0
 64.0283203125 564 39.0283203125 447 40.0283203125 356 c 2
 40.0283203125 29 l 0xf638
819.028320312 -54 m 9
 819.028320312 -176 l 1
 1234.02832031 -176 l 0
 1360.02832031 -176 1421.02832031 -81 1421.02832031 -14 c 0
 1421.02832031 221 l 2
 1421.02832031 329 1319.02832031 366 1257.02832031 372 c 1
 1257.02832031 245 l 1
 1279.02832031 245 1299.02832031 237 1299.02832031 187 c 0
 1299.02832031 39 l 0
 1299.02832031 -4 1302.02832031 -54 1233.02832031 -54 c 0
 819.028320312 -54 l 9
EndSplineSet
Refer: 14 2995 N 1 0 0 1 339.028 0 2
EndChar

StartChar: tml_LllUu
Encoding: 155 -1 77
Width: 1003
VWidth: 0
Flags: HW
HStem: -258 93<195 250 542 765> -146 179<581 703> 2 123<500 582 704 744 798 836> 108 17<378 500> 124 1<582 704> 442 122<173 234> 485 122<710 744 798 834>
VStem: 39 125<-133 -52 353 436> 239 122<376 440> 378 122<125 597> 581 122<-146 -120 -27 32> 582 122<124 482> 698 5<-120 -27> 765 93<-165 -120> 842 123<132 480>
LayerCount: 3
Fore
SplineSet
39 -52 m 0x85c0
 39 -191 125 -258 234 -258 c 0
 488 -258 l 1
 488 -165 l 17
 250 -165 l 0
 186 -165 164 -117 164 -53 c 0
 164 353 l 2
 164 419 169 442 207 442 c 0
 225 442 239 431 239 408 c 0
 239 386 226 374 206 374 c 0
 206 252 l 1
 291 252 361 324 361 393 c 0
 361 421 l 0
 361 476 310 564 206 564 c 0
 196 564 l 0
 63 564 38 447 39 356 c 2
 39 -52 l 0x85c0
581 32 m 1xc1e0
 703 32 l 1
 703 -146 l 1
 581 -146 l 1
 581 32 l 1xc1e0
542 -165 m 0
 765 -165 l 0
 765 -120 l 0
 698 -120 l 0
 698 -27 l 1
 774 -27 l 2
 838 -27 857 -57 857 -107 c 2x81cc
 857 -174 l 0
 857 -226 832 -258 769 -258 c 0
 542 -258 l 1
 542 -165 l 0
EndSplineSet
Refer: 19 2990 N 1 0 0 1 339 2 2
EndChar

StartChar: tml_KSsa
Encoding: 157 -1 78
Width: 1818
VWidth: 0
Flags: HW
LayerCount: 3
Fore
SplineSet
825 0 m 1xe780
 825 122 l 1
 857 123 872 142 872 180 c 0
 872 218 856 237 825 237 c 1
 825 359 l 0
 921 359 994 276 994 224 c 0
 994 152 l 0
 995 89 934 0 825 0 c 1xe780
598 151 m 0
 598 220 l 0xef80
 597 324 720 359 770 359 c 1xf780
 770 237 l 0xf780
 741 237 723 218 723 181 c 0xef80
 723 147 737 122 770 122 c 1
 770 0 l 0xf780
 668 0 598 91 598 151 c 0
598 226 m 1xef80
 598 268 l 1
 598 340 649 534 859 534 c 1
 859 412 l 1
 795 412 765 378 764 357 c 0
 598 226 l 1xef80
909 412 m 1
 986 412 1044 361 1045 291 c 1
 1045 146 l 0
 1045 127 1019 124 1012 123 c 1
 1012 0 l 1
 1408 0 l 1
 1408 123 l 1
 1166 123 l 1
 1166 292 l 1
 1165 403 1078 534 909 534 c 1
 909 412 l 1
1461 485 m 1
 1500 485 1520 486 1520 413 c 2
 1520 158 l 1
 1642 158 l 1
 1642 413 l 2
 1642 561 1564 607 1461 607 c 1
 1461 485 l 1
1520 123 m 1
 1520 -178 l 1
 1642 -178 l 1
 1642 123 l 1
 1520 123 l 1
1461 158 m 1
 1778 158 l 1
 1778 280 l 0
 1461 280 l 9
 1461 158 l 1
1227 334 m 2
 1227 191 1304 158 1408 158 c 1
 1408 279 l 17
 1364 279 1350 287 1350 340 c 0
 1350 424 l 0
 1350 463 1363 485 1408 485 c 1
 1408 607 l 1
 1304 607 1227 570 1227 433 c 0
 1227 334 l 2
1678 0 m 1
 1778 0 l 1
 1778 280 l 1
 1678 280 l 1
 1678 0 l 1
1461 1 m 1
 1778 0 l 1
 1778 123 l 1
 1461 123 l 1
 1461 1 l 1
40 151.65625 m 0
 40 212.65625 l 0
 40 320.65625 150 365.65625 236 365.65625 c 0
 700 365.65625 l 9xc480
 700 243.65625 l 1
 239 243.65625 l 2
 175 243.65625 161 233.65625 161 182.65625 c 0
 161 121.65625 181 116.65625 270 116.65625 c 1
 270 -6.34375 l 1
 113 -5.34375 40 62.65625 40 151.65625 c 0
323 -6.34375 m 9
 323 116.65625 l 1
 389 116.65625 420 135.65625 420 181.65625 c 0
 420 663.65625 l 1
 542 663.65625 l 1x8c80
 542 185.65625 l 2
 542 89.65625 490 -6.34375 323 -6.34375 c 9
165 342.65625 m 17xa580
 165 661.65625 l 1xa680
 288 661.65625 l 1
 287 342.65625 l 1
 165 342.65625 l 17xa580
382 545.65625 m 1
 382 670.65625 l 1x9480
 689 670.65625 l 1
 689 545.65625 l 1
 382 545.65625 l 1
165 545.65625 m 1x8e80
 165 670.65625 l 1x9680
 328 670.65625 l 1
 328 545.65625 l 1x9680
 165 545.65625 l 1x8e80
EndSplineSet
EndChar

StartChar: tml_Shree
Encoding: 160 -1 79
Width: 1208
VWidth: 0
Flags: HW
LayerCount: 3
Fore
SplineSet
798 516.65625 m 1
 798 596 l 0
 724 755 795.393554688 943 998 943 c 0
 1226 943 1217.69042969 630 1019 630 c 0
 974 630 927 668 917 689 c 1
 988 772 l 0
 988 756 997 739 1022 739 c 0
 1045 739 1056 758 1056 779 c 0
 1056 794 1045 828 988 828 c 1
 916.676757812 827.5703125 847 753 922 594.7265625 c 0
 922 516.65625 l 1
 798 516.65625 l 1
859 605 m 257
 1001 605 1050 529 1051 474 c 258
 1051 71 l 2
 1051 -43 988 -152 858 -154 c 0
 220 -154 l 2
 177.41796875 -154 162 -181.724609375 162 -255 c 1
 40 -255 l 1
 40 -101.974609375 90.3935546875 -32 246 -32 c 0
 338 -32 742 -32 831 -32 c 0
 929 -32 929 40 929 71 c 2xe1f8
 929 447 l 258
 929 468 901 483 859 483 c 257
 822 483 794 468 794 446 c 258
 797 1 l 257
 674 0 l 257
 674 458 l 258
 674 472 661 482 635 482 c 257
 635 605 l 257
 681 605 711 596 735 575 c 257
 763 598 820 605 859 605 c 257
428 1 m 257
 552 1 l 257
 552 457 l 258
 552 470 556 482 581 482 c 257xe8f8
 581 605 l 257
 469 605 428 528 428 478 c 0
 428 1 l 257
79 107 m 1x60
 79 595 l 1
 201 595 l 1
 201 107 l 1x50
 79 107 l 1x60
337 1 m 1
 538 1 l 1x80
 538 123 l 1
 337 123 l 1
 337 1 l 1
79 1 m 1xa0
 79 123 l 1x60
 281 123 l 1
 281 1 l 1
 79 1 l 1xa0
EndSplineSet
EndChar

StartChar: tml_NnAa.alt
Encoding: 163 -1 80
Width: 1220
VWidth: 0
Flags: HW
LayerCount: 3
Fore
SplineSet
40 6 m 0
 40 -133 125 -200 234 -200 c 0
 632 -200 l 1
 632 -78 l 17
 250 -78 l 0
 186 -78 163 -58 163 6 c 0
 163 519 l 0
 163 555 166 609 240 609 c 1
 292 609 l 1
 328 732 l 1
 239 732 l 1
 154 732 40 682 40 519 c 0
 40 6 l 0
701 -78 m 9
 701 -200 l 1
 993 -200 l 0
 1119 -200 1180 -105 1180 -38 c 0
 1180 147 l 2
 1180 255 1078 292 1016 298 c 1
 1016 171 l 1xe470
 1038 171 1058 163 1058 113 c 0
 1058 6 l 0
 1058 -37 1061 -78 992 -78 c 0
 701 -78 l 9
598 157 m 1
 598 288 l 2
 598 591 864 606 923 606 c 1
 923 484 l 1x0f80
 842 484 720 477 720 290 c 2
 720 158 l 0
 720 146 718 112 743 112 c 1
 743 -11 l 0
 648 -11 598 72 598 157 c 1
564 483 m 1
 564 605 l 1x1f80
 706 605 943 586 943 301 c 2
 943 157 l 0
 943 65 894 -11 797 -11 c 1
 797 112 l 0
 825 112 821 146 821 157 c 0
 821 290 l 2
 821 476 697 482 564 483 c 1
215 156 m 1
 215 71 266 -11 361 -11 c 0
 361 111 l 1x9f80
 336 111 337 145 337 157 c 0
 337 290 l 2
 337 476 430 483 510 483 c 1
 510 605 l 1
 441 605 215 596 215 290 c 2
 215 156 l 1
385 342 m 1
 382 376 413 432 470 437 c 1
 537 437 560 378 560 290 c 2
 560 156 l 0
 560 64 511 -11 414 -11 c 1
 414 112 l 0
 442 112 438 145 438 156 c 0
 438 290 l 2
 438 342 406 342 385 342 c 1
977 474 m 1
 1038 470 1047 438 1047 419 c 2
 1047 342 l 0
 1047 331 1052 297 1016 297 c 0
 1016 175 l 1
 1120 175 1170 250 1170 342 c 0
 1170 419 l 2
 1170 561 1073 590 977 596 c 1
 977 474 l 1
EndSplineSet
EndChar

StartChar: tml_NnnAa.alt
Encoding: 164 -1 81
Width: 1616
VWidth: 0
Flags: HW
LayerCount: 3
Fore
SplineSet
40 6 m 0
 40 -133 125 -200 234 -200 c 0
 797 -200 l 1
 797 -78 l 17
 250 -78 l 0
 186 -78 163 -58 163 6 c 0
 163 513 l 0
 163 549 166 603 240 603 c 1
 292 603 l 1
 328 726 l 1
 239 726 l 1
 154 726 40 676 40 513 c 0
 40 6 l 0
852 -78 m 9
 852 -200 l 1
 1389 -200 l 0
 1515 -200 1576 -105 1576 -38 c 0
 1576 141 l 2
 1576 249 1474 286 1412 292 c 1
 1412 165 l 1xe470
 1434 165 1454 157 1454 107 c 0
 1454 6 l 0
 1454 -37 1457 -78 1388 -78 c 0
 852 -78 l 9
1373 468 m 1
 1434 464 1443 432 1443 413 c 2
 1443 336 l 0
 1443 325 1448 291 1412 291 c 0
 1412 169 l 1
 1516 169 1566 244 1566 336 c 0
 1566 413 l 2
 1566 555 1469 584 1373 590 c 1
 1373 468 l 1
986 168 m 1
 986 288 l 2
 986 591 1254 595 1318 595 c 1
 1318 473 l 1
 1230 473 1108 476 1108 290 c 2
 1108 169 l 0
 1108 157 1106 123 1131 123 c 1
 1131 1 l 0
 1036 1 986 83 986 168 c 1
988 473 m 1
 988 595 l 1
 1120 595 1331 586 1331 301 c 2
 1331 168 l 0
 1331 76 1282 1 1185 1 c 1
 1185 123 l 0
 1213 123 1208 157 1208 168 c 0
 1208 290 l 2
 1208 476 1111 473 988 473 c 1
601 167 m 1
 601 287 l 2
 601 590 869 595 934 595 c 1
 934 472 l 1
 845 472 723 475 723 289 c 2
 723 168 l 0
 723 156 721 122 746 122 c 1
 746 0 l 0
 651 0 601 82 601 167 c 1
567 472 m 1
 567 595 l 1
 709 595 946 585 946 300 c 2
 946 167 l 0
 946 75 896 0 799 0 c 1
 799 122 l 0
 827 122 824 156 824 167 c 0
 824 289 l 2
 824 475 700 471 567 472 c 1
218 166 m 1
 218 81 268 -1 363 -1 c 0
 363 121 l 1
 338 121 340 155 340 167 c 0
 340 289 l 2
 340 475 433 472 513 472 c 1
 513 595 l 1
 444 595 218 595 218 289 c 2
 218 166 l 1
388 341 m 1
 385 375 416 431 473 436 c 1
 540 436 563 377 563 289 c 2
 563 166 l 0
 563 74 514 -1 417 -1 c 1
 417 121 l 0
 445 121 441 155 441 166 c 0
 441 289 l 2
 441 341 409 341 388 341 c 1
EndSplineSet
EndChar

StartChar: tml_RrAa.alt
Encoding: 165 -1 82
Width: 936
VWidth: 0
Flags: HW
LayerCount: 3
Fore
SplineSet
40 6 m 0
 40 -133 125 -200 234 -200 c 0
 447 -200 l 1
 447 -78 l 17
 250 -78 l 0
 186 -78 163 -58 163 6 c 0
 163 519 l 0
 163 555 166 609 240 609 c 1
 292 609 l 1
 326 732 l 1
 239 732 l 1
 154 732 40 682 40 519 c 0
 40 6 l 0
516 -78 m 17
 707 -78 l 0
 776 -78 774 -37 774 6 c 0
 774 102 l 0
 774 169 723 160 701 160 c 1xe470
 701 287 l 1
 763 281 896 268 896 136 c 2
 896 -38 l 0
 896 -105 834 -200 708 -200 c 0
 516 -200 l 1
 516 -78 l 17
701 287 m 17
 713 287 l 0
 779 287 772 336 772 367 c 0
 772 433 l 258
 772 487 725 484 703 484 c 257
 703 606 l 257
 816 606 894 559 894 475 c 258
 894 384 l 0xf6
 894 279 881 167 717 165 c 0
 701 165 l 2
 701 287 l 17
220 0 m 257
 220 479 l 0xee
 220 529 261 606 373 606 c 257
 373 483 l 257
 348 483 342 471 342 458 c 258
 344 1 l 257
 220 0 l 257
426 483 m 257
 426 606 l 257
 472 606 502 597 526 576 c 257
 554 599 613 606 652 606 c 257
 652 484 l 257
 634 484 585.860351562 490.999023438 586 459 c 258
 588 2 l 257
 466 1 l 257
 464 458 l 258
 464 472 452 483 426 483 c 257
EndSplineSet
EndChar

StartChar: tml_TtIi
Encoding: 104 -1 83
Width: 0
VWidth: 0
Flags: W
LayerCount: 3
Fore
SplineSet
347 99 m 1
 159 253 206 606 441 606 c 0
 516 605 619 573 619 444 c 0
 619 350 541 289 475 289 c 0
 412 289 362 340 358 361 c 1
 429 444 l 0
 429 428 438 411 463 411 c 0
 486 411 497 429 497 443 c 0
 497 481 464 484 441 484 c 1
 308 473 333 235 500 111 c 1
 347 99 l 1
40 0 m 1
 40 122 l 1
 742 122 l 1
 742 0 l 1
 40 0 l 1
40 176 m 1
 40 596 l 1
 162 596 l 1
 162 176 l 1
 40 176 l 1
EndSplineSet
Colour: ff0000
EndChar

StartChar: tml_Au
Encoding: 15 2964 84
Width: 1845
VWidth: 0
Flags: HW
HStem: -132 123<629 752> 0 122<1044 1081 1136 1174> 29 122<174 210 265 305> 237 123<1044 1081 1136 1175> 266 123<182 210 265 309> 472 123<1098 1168 1222 1287 1485 1529> 573 122<310 426 479 593>
VStem: 39 171<144 152 266 389> 39 124<161 259> 317 123<162 257> 483 123<14 166 171 350> 733 123<163 455> 910 171<115 122 237 359> 910 131<306 410> 910 124<130 225 226 228> 1182 123<127 231> 1343 123<354 417>
LayerCount: 3
Fore
SplineSet
265 29 m 1xa87180
 265 152 l 0
 299 152 318 174 317 210 c 0
 316 244 305 266 265 266 c 1
 265 389 l 0
 364 389 439 309 439 248 c 0
 439 177 l 0
 439 115 364 29 265 29 c 1xa87180
39 177 m 0
 39 250 l 0xa8f180
 38 354 160 389 210 389 c 1xa97180
 210 266 l 0xa97180
 181 266 163 246 163 210 c 0xa8f180
 163 173 180 152 210 152 c 1
 210 29 l 0xa97180
 108 29 39 124 39 177 c 0
39 256 m 1x82f180
 39 310 l 1
 39 452 121 695 426 695 c 0x837180
 426 573 l 1
 243 573 179 456 179 357 c 0
 179 300 45 286 39 256 c 1x82f180
189 -124 m 1
 308 -94 l 1
 336 -151 430 -156 462 -94 c 0
 567 -155 l 1
 501 -297 244 -298 189 -124 c 1
483 25 m 0
 483 276 l 1
 604 171 l 0
 604 52 l 0
 604 3 678 -9 752 -9 c 0
 752 -132 l 1
 589 -132 483 -66 483 25 c 0
479 573 m 1
 479 695 l 1
 745 695 857 494 857 398 c 0
 857 165 l 2
 857 -17 483 -16 483 166 c 2
 483 350 l 0
 606 350 l 1
 606 196 l 1
 606 137 732 136 733 196 c 0
 733 398 l 0
 733 458 641 573 479 573 c 1
EndSplineSet
Refer: 14 2995 N 1 0 0 0.993388 869 -6.04297 2
EndChar

StartChar: tml_Ja
Encoding: 19 2972 85
Width: 950
VWidth: 0
Flags: W
HStem: -178 123<209 286 347 402 619 772> 16 124<540 598 718 779> 158 123<208 262 718 770> 307 125<178 206 260 287> 561 123<621 664 718 760> 569 127<133 357>
VStem: 40 122<447 582> 55 122<-22 125> 302 122<446 542> 410 119<-49 8> 461 122<320 601> 782 122<-41 10 297 409 448 536>
LayerCount: 3
Fore
SplineSet
619 -55 m 0
 682 -55 782 -60 782 -14 c 0
 782 7 758 15 718 16 c 1
 718 140 l 1xf010
 805 140 904 97 904 -16 c 0
 904 -151 774 -177 619 -177 c 0
 619 -55 l 0
347 -55 m 9
 347 -178 l 1
 463 -178 528 -108 529 -59 c 0xf050
 531 13 556 17 580 16 c 1
 664 16 l 1
 664 140 l 17
 598 140 l 1
 501 140 412 90 410 -1 c 0
 409 -50 387 -55 347 -55 c 9
55 11 m 2
 55 -92 164 -180 286 -180 c 1
 286 -58 l 17
 210 -58 177 -19 177 46 c 0xf910
 177 93 196 157 255 157 c 0
 718 158 l 1
 736 158 l 0
 816 158 908 218 910 387 c 0
 910 448 l 1
 910 597 820 676 718 684 c 1
 718 561 l 1
 765 554 786 512 786 448 c 1
 786 409 l 2
 786 349 793 281 718 281 c 2
 262 280 l 0
 125 280 55 164 55 83 c 0
 55 11 l 2
461 371 m 1
 461 468 l 0xf830
 461 601 571 675 664 684 c 1
 664 561 l 1
 624 553 583 517 583 451 c 0
 583 371 l 1
 461 371 l 1
40 471 m 0
 41 496 l 2
 41 581 136 674 229 686 c 0
 342 700 424 588 424 499 c 2
 424 471 l 2xf690
 424 410 342 307 260 307 c 1
 260 432 l 1
 282 440 302 467 302 499 c 0
 302 538 271 569 232 569 c 0
 193 569 162 538 162 499 c 0
 162 466 183 439 206 431 c 1
 206 307 l 1
 119 307 40 402 40 471 c 0
40 472 m 1
 40 482 l 0
 40 537 72 696 301 696 c 1
 446 696 583 612 583 408 c 0
 583 320 l 1
 461 320 l 17xf630
 461 408 l 0
 461 543 352 582 304 582 c 0
 263 582 159 587 159 483 c 1
 40 472 l 1
EndSplineSet
EndChar

StartChar: tml_Rra
Encoding: 30 2993 86
Width: 732
VWidth: 0
Flags: HW
HStem: -155 122<184 237 472 546> 0 21G<65 194> 483 123<193 223 276 313 437 476 527 567>
VStem: 39 122<-256 -177> 65 129<1 481> 316 122<2 481> 569 125<-13 64 460 482>
LayerCount: 3
Fore
SplineSet
39 -256 m 1
 161 -256 l 1
 161 -176 190 -155 237 -155 c 2
 498 -155 l 0
 637 -153 691 -41 691 64 c 0xf6
 691 475 l 258
 691 530 640 606 527 606 c 257
 527 484 l 257
 549 484 569 481 569 460 c 258
 569 47 l 0
 569 16 570 -33 472 -33 c 0
 233 -33 l 0
 91 -33 39 -114 39 -256 c 1
70 0 m 257
 70 479 l 0xee
 70 529 111 606 223 606 c 257
 223 483 l 257
 198 483 192 471 192 458 c 258
 194 1 l 257
 70 0 l 257
276 483 m 257
 276 606 l 257
 322 606 352 597 376 576 c 257
 404 599 437 606 476 606 c 257
 476 484 l 257
 458 484 436 481 436 459 c 258
 438 2 l 257
 316 1 l 257
 314 458 l 258
 314 472 302 483 276 483 c 257
EndSplineSet
EndChar

StartChar: tml_Sha
Encoding: 35 2998 87
Width: 1258
VWidth: 0
Flags: HW
LayerCount: 3
Fore
SplineSet
302 473 m 1
 930 473 l 1
 930 595 l 1
 302 595 l 1
 302 473 l 1
764 -0 m 1
 790 -0 l 0
 897 0 930 109 930 168 c 1
 930 582 l 1
 808 582 l 17
 808 168 l 1
 808 141 790 124 764 124 c 1
 764 -0 l 1
548 168 m 0
 548 112 571 0 688 -0 c 0
 710 -0 l 1
 710 124 l 1
 683 124 670 138 670 168 c 2
 670 582 l 0
 548 582 l 25
 548 168 l 0
258 0 m 1
 284 0 l 0
 391 0 424 109 424 168 c 1
 424 582 l 1
 302 582 l 17
 302 168 l 1
 302 141 284 124 258 124 c 1
 258 0 l 1
42 168 m 0
 42 112 66 0 183 0 c 0
 204 0 l 1
 204 124 l 1
 177 124 164 138 164 168 c 2
 164 595 l 0
 42 595 l 25
 42 168 l 0
EndSplineSet
EndChar

StartChar: tml_Ssa
Encoding: 36 2999 88
Width: 1258
VWidth: 0
Flags: HW
HStem: 0 123<175 212 267 305 454 487> 237 123<174 212 267 306> 483 122<229 301 351 424 803 850 903 954>
VStem: 40 172<115 122 237 359> 40 125<130 230> 314 122<131 229> 487 121<125 146 354 419> 669 123<285 340 424 474> 962 122<413 481>
LayerCount: 3
Fore
SplineSet
267 0 m 5xe780
 267 122 l 5
 299 123 314 142 314 180 c 4
 314 218 298 237 267 237 c 5
 267 359 l 4
 363 359 436 276 436 224 c 4
 436 152 l 4
 437 89 376 0 267 0 c 5xe780
40 151 m 4
 40 220 l 4xef80
 39 324 162 359 212 359 c 5xf780
 212 237 l 4xf780
 183 237 165 218 165 181 c 4xef80
 165 147 179 122 212 122 c 5
 212 0 l 4xf780
 110 0 40 91 40 151 c 4
40 226 m 5xef80
 40 305 l 5
 40 433 91 605 301 605 c 5
 301 483 l 5
 237 483 178 439 176 354 c 4
 40 226 l 5xef80
351 483 m 5
 428 483 486 424 487 354 c 5
 487 146 l 4
 487 127 461 124 454 123 c 5
 454 0 l 5
 850 0 l 5
 850 123 l 5
 608 123 l 5
 608 355 l 5
 607 466 520 605 351 605 c 5
 351 483 l 5
903 485 m 5
 942 485 962 486 962 413 c 6
 962 158 l 5
 1084 158 l 5
 1084 413 l 6
 1084 561 1006 607 903 607 c 5
 903 485 l 5
962 123 m 5
 962 -178 l 5
 1084 -178 l 5
 1084 123 l 5
 962 123 l 5
903 158 m 5
 1220 158 l 5
 1220 280 l 4
 903 280 l 13
 903 158 l 5
669 334 m 6
 669 191 746 158 850 158 c 5
 850 279 l 21
 806 279 792 287 792 340 c 4
 792 424 l 4
 792 463 805 485 850 485 c 5
 850 607 l 5
 746 607 669 570 669 433 c 4
 669 334 l 6
1120 0 m 5
 1220 0 l 5
 1220 280 l 5
 1120 280 l 5
 1120 0 l 5
903 1 m 5
 1220 0 l 5
 1220 123 l 5
 903 123 l 5
 903 1 l 5
EndSplineSet
EndChar

StartChar: tml_Sa
Encoding: 37 3000 89
Width: 1167
VWidth: 0
Flags: HW
HStem: 0 122<175 212 267 305 892 924 978 1014> 237 123<175 212 267 306> 484 121<237 299 353 416 609 653 707 751>
VStem: 41 171<115 122 237 359> 41 131<306 418> 41 124<130 225 226 228> 313 123<127 231> 762 122<128 168 402 476> 1021 122<131 168 424 465>
LayerCount: 3
Fore
SplineSet
41 226 m 1xe780
 41 326 l 2
 41 427 120 605 299 605 c 1xf380
 299 484 l 1
 234 484 172 427 172 327 c 0xeb80
 172 270 47 256 41 226 c 1xe780
267 0 m 1
 267 122 l 0
 308 122 314 150 313 181 c 0
 312 208 309 237 267 237 c 1
 267 359 l 0
 363 359 436 276 436 224 c 0
 436 152 l 0
 437 89 376 0 267 0 c 1
353 484 m 1
 422 484 473 417 474 354 c 1
 475 0 l 1
 601 0 l 1
 597 355 l 1
 597 456 515 605 353 605 c 1
 353 484 l 1
41 151 m 0
 41 193 42 140 41 220 c 0xe780
 40 324 162 359 212 359 c 1xf380
 212 237 l 0xf380
 183 237 165 210 165 181 c 0xe780
 165 149 179 122 212 122 c 1
 212 0 l 0xf380
 110 0 41 91 41 151 c 0
474 325 m 1
 597 326 l 1
 597 470 604 482 653 482 c 1
 653 605 l 1
 480 605 474 440 474 325 c 1
707 483 m 1
 751 483 761 469 762 402 c 10
 762 168 l 18
 762 96.3767625773 792.076815868 0 924 0 c 1
 924 124 l 1
 897 124 884 138 884 168 c 2
 884 402 l 0
 883 501 870 606 710 606 c 2
 707 606 l 1
 707 483 l 1
971 473 m 1
 1009 473 1021 460 1021 424 c 1
 1021 168 l 17
 1021 141 1004 124 978 124 c 1
 978 0 l 1
 1102.95690386 0 1144 90.6147242058 1144 168 c 2
 1144 426 l 2
 1144 538.432715994 1097.90579694 596 971 596 c 1
 971 473 l 1
EndSplineSet
EndChar

StartChar: tml_Ha
Encoding: 38 3001 90
Width: 1399
VWidth: 0
Flags: HW
HStem: -155 122<228 298 1139 1205> 0 123<174 211 266 304 454 487> 237 123<174 211 266 305> 474 122<231 297 354 430> 481 123<859 889 942 979 1103 1142 1193 1233>
VStem: 39 172<115 122 237 359> 39 125<130 225 226 228> 92 122<-224 -167> 312 123<127 231> 487 121<125 146 354 417> 731 129<-1 479> 982 122<0 479> 1236 122<-3 70 458 480>
LayerCount: 3
Fore
SplineSet
92 -256 m 1
 214 -256 l 1
 214 -182.724911146 229.4175989 -155 272 -155 c 2
 1139 -155 l 0
 1269 -153 1332 -44 1332 70 c 2
 1332 473 l 258
 1331 528 1280 604 1167 604 c 257
 1167 482 l 257
 1189 482 1210 479 1210 458 c 258
 1210 70 l 2xe1f8
 1210 39 1210 -33 1112 -33 c 0
 1023 -33 390 -33 298 -33 c 0
 142.393775081 -33 92 -102.974889896 92 -256 c 1
709 0 m 257
 709 477 l 0
 709 527 750 604 862 604 c 257
 862 481 l 257xe8f8
 837 481 833 469 833 456 c 258
 833 0 l 257
 709 0 l 257
916 481 m 257
 916 604 l 257
 962 604 992 595 1016 574 c 257
 1044 597 1076 604 1115 604 c 257
 1115 482 l 257
 1097 482 1075 479 1075 457 c 258
 1078 0 l 257
 955 -1 l 257
 955 457 l 258
 955 471 942 481 916 481 c 257
266 0 m 1
 266 122 l 0
 307 122 313 150 312 181 c 0
 311 208 308 237 266 237 c 1
 266 359 l 0
 362 359 435 276 435 224 c 0
 435 152 l 0
 436 89 375 0 266 0 c 1
39 151 m 0
 39 193 40 140 39 220 c 0xe2f8
 38 324 161 359 211 359 c 1xe4f8
 211 237 l 0xe4f8
 182 237 164 210 164 181 c 0xe2f8
 164 149 178 122 211 122 c 1
 211 0 l 0xe4f8
 109 0 39 91 39 151 c 0
39 226 m 1xf2f8
 39 282 l 2
 39 374.993910529 69.0056814428 596 297 596 c 1xf4f8
 297 474 l 1
 231.888348436 474 182.225492886 432.383781934 175 356 c 0
 170 299 45 256 39 226 c 1xf2f8
351 474 m 1
 427.922831108 474 485.974522396 423.732477065 487 354 c 1
 487 146 l 0
 487 127 461 124 454 123 c 1
 454 0 l 1
 655 0 l 1
 655 123 l 1
 608 123 l 1
 608 355 l 1
 606.95329243 481.997709948 520.177042147 596 351 596 c 1
 351 474 l 1
EndSplineSet
EndChar

StartChar: tml_MatraI
Encoding: 40 3007 91
Width: 0
VWidth: 0
Flags: HW
LayerCount: 3
Back
SplineSet
642.578125 371.09375 m 9xc480
 642.578125 249.0234375 l 1
 238.28125 249.0234375 l 2
 173.8359375 248.82421875 160.15625 239.2578125 160.15625 188.41796875 c 0
 160.15625 127.114257812 179.6875 122.048828125 268.5546875 122.0703125 c 1
 268.5546875 -0.9765625 l 1
 111.328125 0 39.0625 68.1220703125 39.0625 157.2265625 c 0
 39.0625 217.591796875 l 0
 39.0625 325.1953125 149.4140625 371.09375 235.3515625 371.09375 c 0
 642.578125 371.09375 l 9xc480
322.265625 -0.9765625 m 9
 322.265625 122.0703125 l 1
 388.671875 122.0703125 418.9453125 141.624023438 418.9453125 187.44140625 c 0
 418.9453125 587.890625 l 1
 541.015625 587.890625 l 1x8c80
 541.015625 191.40625 l 2
 541.015625 95.7216796875 489.2578125 -0.9765625 322.265625 -0.9765625 c 9
164.0625 347.65625 m 17xa580
 164.0625 585.9375 l 1xa680
 287.109375 585.9375 l 1
 286.1328125 347.65625 l 1
 164.0625 347.65625 l 17xa580
380.859375 594.7265625 m 1x9480
 687.5 594.7265625 l 1
 687.5 469.7265625 l 1
 380.859375 469.7265625 l 1
 380.859375 594.7265625 l 1x9480
164.0625 594.7265625 m 1x9680
 327.1484375 594.7265625 l 1
 327.1484375 469.7265625 l 1x9680
 164.0625 469.7265625 l 1x8e80
 164.0625 594.7265625 l 1x9680
EndSplineSet
Fore
SplineSet
643 678 m 5
 643 800 l 5
 825 800 858 684 858 582 c 4
 858 69 l 5
 736 69 l 5
 736 579 l 6
 736 641 709 678 643 678 c 5
382 580 m 5
 382 580 l 5
 382 684 421 800 589 800 c 4
 589 800 l 5
 589 678 l 4
 589 678 l 4
 528 678 505 641 505 580 c 4
 382 580 l 5
EndSplineSet
EndChar

StartChar: tml_MatraIi
Encoding: 41 3008 92
Width: 0
VWidth: 0
Flags: HW
LayerCount: 3
Back
SplineSet
642.578125 371.09375 m 9xc480
 642.578125 249.0234375 l 1
 238.28125 249.0234375 l 2
 173.8359375 248.82421875 160.15625 239.2578125 160.15625 188.41796875 c 0
 160.15625 127.114257812 179.6875 122.048828125 268.5546875 122.0703125 c 1
 268.5546875 -0.9765625 l 1
 111.328125 0 39.0625 68.1220703125 39.0625 157.2265625 c 0
 39.0625 217.591796875 l 0
 39.0625 325.1953125 149.4140625 371.09375 235.3515625 371.09375 c 0
 642.578125 371.09375 l 9xc480
322.265625 -0.9765625 m 9
 322.265625 122.0703125 l 1
 388.671875 122.0703125 418.9453125 141.624023438 418.9453125 187.44140625 c 0
 418.9453125 587.890625 l 1
 541.015625 587.890625 l 1x8c80
 541.015625 191.40625 l 2
 541.015625 95.7216796875 489.2578125 -0.9765625 322.265625 -0.9765625 c 9
164.0625 347.65625 m 17xa580
 164.0625 585.9375 l 1xa680
 287.109375 585.9375 l 1
 286.1328125 347.65625 l 1
 164.0625 347.65625 l 17xa580
380.859375 594.7265625 m 1x9480
 687.5 594.7265625 l 1
 687.5 469.7265625 l 1
 380.859375 469.7265625 l 1
 380.859375 594.7265625 l 1x9480
164.0625 594.7265625 m 1x9680
 327.1484375 594.7265625 l 1
 327.1484375 469.7265625 l 1x9680
 164.0625 469.7265625 l 1x8e80
 164.0625 594.7265625 l 1x9680
EndSplineSet
Fore
SplineSet
491 410 m 5
 303 564 350 918 585 918 c 4
 660 917 763 885 763 756 c 4
 763 662 686 601 620 601 c 4
 557 601 506 652 502 673 c 5
 573 756 l 4
 573 740 582 723 607 723 c 4
 630 723 641 741 641 755 c 4
 641 793 608 796 585 796 c 5
 452 785 478 547 645 423 c 5
 491 410 l 5
EndSplineSet
EndChar

StartChar: tml_MatraU
Encoding: 42 3009 93
Width: 569
VWidth: 0
Flags: HW
LayerCount: 3
Fore
SplineSet
39 574 m 5
 319 574 l 6
 375 574 408 567 408 529 c 4
 408 511 397 497 374 497 c 4
 352 497 340 510 340 530 c 4
 218 530 l 5
 218 445 289 375 358 375 c 4
 387 375 l 4
 442 375 530 426 530 530 c 4
 530 540 l 4
 530 673 434 696 323 696 c 6
 39 696 l 5
 39 574 l 5
EndSplineSet
EndChar

StartChar: tml_MatraUu
Encoding: 43 3010 94
Width: 0
VWidth: 0
Flags: HW
LayerCount: 3
Fore
SplineSet
218 692 m 0
 340 692 l 1
 340 758 409 771 447 771 c 0
 486 771 557 756 557 696 c 0
 557 372 l 0
 557 337 539 314 501 314 c 0
 442 314 l 0
 442 222 l 0
 501 222 l 0
 606 222 680 267 680 372 c 0
 680 696 l 0
 680 801 593 893 447 893 c 0
 315 893 218 802 218 692 c 0
39 574 m 1
 319 574 l 2
 375 574 408 567 408 529 c 0
 408 511 397 497 374 497 c 0
 352 497 340 510 340 530 c 0
 218 530 l 1
 218 445 289 375 358 375 c 0
 387 375 l 0
 442 375 530 426 530 530 c 0
 530 540 l 0
 530 673 434 696 323 696 c 2
 39 696 l 1
 39 574 l 1
EndSplineSet
EndChar

StartChar: tml_MatraE
Encoding: 44 3014 95
Width: 633
VWidth: 0
Flags: HW
LayerCount: 3
Fore
SplineSet
265 0 m 1
 265 122 l 0
 306 122 312 150 311 181 c 0
 310 208 307 237 265 237 c 1
 265 359 l 0
 361 359 434 276 434 224 c 0
 434 152 l 0
 435 89 374 0 265 0 c 1
39 151 m 0
 39 193 40 140 39 220 c 0xe780
 38 324 160 359 210 359 c 1xf380
 210 237 l 0xf380
 181 237 163 210 163 181 c 0xe780
 163 149 177 122 210 122 c 1
 210 0 l 0xf380
 108 0 39 91 39 151 c 0
350 596 m 1
 350 718 l 1
 522 718 595 592 595 451 c 0
 595 -10 l 1
 473 -10 l 1
 473 451 l 2
 473 514 461 596 350 596 c 1
39 214 m 1
 39 268 l 1
 39 451 l 0
 39 591 116 718 296 718 c 0
 296 718 l 1
 296 596 l 0
 296 596 l 0
 200 596 162 543 162 451 c 0
 162 315 l 0
 163 258 45 244 39 214 c 1
EndSplineSet
EndChar

StartChar: tml_MatraEe
Encoding: 45 3015 96
Width: 621
VWidth: 0
Flags: HW
HStem: -42 121<306 356 357 358 413 452> 194 123<321 358 413 452> 346 122<322 358 413 452> 582 123<299 354 356 358 413 452>
VStem: 39 121<120 548> 187 125<100 183 476 568> 459 123<85 189 473 577>
LayerCount: 3
Fore
SplineSet
413 346 m 1
 413 468 l 0
 454 468 460 495 459 526 c 0
 458 553 455 582 413 582 c 1
 413 705 l 0
 509 705 582 621 582 569 c 0
 582 498 l 0
 583 435 522 346 413 346 c 1
187 497 m 0
 187 539 188 486 187 566 c 0
 186 670 308 705 358 705 c 1
 358 582 l 0
 329 582 311 555 311 526 c 0
 311 494 325 468 358 468 c 1
 358 346 l 0
 256 346 187 437 187 497 c 0
413 -42 m 1
 413 80 l 0
 454 80 460 107 459 138 c 0
 458 165 455 194 413 194 c 1
 413 317 l 0
 509 317 582 233 582 181 c 0
 582 110 l 0
 583 47 522 -42 413 -42 c 1
187 109 m 0
 187 151 188 98 187 178 c 0
 186 282 308 317 358 317 c 1
 358 194 l 0
 329 194 311 167 311 138 c 0
 311 106 325 80 358 80 c 1
 358 -42 l 0
 256 -42 187 49 187 109 c 0
39 195 m 1
 39 466 l 1
 39 676 281 705 354 705 c 0
 354 584 l 1
 299 582 160 571 160 462 c 2
 160 208 l 2
 160 113 306 79 356 79 c 1
 356 -42 l 0
 351 -42 l 0
 255 -42 39 -5 39 195 c 1
EndSplineSet
EndChar

StartChar: tml_MatraAi
Encoding: 46 3016 97
Width: 1043
VWidth: 0
Flags: HW
LayerCount: 3
Fore
SplineSet
423 157 m 1
 423 288 l 2
 423 591 689 606 748 606 c 1
 748 484 l 1x0f80
 667 484 545 477 545 290 c 2
 545 158 l 0
 545 146 543 112 568 112 c 1
 568 -11 l 0
 473 -11 423 72 423 157 c 1
389 483 m 1
 389 605 l 1x1f80
 531 605 768 586 768 301 c 2
 768 157 l 0
 768 65 719 -11 622 -11 c 1
 622 112 l 0
 650 112 646 146 646 157 c 0
 646 290 l 2
 646 476 522 482 389 483 c 1
40 156 m 1
 40 71 91 -11 186 -11 c 0
 186 111 l 1x9f80
 161 111 162 145 162 157 c 0
 162 290 l 2
 162 476 255 483 335 483 c 1
 335 605 l 1
 266 605 40 596 40 290 c 2
 40 156 l 1
210 342 m 1
 207 376 238 432 295 437 c 1
 362 437 385 378 385 290 c 2
 385 156 l 0
 385 64 336 -11 239 -11 c 1
 239 112 l 0
 267 112 263 145 263 156 c 0
 263 290 l 2
 263 342 231 342 210 342 c 1
802 474 m 1
 841 453 872 395 872 303 c 2
 872 162 l 0
 872 151 877 117 841 117 c 0
 841 -5 l 1
 945 -5 995 70 995 162 c 0
 995 303 l 2
 995 483 898 590 802 596 c 1
 802 474 l 1
EndSplineSet
EndChar

StartChar: tml_One
Encoding: 54 3047 105
Width: 0
VWidth: 0
Flags: W
LayerCount: 3
Fore
SplineSet
331 -11 m 9x8660
 331 112 l 1
 397 112 428 141 428 187 c 0
 428 541 l 1
 550 541 l 1
 550 191 l 2
 550 95 498 -11 331 -11 c 9x8660
173 348 m 17x12e0
 173 539 l 1x1360
 296 539 l 1
 295 348 l 1
 173 348 l 17x12e0
389 470 m 1
 389 595 l 1x0a60
 682 595 l 1
 682 470 l 1
 389 470 l 1
173 470 m 1x0760
 173 595 l 1x0b60
 335 595 l 1
 335 470 l 1x0b60
 173 470 l 1x0760
48 157 m 0
 48 240 l 0
 48 347 140 371 226 371 c 0
 603 371 l 0
 709 371 786 350 786 236 c 2
 786 156 l 0
 786 60 703 2 569 2 c 1
 571 126 l 0
 647 126 664 129 664 185 c 0
 664 239 652 249 611 249 c 2
 229 249 l 2x6260
 181 249 169 239 169 188 c 0
 169 127 188 112 277 112 c 1
 277 -11 l 1xa260
 120 -11 48 68 48 157 c 0
EndSplineSet
EndChar

StartChar: tml_Two
Encoding: 55 3048 106
Width: 1017
VWidth: 0
Flags: HW
LayerCount: 3
Fore
SplineSet
39 472 m 0
 39 593 137 696 302 696 c 0
 485 696 594 593 594 430 c 1
 471 430 l 17
 471 538 402 574 302 574 c 0
 210 574 160 521 161 469 c 0
 162 424 200 407 226 407 c 0
 275 407 302 459 287 504 c 1
 409 504 l 1
 434 388 338 285 227 285 c 0
 135 285 39 345 39 472 c 0
185 0 m 1
 185 122 l 1
 979 122 l 1
 979 0 l 1
 185 0 l 1
102 0 m 1
 102 122 l 1
 354 121 471 256 471 376 c 9
 594 376 l 1
 594 161 324 0 231 0 c 1
 102 0 l 1
594 457 m 1049
EndSplineSet
EndChar

StartChar: tml_Visarga
Encoding: 3 2947 108
Width: 0
VWidth: 0
Flags: W
LayerCount: 3
Fore
SplineSet
39 117 m 0xe8
 39 184 93 238 160 238 c 0
 227 238 281 184 281 117 c 0
 281 50 227 -4 160 -4 c 0
 93 -4 39 50 39 117 c 0xe8
525 121 m 0
 525 188 579 242 646 242 c 0
 713 242 767 188 767 121 c 0
 767 54 713 0 646 0 c 0
 579 0 525 54 525 121 c 0
281 489 m 0xd8
 281 556 335 610 402 610 c 0
 469 610 522 556 522 489 c 0
 522 422 469 368 402 368 c 0
 335 368 281 422 281 489 c 0xd8
EndSplineSet
EndChar

StartChar: tml_U
Encoding: 8 2953 109
Width: 1071
VWidth: 0
Flags: HW
HStem: 0 122<85 116 179 205 259 1033> 141 122<179 456> 545 159<179 383> 583 84<228 342>
VStem: 39 122<423 543> 57 148<12 122> 301 122<423 523> 471 123<277 376 430 525>
LayerCount: 3
Back
SplineSet
470.703125 429.6875 m 21
 470.703125 457.03125 l 4
 470.703125 542.96875 382.065429688 573.73046875 301.7578125 573.73046875 c 4
 209.502929688 573.73046875 160.368164062 520.513671875 161.1328125 468.75 c 4
 161.795898438 423.836914062 199.21875 407.2265625 225.5859375 407.2265625 c 4
 274.4140625 407.2265625 301.7578125 458.984375 287.109375 503.90625 c 5
 409.1796875 503.90625 l 5
 434.5703125 387.6953125 337.890625 285.15625 226.5625 285.15625 c 4
 134.765625 285.15625 39.0625 344.7265625 39.0625 471.6796875 c 4
 39.0625 592.799804688 136.934570312 695.80078125 301.7578125 695.80078125 c 4
 467.166015625 695.80078125 593.75 598.42578125 593.75 457.03125 c 4
 593.75 429.6875 l 5
 470.703125 429.6875 l 21
258.7890625 122.0703125 m 21
 1032.71484375 122.0703125 l 5
 1032.71484375 0 l 5
 258.7890625 0 l 5
 258.7890625 122.0703125 l 21
205.078125 0 m 5
 115.72265625 0 l 4
 47.974609375 0 56.640625 70.6376953125 56.640625 122.0703125 c 5
 205.078125 122.0703125 l 5
 205.078125 0 l 5
470.703125 375.9765625 m 13
 593.75 375.9765625 l 5
 593.75 338.8671875 l 6
 594.529296875 244.55078125 563.638671875 141.6015625 369.62890625 141.6015625 c 4
 318.646484375 141.6015625 188.982421875 141.408203125 179.19921875 141.204101562 c 5
 179.19921875 128.040039062 179.19921875 110.3515625 179.19921875 110.3515625 c 4
 56.640625 110.3515625 l 4
 56.640625 164.0625 l 4
 57.1767578125 225.739257812 75.2197265625 263.671875 138.18359375 263.671875 c 6
 338.37890625 263.671875 l 4
 455.56640625 264.213867188 470.703125 267.514648438 470.703125 338.8671875 c 4
 470.703125 375.9765625 l 13
593.75 457.03125 m 1053
EndSplineSet
Fore
SplineSet
39 472 m 0
 39 593 137 696 302 696 c 0
 467 696 594 598 594 457 c 0
 594 430 l 1
 471 430 l 17
 471 457 l 0
 471 543 382 574 302 574 c 0
 210 574 160 521 161 469 c 0
 162 424 200 407 226 407 c 0
 275 407 302 459 287 504 c 1
 409 504 l 1
 434 388 338 285 227 285 c 0
 135 285 39 345 39 472 c 0
259 0 m 1
 259 122 l 17
 1033 122 l 1
 1033 0 l 1
 259 0 l 1
57 122 m 1
 205 122 l 1
 205 0 l 1
 116 0 l 0
 48 0 57 71 57 122 c 1
57 110 m 0
 57 164 l 0
 58 226 75 264 138 264 c 2
 338 264 l 0
 455 265 471 268 471 339 c 0
 471 376 l 9
 594 376 l 1
 594 339 l 2
 595 245 564 142 370 142 c 0
 319 142 189 141 179 141 c 1
 179 128 179 110 179 110 c 0
 57 110 l 0
594 457 m 1049
EndSplineSet
Layer: 2
SplineSet
258.7890625 282.2265625 m 5xdb
 258.7890625 407.2265625 l 5
 279.296875 413.0859375 301.165039062 442.361328125 301.165039062 474.712890625 c 4
 301.165039062 513.919921875 270.1640625 544.921875 230.95703125 544.921875 c 4xeb
 191.750976562 544.921875 160.748046875 513.919921875 160.748046875 474.712890625 c 4
 160.748046875 442.124023438 181.19140625 415.205078125 204.1015625 407.045898438 c 5
 204.1015625 282.2265625 l 5
 116.2109375 282.2265625 39.0625 376.953125 39.0625 446.2890625 c 4
 39.0625 492.1875 l 6
 39.0625 571.784179688 136.509765625 666.172851562 228.02734375 666.9921875 c 4
 341.779296875 668.010742188 423.33984375 586.990234375 423.33984375 498.046875 c 6
 423.33984375 448.2421875 l 6
 423.33984375 386.71875 343.75 282.2265625 258.7890625 282.2265625 c 5xdb
470.703125 429.6875 m 21
 470.703125 457.03125 l 4
 470.703125 542.96875 400.620117188 583.0078125 320.3125 583.0078125 c 4xdb
 227.5390625 583.0078125 157.71484375 542.96875 157.71484375 458.984375 c 5
 39.0625 458.984375 l 5
 39.0625 484.375 l 4
 39.0625 608.3984375 165.5234375 704.081054688 320.3125 704.1015625 c 5
 485.720703125 704.1015625 593.75 612.09765625 593.75 457.03125 c 4
 593.75 429.6875 l 5
 470.703125 429.6875 l 21
258.7890625 122.0703125 m 21
 1032.71484375 122.0703125 l 5
 1032.71484375 0 l 5
 258.7890625 0 l 5
 258.7890625 122.0703125 l 21
205.078125 0 m 5xc7
 115.72265625 0 l 4
 47.974609375 0 56.640625 70.6376953125 56.640625 122.0703125 c 5
 205.078125 122.0703125 l 5
 205.078125 0 l 5xc7
470.703125 375.9765625 m 13
 593.75 375.9765625 l 5
 593.75 338.8671875 l 6
 594.529296875 244.55078125 563.638671875 141.6015625 369.62890625 141.6015625 c 4
 318.646484375 141.6015625 188.982421875 141.408203125 179.19921875 141.204101562 c 5
 179.19921875 128.040039062 179.19921875 107.421875 179.19921875 107.421875 c 4
 179.299804688 63.4765625 56.66015625 68.359375 56.640625 113.28125 c 4
 56.640625 164.0625 l 4
 57.1767578125 225.739257812 75.2197265625 263.671875 138.18359375 263.671875 c 6
 338.37890625 263.671875 l 4
 455.56640625 264.213867188 470.703125 267.514648438 470.703125 338.8671875 c 4
 470.703125 375.9765625 l 13
593.75 457.03125 m 1053
EndSplineSet
EndChar

StartChar: tml_Uu
Encoding: 9 2954 110
Width: 1435
VWidth: 0
Flags: HW
HStem: 0 122<85 116 179 205 259 1381> 141 122<179 456> 149 101<768 799 846 875> 343 101<768 799 847 877> 537 101<807 870 918 976 1131 1167> 545 159<179 323> 583 84<228 342>
VStem: 39 122<442 543> 57 148<12 122> 301 122<442 514> 471 123<277 376 430 543> 659 103<255 339 398 484> 659 140<231 249 343 444> 883 101<254 337>
LayerCount: 3
Fore
SplineSet
259 0 m 1
 259 122 l 17
 1381 122 l 1
 1381 0 l 1
 259 0 l 1
57 122 m 1
 205 122 l 1
 205 0 l 1x90e4
 116 0 l 0
 48 0 57 71 57 122 c 1
659 334 m 1
 659 415 l 1x906c
 659 498 724 637 869 637 c 0
 871 637 l 1
 870 537 l 0
 867 537 l 0
 817 537 767 498 767 418 c 0
 767 371 664 359 659 334 c 1
846 149 m 1xb064
 846 249 l 0
 872 249 884 272 883 297 c 0
 882 319 869 342 847 343 c 1
 847 444 l 0
 933 444 983 382 983 333 c 0
 983 298 983 326 984 261 c 0
 985 209 926 150 846 149 c 1xb064
917 538 m 1
 919 538 l 2
 963 538 1014 491 1015 440 c 1
 1016 149 l 1
 1120 149 l 1
 1116 441 l 1
 1115 522 1055 638 918 638 c 2
 917 638 l 1xb864
 917 538 l 1
659 330 m 0xb074
 658 415 759 444 799 444 c 1xb06c
 799 343 l 0xb06c
 776 342 761 321 761 297 c 0xb074
 761 271 773 249 799 249 c 1
 799 149 l 0xb06c
 712 149 660 210 660 259 c 0
 660 294 659 264 659 330 c 0xb074
1236 149 m 1
 1336 149 l 1
 1336 621 l 1
 1236 621 l 1
 1236 149 l 1
1215 537 m 1
 1396 537 l 1
 1396 638 l 1
 1215 638 l 1x9864
 1215 537 l 1
1015 429 m 1
 1116 429 l 1
 1116 482 1123 537 1167 537 c 1
 1167 638 l 1
 1148 638 l 0
 1026 638 1015 498 1015 429 c 1
EndSplineSet
Refer: 109 2953 N 1 0 0 1 0 0 2
EndChar

StartChar: tml_Ee
Encoding: 11 2959 111
Width: 746
VWidth: 0
Flags: W
HStem: 1 122<180 210 265 298> 238 123<181 210 265 304> 472 105<484 606> 472 123<235 304 359 484 606 707>
VStem: 39 124<145 217> 39 131<310 405> 39 171<116 123 238 360> 317 123<146 215> 484 123<0 577> 484 123<32 577>
LayerCount: 3
Fore
SplineSet
315 -176 m 1
 484 32 l 1
 484 577 l 1
 609 577 l 1xe140
 607 1 l 2
 459 -176 l 1
 315 -176 l 1
EndSplineSet
Refer: 4 2958 N 1 0 0 1 0 0 2
EndChar

StartChar: tml_Ai
Encoding: 12 2960 112
Width: 948
VWidth: 0
Flags: W
HStem: -180 122<213 285 339 449 593 663 717 770> 158 122<207 261 717 766> 307 125<177 205 259 286> 569 127<132 355 615 663 717 759>
VStem: 39 122<447 582> 54 122<-22 125> 301 122<446 542> 460 122<-45 118 320 612> 783 122<-43 -3 297 549>
LayerCount: 3
Fore
SplineSet
717 158 m 1
 717 281 l 17xf380
 721 281 l 0
 792 281 785 362 785 419 c 1
 785 461 l 1
 785 525 764 567 717 574 c 1
 717 696 l 1
 819 688 909 610 909 461 c 1
 909 387 l 0
 907 218 815 158 735 158 c 0
 717 158 l 1
54 11 m 2
 54 -92 163 -180 285 -180 c 1
 285 -58 l 17
 209 -58 176 -19 176 46 c 0xf780
 176 93 195 157 254 157 c 0
 663 158 l 1
 663 280 l 0
 261 280 l 0
 124 280 54 164 54 83 c 0
 54 11 l 2
460 371 m 1
 460 480 l 0
 460 613 570 687 663 696 c 1
 663 573 l 1
 623 565 582 530 582 464 c 0
 582 371 l 1
 460 371 l 1
39 471 m 0xfb80
 40 496 l 2
 40 581 135 674 228 686 c 0
 341 700 423 588 423 499 c 2
 423 471 l 2
 423 410 341 307 259 307 c 1
 259 432 l 1
 281 440 301 467 301 499 c 0
 301 538 270 569 231 569 c 0
 192 569 161 538 161 499 c 0
 161 466 182 439 205 431 c 1
 205 307 l 1
 118 307 39 402 39 471 c 0xfb80
39 472 m 1
 39 482 l 0
 39 537 71 696 300 696 c 1
 457 696 582 612 582 408 c 0
 582 320 l 1
 460 320 l 17
 460 408 l 0
 460 543 351 582 303 582 c 0
 262 582 158 587 158 483 c 1
 39 472 l 1
717 -57 m 9
 717 -180 l 1
 839 -180 905 -87 905 -3 c 2
 905 118 l 1
 783 118 l 1
 783 -3 l 2
 783 -40 756 -57 717 -57 c 9
339 -58 m 1
 407 -58 460 -59 460 -4 c 2
 460 118 l 0
 582 118 l 0
 582 -4 l 2
 582 -47 613 -57 663 -57 c 1
 663 -180 l 1
 611 -180 540 -174 526 -130 c 1
 503 -180 415 -180 339 -180 c 1
 339 -58 l 1
EndSplineSet
EndChar

StartChar: tml_KI
Encoding: 77 -1 114
Width: 996
VWidth: 0
Flags: HW
LayerCount: 3
Fore
SplineSet
709 686 m 1
 709 808 l 1
 896 808 956 691 956 590 c 0
 956 77 l 1
 834 77 l 1
 834 587 l 2
 834 649 791 686 709 686 c 1
420 588 m 1
 543 588 l 0
 543 649 584 686 655 686 c 0
 655 686 l 0
 655 808 l 1
 655 808 l 0
 483 808 420 692 420 588 c 1
 420 588 l 1
EndSplineSet
Refer: 23 2965 N 1 0 0 1 -8 0 2
Colour: ff0000
EndChar

StartChar: tml_NgI
Encoding: 78 -1 115
Width: 1098
VWidth: 0
Flags: HW
LayerCount: 3
Fore
SplineSet
863 681 m 1
 863 803 l 1
 1010 803 1058 686 1058 585 c 0
 1058 68 l 1
 936 68 l 1
 936 582 l 2
 936 644 910 681 863 681 c 1
736 454 m 1
 736 583 l 0
 736 648 761 681 809 681 c 0
 809 681 l 0
 809 803 l 1
 809 803 l 1
 567 803 545 454 736 454 c 1
EndSplineSet
Refer: 12 2969 N 1 0 0 1 1 0 2
Colour: ff0000
EndChar

StartChar: tml_CI
Encoding: 79 -1 116
Width: 906
VWidth: 0
Flags: HW
LayerCount: 3
Fore
SplineSet
668 686 m 1
 668 808 l 1
 815 808 866 691 866 590 c 0
 866 68 l 1
 744 68 l 1
 744 587 l 2
 744 649 715 686 668 686 c 1
420 588 m 1
 543 588 l 0
 543 649 567 686 614 686 c 0
 614 686 l 0
 614 808 l 1
 614 808 l 0
 467 808 420 692 420 588 c 1
 420 588 l 1
EndSplineSet
Refer: 24 2970 N 1 0 0 1 1 0 2
Colour: ff0000
EndChar

StartChar: tml_JI
Encoding: 80 -1 117
Width: 1129
VWidth: 0
Flags: HW
LayerCount: 3
Fore
SplineSet
881 767 m 1
 881 889 l 1
 1032 889 1089 774 1089 671 c 0
 1089 68 l 1
 967 68 l 1
 967 668 l 2
 967 730 928 767 881 767 c 1
620 669 m 1
 620 669 l 1
 620 773 678 889 827 889 c 0
 827 889 l 1
 827 767 l 0
 827 767 l 0
 783 767 743 730 743 669 c 0
 620 669 l 1
619 -55 m 0
 682 -55 782 -60 782 -14 c 0
 782 7 758 15 718 16 c 1
 718 140 l 1xf010
 805 140 904 97 904 -16 c 0
 904 -151 774 -177 619 -177 c 0
 619 -55 l 0
347 -55 m 9
 347 -178 l 1
 463 -178 528 -108 529 -59 c 0xf050
 531 13 556 17 580 16 c 1
 664 16 l 1
 664 140 l 17
 598 140 l 1
 501 140 412 90 410 -1 c 0
 409 -50 387 -55 347 -55 c 9
679 686 m 1
 826 686 910 597 910 448 c 1
 910 387 l 0
 908 218 816 158 736 158 c 0
 718 158 l 1
 255 157 l 0
 196 157 177 93 177 46 c 0xf910
 177 -19 210 -58 286 -58 c 9
 286 -180 l 1
 164 -180 55 -92 55 11 c 2
 55 83 l 0
 55 164 125 280 262 280 c 0
 718 281 l 2
 793 281 786 349 786 409 c 2
 786 448 l 1
 786 533 740 561 679 561 c 1
 618 561 583 517 583 451 c 0
 583 371 l 1
 461 371 l 1
 461 468 l 0xf830
 461 601 560 686 679 686 c 1
40 471 m 0
 41 496 l 2
 41 581 136 674 229 686 c 0
 342 700 424 588 424 499 c 2
 424 471 l 2xf690
 424 410 342 307 260 307 c 1
 260 432 l 1
 282 440 302 467 302 499 c 0
 302 538 271 569 232 569 c 0
 193 569 162 538 162 499 c 0
 162 466 183 439 206 431 c 1
 206 307 l 1
 119 307 40 402 40 471 c 0
40 472 m 1
 40 482 l 0
 40 537 72 696 301 696 c 1
 446 696 583 612 583 408 c 0
 583 320 l 1
 461 320 l 17xf630
 461 408 l 0
 461 543 352 582 304 582 c 0
 263 582 159 587 159 483 c 1
 40 472 l 1
EndSplineSet
Colour: ff0000
EndChar

StartChar: tml_NyI
Encoding: 81 -1 118
Width: 1032
VWidth: 0
Flags: HW
LayerCount: 3
Fore
SplineSet
767.005859375 680 m 1
 767.005859375 802 l 1
 939.005859375 802 992.005859375 685 992.005859375 584 c 0
 992.005859375 71 l 1
 870.005859375 71 l 1
 870.005859375 581 l 2
 870.005859375 648 833.005859375 679 767.005859375 680 c 1
485.005859375 582 m 1
 485.005859375 582 l 1
 485.005859375 686 545.005859375 802 713.005859375 802 c 0
 713.005859375 802 l 1
 713.005859375 680 l 0
 713.005859375 680 l 0
 647.005859375 680 608.005859375 643 608.005859375 582 c 0
 485.005859375 582 l 1
EndSplineSet
Refer: 16 2974 N 1 0 0 1 1.00636 0 2
Colour: ff0000
EndChar

StartChar: tml_NnI
Encoding: 83 -1 119
Width: 1640
VWidth: 0
Flags: HW
LayerCount: 3
Fore
SplineSet
1430 681 m 1
 1430 803 l 1
 1583 803 1600 688 1600 585 c 0
 1600 59 l 1
 1478 59 l 1
 1478 582 l 2
 1478 644 1483 681 1430 681 c 1
1204 583 m 1
 1204 583 l 1
 1204 687 1225 803 1376 803 c 0
 1376 803 l 1
 1376 681 l 0
 1376 681 l 0
 1327 681 1327 644 1327 583 c 0
 1204 583 l 1
810 473 m 1
 810 595 l 1
 942 595 1153 586 1153 301 c 2
 1153 168 l 0
 1153 76 1104 1 1007 1 c 1
 1007 123 l 0
 1035 123 1030 157 1030 168 c 0
 1030 290 l 2
 1030 476 933 473 810 473 c 1
423 167 m 1
 423 287 l 2
 423 590 691 595 756 595 c 1
 756 472 l 1
 667 472 545 475 545 289 c 2
 545 168 l 0
 545 156 543 122 568 122 c 1
 568 0 l 0
 473 0 423 82 423 167 c 1
389 472 m 1
 389 595 l 1
 531 595 768 585 768 300 c 2
 768 167 l 0
 768 75 718 0 621 0 c 1
 621 122 l 0
 649 122 646 156 646 167 c 0
 646 289 l 2
 646 475 522 471 389 472 c 1
40 166 m 1
 40 81 90 -1 185 -1 c 0
 185 121 l 1
 160 121 162 155 162 167 c 0
 162 289 l 2
 162 475 255 472 335 472 c 1
 335 595 l 1
 266 595 40 595 40 289 c 2
 40 166 l 1
210 341 m 1
 207 375 238 431 295 436 c 1
 362 436 385 377 385 289 c 2
 385 166 l 0
 385 74 336 -1 239 -1 c 1
 239 121 l 0
 267 121 263 155 263 166 c 0
 263 289 l 2
 263 341 231 341 210 341 c 1
1140 473 m 1
 1052 473 930 476 930 290 c 2
 930 169 l 0
 930 157 928 123 953 123 c 1
 953 1 l 0
 858 1 808 83 808 168 c 1
 808 288 l 2
 808 591 1076 595 1140 595 c 1x2fe0
 1423 595 l 1
 1423 472 l 1
 1140 473 l 1
1204 1 m 1x5fe0
 1204 563 l 1
 1326 563 l 1
 1326 1 l 1
 1204 1 l 1x5fe0
EndSplineSet
Colour: ff0000
EndChar

StartChar: tml_TI
Encoding: 84 -1 120
Width: 949
VWidth: 0
Flags: HW
LayerCount: 3
Fore
SplineSet
685 690 m 1
 685 812 l 1
 860 812 909 697 909 594 c 0
 909 68 l 1
 787 68 l 1
 787 591 l 2
 787 650 759 690 685 690 c 1
420 592 m 1
 420 592 l 1
 420 696 458 812 631 812 c 0
 631 812 l 1
 631 690 l 0
 631 690 l 0
 559 690 543 653 543 592 c 0
 420 592 l 1
EndSplineSet
Refer: 25 2980 N 1 0 0 1 1 0 2
Colour: ff0000
EndChar

StartChar: tml_NI
Encoding: 85 -1 121
Width: 861
VWidth: 0
Flags: HW
LayerCount: 3
Fore
SplineSet
591 690 m 1
 591 812 l 1
 766 812 821 697 821 594 c 0
 821 68 l 1
 699 68 l 1
 699 591 l 2
 699 653 665 690 591 690 c 1
314 592 m 1
 314 592 l 1
 314 696 364 812 537 812 c 0
 537 812 l 1
 537 690 l 0
 537 690 l 0
 465 690 437 653 437 592 c 0
 314 592 l 1
EndSplineSet
Refer: 10 2984 N 1 0 0 1 1 0 2
Colour: ff0000
EndChar

StartChar: tml_NnnI
Encoding: 86 -1 122
Width: 1255
VWidth: 0
Flags: HW
LayerCount: 3
Fore
SplineSet
1045 679 m 1
 1045 801 l 1
 1198 801 1215 686 1215 583 c 0
 1215 57 l 1
 1093 57 l 1
 1093 580 l 2
 1093 642 1098 679 1045 679 c 1
819 581 m 1
 819 581 l 1
 819 685 840 801 991 801 c 0
 991 801 l 1
 991 679 l 0
 991 679 l 0
 942 679 942 642 942 581 c 0
 819 581 l 1
EndSplineSet
Refer: 17 2985 N 1 0 0 1 0 0 2
Colour: ff0000
EndChar

StartChar: tml_PI
Encoding: 87 -1 123
Width: 716
VWidth: 0
Flags: HW
LayerCount: 3
Fore
SplineSet
494 688 m 1
 494 810 l 1
 641 810 676 693 676 592 c 0
 676 69 l 1
 554 69 l 1
 554 589 l 2
 554 651 541 688 494 688 c 1
379 461 m 1
 192 461 209 810 440 810 c 1
 440 810 l 1
 440 688 l 0
 440 688 l 0
 389 688 379 642 379 590 c 0
 379 461 l 1
EndSplineSet
Refer: 6 2986 N 1 0 0 1 1 0 2
Colour: ff0000
EndChar

StartChar: tml_MI
Encoding: 88 -1 124
Width: 844
VWidth: 0
Flags: HW
LayerCount: 3
Fore
SplineSet
608 692.2890625 m 1
 608 814.2890625 l 1
 759 814.2890625 804 699.2890625 804 596.2890625 c 0
 804 68.2890625 l 1
 682 68.2890625 l 1
 682 593.2890625 l 2
 682 655.2890625 661 692.2890625 608 692.2890625 c 1
363 594.2890625 m 1
 363 594.2890625 l 1
 363 698.2890625 405 814.2890625 554 814.2890625 c 0
 554 814.2890625 l 1
 554 692.2890625 l 0
 554 692.2890625 l 0
 503 692.2890625 486 655.2890625 486 594.2890625 c 0
 363 594.2890625 l 1
406 483 m 1
 372 483 366 459 366 434 c 2
 366 122 l 1
 244 122 l 0x3e
 244 434 l 0
 243 571 325 605 406 605 c 1
 460 605 l 1
 548 605 625 564 625 434 c 0
 625 197 l 0
 625 51 541 0 460 0 c 0
 460 123 l 1x9e
 500 123 503 157 503 179 c 2
 503 434 l 0
 503 457 501 483 460 483 c 1
 406 483 l 1
40 107 m 1x5e
 40 595 l 1
 162 595 l 1
 162 107 l 1
 40 107 l 1x5e
40 0 m 1x9e
 40 123 l 1x5e
 406 123 l 1
 406 0 l 1x9e
 40 0 l 1x9e
EndSplineSet
Colour: ff0000
EndChar

StartChar: tml_YI
Encoding: 89 -1 125
Width: 949
VWidth: 0
Flags: HW
LayerCount: 3
Fore
SplineSet
724 688 m 1
 724 810 l 1
 871 810 909 693 909 592 c 0
 909 69 l 1
 787 69 l 1
 787 589 l 2
 787 651 771 688 724 688 c 1
612 461 m 1
 425 461 439 810 670 810 c 1
 670 810 l 1
 670 688 l 0
 670 688 l 0
 618 688 612 642 612 590 c 0
 612 461 l 1
551 0 m 257
 551 119 l 257xf0
 557 119 l 258
 578 119 609 123 609 145 c 257xe8
 609 595 l 257
 732 595 l 257xe8
 732 0 l 1
 551 0 l 257
40 140 m 258
 40 595 l 257
 162 595 l 257
 162 145 l 257
 162 134 167 119 190 119 c 258
 196 119 l 257
 196 0 l 257
 190 0 l 258
 93 0 40 96 40 140 c 258
250 0 m 257
 250 119 l 257
 256 119 l 258
 278 119 320 121 320 145 c 257
 320 595 l 257
 442 595 l 257
 442 145 l 258
 442 121 470 119 492 119 c 258
 498 119 l 257
 498 0 l 257
 320 0 l 1
 315 33 l 257
 310 12 289 0 256 0 c 258
 250 0 l 257
EndSplineSet
Colour: ff0000
EndChar

StartChar: tml_RI
Encoding: 90 -1 126
Width: 776
VWidth: 0
Flags: HW
LayerCount: 3
Fore
SplineSet
556 690 m 5
 556 812 l 5
 707 812 736 697 736 594 c 4
 736 68 l 5
 614 68 l 5
 614 591 l 6
 614 653 603 690 556 690 c 5
  Spiro
    556 690 v
    556 812 v
    669.698 778.433 o
    722.919 696.199 o
    736 594 ]
    736 68 v
    614 68 v
    614 591 ]
    609.418 644.178 o
    591.9 678.134 o
    0 0 z
  EndSpiro
321 592 m 5
 321 592 l 5
 321 696 353 812 502 812 c 4
 502 812 l 5
 502 690 l 4
 502 690 l 4
 455 690 444 653 444 592 c 4
 321 592 l 5
  Spiro
    321 592 v
    321 592 v
    334.784 695.161 o
    388.932 778.137 o
    502 812 ]
    502 812 v
    502 690 o
    502 690 o
    467.433 678.171 o
    449.248 644.475 o
    444 592 ]
    0 0 z
  EndSpiro
EndSplineSet
Refer: 8 2992 N 1 0 0 1 1 0 2
Colour: ff0000
EndChar

StartChar: tml_RrI
Encoding: 91 -1 127
Width: 910
VWidth: 0
Flags: HW
LayerCount: 3
Fore
SplineSet
685 693.2890625 m 1
 685 815.2890625 l 1
 836 815.2890625 870 700.2890625 870 597.2890625 c 0
 870 68.2890625 l 1
 748 68.2890625 l 1
 748 594.2890625 l 2
 748 656.2890625 738 693.2890625 685 693.2890625 c 1
449 595.2890625 m 1
 572 595.2890625 l 0
 572 656.2890625 584 693.2890625 631 693.2890625 c 0
 631 693.2890625 l 0
 631 815.2890625 l 1
 631 815.2890625 l 0
 482 815.2890625 449 699.2890625 449 595.2890625 c 1
 449 595.2890625 l 1
497 608 m 257
 458 608 405 599 377 576 c 257
 353 597 323 606 277 606 c 257
 277 483 l 257
 303 483 315 472 315 458 c 258
 317 1 l 257
 439 2 l 257
 437 451 l 258
 436.890625 476 479 484 497 484 c 257
 519 484 570 474 570 452 c 258
 570 47 l 0
 570 16 571 -33 473 -33 c 0
 234 -33 l 0
 92 -33 40 -114 40 -256 c 1
 162 -256 l 1
 162 -176 191 -155 238 -155 c 2
 499 -155 l 0
 638 -153 692 -41 692 64 c 0xf6
 692 475 l 258
 692 530 642 608 497 608 c 257
71 0 m 257
 71 479 l 0xee
 71 529 112 606 224 606 c 257
 224 483 l 257
 199 483 193 471 193 458 c 258
 195 1 l 257
 71 0 l 257
EndSplineSet
Colour: ff0000
EndChar

StartChar: tml_LI
Encoding: 92 -1 128
Width: 1086
VWidth: 0
Flags: HW
LayerCount: 3
Fore
SplineSet
851.005859375 688 m 1
 851.005859375 810 l 1
 998.005859375 810 1046.00585938 693 1046.00585938 592 c 0
 1046.00585938 75 l 1
 924.005859375 75 l 1
 924.005859375 589 l 2
 924.005859375 651 898.005859375 688 851.005859375 688 c 1
724.005859375 461 m 1
 724.005859375 590 l 0
 724.005859375 655 749.005859375 688 797.005859375 688 c 0
 797.005859375 688 l 0
 797.005859375 810 l 1
 797.005859375 810 l 1
 555.005859375 810 533.005859375 461 724.005859375 461 c 1
EndSplineSet
Refer: 15 2994 N 1 0 0 1 1.00611 0 2
Colour: ff0000
EndChar

StartChar: tml_LlI
Encoding: 93 -1 129
Width: 1154
VWidth: 0
Flags: HW
LayerCount: 3
Fore
SplineSet
950.005859375 676 m 1
 950.005859375 798 l 1
 1101.00585938 798 1114.00585938 683 1114.00585938 580 c 0
 1114.00585938 67 l 1
 992.005859375 67 l 1
 992.005859375 577 l 2
 992.005859375 639 997.005859375 676 950.005859375 676 c 1
733.005859375 578 m 1
 856.005859375 578 l 0
 856.005859375 639 852.005859375 676 896.005859375 676 c 0
 896.005859375 676 l 0
 896.005859375 798 l 1
 896.005859375 798 l 0
 747.005859375 798 733.005859375 682 733.005859375 578 c 1
 733.005859375 578 l 1
40.005859375 226 m 1xe6
 40.005859375 326 l 2
 40.005859375 427 119.005859375 605 298.005859375 605 c 1xf2
 298.005859375 484 l 1
 233.005859375 484 171.005859375 427 171.005859375 327 c 0xea
 171.005859375 270 46.005859375 256 40.005859375 226 c 1xe6
266.005859375 0 m 1
 266.005859375 122 l 0
 307.005859375 122 313.005859375 150 312.005859375 181 c 0
 311.005859375 208 308.005859375 237 266.005859375 237 c 1
 266.005859375 359 l 0
 362.005859375 359 435.005859375 276 435.005859375 224 c 0
 435.005859375 152 l 0
 436.005859375 89 375.005859375 0 266.005859375 0 c 1
352.005859375 484 m 1
 421.005859375 484 472.005859375 417 473.005859375 354 c 1
 474.005859375 0 l 1
 600.005859375 0 l 1
 596.005859375 355 l 1
 596.005859375 454 514.005859375 605 352.005859375 605 c 1
 352.005859375 484 l 1
40.005859375 151 m 0
 40.005859375 193 41.005859375 140 40.005859375 220 c 0xe6
 39.005859375 324 161.005859375 359 211.005859375 359 c 1xf2
 211.005859375 237 l 0xf2
 182.005859375 237 164.005859375 210 164.005859375 181 c 0xe6
 164.005859375 149 178.005859375 122 211.005859375 122 c 1
 211.005859375 0 l 0xf2
 109.005859375 0 40.005859375 91 40.005859375 151 c 0
741.005859375 0 m 1
 863.005859375 0 l 1
 863.005859375 574 l 1
 741.005859375 574 l 1
 741.005859375 0 l 1
710.005859375 482 m 1
 937.005859375 482 l 1
 937.005859375 605 l 1
 710.005859375 605 l 1
 710.005859375 482 l 1
473.005859375 325 m 1
 596.005859375 326 l 1
 596.005859375 454 611.005859375 482 659.005859375 482 c 1
 659.005859375 605 l 1
 486.005859375 605 473.005859375 440 473.005859375 325 c 1
EndSplineSet
Colour: ff0000
EndChar

StartChar: tml_LllI
Encoding: 94 -1 130
Width: 844
VWidth: 0
Flags: HW
LayerCount: 3
Fore
SplineSet
608 692.2890625 m 5
 608 814.2890625 l 5
 759 814.2890625 804 699.2890625 804 596.2890625 c 4
 804 68.2890625 l 5
 682 68.2890625 l 5
 682 593.2890625 l 6
 682 655.2890625 661 692.2890625 608 692.2890625 c 5
363 594.2890625 m 5
 363 594.2890625 l 5
 363 698.2890625 405 814.2890625 554 814.2890625 c 4
 554 814.2890625 l 5
 554 692.2890625 l 4
 554 692.2890625 l 4
 503 692.2890625 486 655.2890625 486 594.2890625 c 4
 363 594.2890625 l 5
406 483 m 1
 372 483 366 459 366 434 c 2
 366 122 l 1
 244 122 l 0x3e
 244 434 l 0
 243 571 325 605 406 605 c 1
 460 605 l 1
 548 605 625 564 625 434 c 0
 625 197 l 0
 625 51 541 0 460 0 c 0
 460 123 l 1x9e
 500 123 503 157 503 179 c 2
 503 434 l 0
 503 457 501 483 460 483 c 1
 406 483 l 1
40 107 m 1x5e
 40 595 l 1
 162 595 l 1
 162 107 l 1
 40 107 l 1x5e
40 0 m 1x9e
 40 123 l 1x5e
 406 123 l 1
 406 0 l 1x9e
 40 0 l 1x9e
54 -67 m 1
 54 -191 184 -260 328 -165 c 1
 282 -160 236 -119 232 -87 c 1
 214 -103 177 -91 176 -67 c 1x8f
 54 -67 l 1
244 1 m 1
 366 1 l 1
 366 -29 402 -22 560 -22 c 1
 560 -146 l 0
 430 -145 l 1
 266 -146 244 -60 244 1 c 1
EndSplineSet
Colour: ff0000
EndChar

StartChar: tml_VI
Encoding: 95 -1 131
Width: 1053
VWidth: 0
Flags: HW
LayerCount: 3
Fore
SplineSet
830.138671875 692 m 1
 830.138671875 814 l 1
 977.138671875 814 1013.13867188 697 1013.13867188 596 c 0
 1013.13867188 69 l 1
 891.138671875 69 l 1
 891.138671875 593 l 2
 891.138671875 655 877.138671875 692 830.138671875 692 c 1
714.138671875 465 m 5
 523.138671875 465 539.138671875 814 776.138671875 814 c 5
 776.138671875 814 l 5
 776.138671875 692 l 4
 776.138671875 692 l 4
 731.138671875 692 714.138671875 659 714.138671875 594 c 4
 714.138671875 465 l 5
EndSplineSet
Refer: 3 2997 N 1 0 0 1 0.00606137 0 2
Colour: ff0000
EndChar

StartChar: tml_SsI
Encoding: 96 -1 132
Width: 1430
VWidth: 0
Flags: HW
LayerCount: 3
Fore
SplineSet
1135.00585938 725 m 5
 1135.00585938 847 l 5
 1342.00585938 847 1390.00585938 709 1390.00585938 606 c 4
 1390.00585938 67 l 5
 1268.00585938 67 l 5
 1268.00585938 606 l 6
 1268.00585938 672 1238.00585938 725 1135.00585938 725 c 5
833.005859375 606 m 5
 956.005859375 606 l 4
 956.005859375 667 980.005859375 725 1081.00585938 725 c 4
 1081.00585938 725 l 4
 1081.00585938 847 l 5
 1081.00585938 847 l 4
 885.005859375 847 833.005859375 710 833.005859375 606 c 5
 833.005859375 606 l 5
267.005859375 0 m 1xe780
 267.005859375 122 l 1
 299.005859375 123 314.005859375 142 314.005859375 180 c 0
 314.005859375 218 298.005859375 237 267.005859375 237 c 1
 267.005859375 359 l 0
 363.005859375 359 436.005859375 276 436.005859375 224 c 0
 436.005859375 152 l 0
 437.005859375 89 376.005859375 0 267.005859375 0 c 1xe780
40.005859375 151 m 0
 40.005859375 220 l 0xef80
 39.005859375 324 162.005859375 359 212.005859375 359 c 1xf780
 212.005859375 237 l 0xf780
 183.005859375 237 165.005859375 218 165.005859375 181 c 0xef80
 165.005859375 147 179.005859375 122 212.005859375 122 c 1
 212.005859375 0 l 0xf780
 110.005859375 0 40.005859375 91 40.005859375 151 c 0
40.005859375 226 m 1xef80
 40.005859375 305 l 1
 40.005859375 433 91.005859375 605 301.005859375 605 c 1
 301.005859375 483 l 1
 237.005859375 483 178.005859375 439 176.005859375 354 c 0
 40.005859375 226 l 1xef80
351.005859375 483 m 1
 428.005859375 483 486.005859375 424 487.005859375 354 c 1
 487.005859375 146 l 0
 487.005859375 127 461.005859375 124 454.005859375 123 c 1
 454.005859375 0 l 1
 850.005859375 0 l 1
 850.005859375 123 l 1
 608.005859375 123 l 1
 608.005859375 355 l 1
 607.005859375 466 520.005859375 605 351.005859375 605 c 1
 351.005859375 483 l 1
962.005859375 123 m 1
 962.005859375 -178 l 1
 1084.00585938 -178 l 1
 1084.00585938 123 l 1
 962.005859375 123 l 1
903.005859375 158 m 1
 1220.00585938 158 l 1
 1220.00585938 280 l 0
 903.005859375 280 l 9
 903.005859375 158 l 1
877.005859375 485 m 1
 933.005859375 485 962.005859375 472 962.005859375 413 c 2
 962.005859375 158 l 1
 1084.00585938 158 l 1
 1084.00585938 413 l 2
 1084.00585938 561 993.005859375 624 877.005859375 624 c 1
 765.005859375 624 669.005859375 557 669.005859375 433 c 0
 669.005859375 334 l 2
 669.005859375 191 746.005859375 158 850.005859375 158 c 1
 850.005859375 279 l 17
 806.005859375 279 792.005859375 287 792.005859375 340 c 0
 792.005859375 418 l 0
 792.005859375 472 822.005859375 485 877.005859375 485 c 1
1120.00585938 0 m 1
 1220.00585938 0 l 1
 1220.00585938 280 l 1
 1120.00585938 280 l 1
 1120.00585938 0 l 1
903.005859375 1 m 1
 1220.00585938 0 l 1
 1220.00585938 123 l 1
 903.005859375 123 l 1
 903.005859375 1 l 1
EndSplineSet
Colour: ff0000
EndChar

StartChar: tml_SI
Encoding: 97 -1 133
Width: 1360
VWidth: 0
Flags: HW
LayerCount: 3
Fore
SplineSet
1114.99609375 699.65625 m 1
 1114.99609375 821.65625 l 1
 1261.99609375 821.65625 1320.99609375 704.65625 1320.99609375 603.65625 c 0
 1320.99609375 66.65625 l 1
 1198.99609375 66.65625 l 1
 1198.99609375 600.65625 l 2
 1198.99609375 662.65625 1161.99609375 699.65625 1114.99609375 699.65625 c 1
979.99609375 472.65625 m 1
 979.99609375 601.65625 l 0
 979.99609375 666.65625 1012.99609375 699.65625 1060.99609375 699.65625 c 0
 1060.99609375 699.65625 l 0
 1060.99609375 821.65625 l 1
 1060.99609375 821.65625 l 1
 815.99609375 821.65625 788.99609375 472.65625 979.99609375 472.65625 c 1
40.99609375 226 m 1xe780
 40.99609375 326 l 2
 40.99609375 427 119.99609375 605 298.99609375 605 c 1xf380
 298.99609375 484 l 1
 233.99609375 484 171.99609375 427 171.99609375 327 c 0xeb80
 171.99609375 270 46.99609375 256 40.99609375 226 c 1xe780
266.99609375 0 m 1
 266.99609375 122 l 0
 307.99609375 122 313.99609375 150 312.99609375 181 c 0
 311.99609375 208 308.99609375 237 266.99609375 237 c 1
 266.99609375 359 l 0
 362.99609375 359 435.99609375 276 435.99609375 224 c 0
 435.99609375 152 l 0
 436.99609375 89 375.99609375 0 266.99609375 0 c 1
352.99609375 484 m 1
 421.99609375 484 472.99609375 417 473.99609375 354 c 1
 474.99609375 0 l 1
 600.99609375 0 l 1
 596.99609375 355 l 1
 596.99609375 456 514.99609375 605 352.99609375 605 c 1
 352.99609375 484 l 1
40.99609375 151 m 0
 40.99609375 193 41.99609375 140 40.99609375 220 c 0xe780
 39.99609375 324 161.99609375 359 211.99609375 359 c 1xf380
 211.99609375 237 l 0xf380
 182.99609375 237 164.99609375 210 164.99609375 181 c 0xe780
 164.99609375 149 178.99609375 122 211.99609375 122 c 1
 211.99609375 0 l 0xf380
 109.99609375 0 40.99609375 91 40.99609375 151 c 0
473.99609375 325 m 1
 596.99609375 326 l 1
 596.99609375 470 603.99609375 482 652.99609375 482 c 1
 652.99609375 605 l 1
 479.99609375 605 473.99609375 440 473.99609375 325 c 1
706.99609375 483 m 1
 750.99609375 483 760.99609375 469 761.99609375 402 c 10
 761.99609375 168 l 18
 761.99609375 96.376953125 792.073242188 0 923.99609375 0 c 1
 923.99609375 124 l 1
 896.99609375 124 883.99609375 138 883.99609375 168 c 2
 883.99609375 402 l 0
 882.99609375 501 869.99609375 606 709.99609375 606 c 2
 706.99609375 606 l 1
 706.99609375 483 l 1
970.99609375 473 m 1
 1008.99609375 473 1020.99609375 460 1020.99609375 424 c 1
 1020.99609375 168 l 17
 1020.99609375 141 1003.99609375 124 977.99609375 124 c 1
 977.99609375 0 l 1
 1102.953125 0 1143.99609375 90.6142578125 1143.99609375 168 c 2
 1143.99609375 426 l 2
 1143.99609375 538.432617188 1097.90234375 596 970.99609375 596 c 1
 970.99609375 473 l 1
EndSplineSet
Colour: ff0000
EndChar

StartChar: tml_HI
Encoding: 98 -1 134
Width: 1550
VWidth: 0
Flags: HW
LayerCount: 3
Fore
SplineSet
1319.00585938 694 m 1
 1319.00585938 816 l 1
 1470.00585938 816 1510.00585938 701 1510.00585938 598 c 0
 1510.00585938 69 l 1
 1388.00585938 69 l 1
 1388.00585938 595 l 2
 1388.00585938 657 1374.00585938 694 1319.00585938 694 c 1
1081.00585938 596 m 1
 1204.00585938 596 l 0
 1204.00585938 657 1218.00585938 694 1265.00585938 694 c 0
 1265.00585938 694 l 0
 1265.00585938 816 l 1
 1265.00585938 816 l 0
 1116.00585938 816 1081.00585938 700 1081.00585938 596 c 1
 1081.00585938 596 l 1
1141.00585938 604 m 257
 1102.00585938 604 1045.00585938 597 1017.00585938 574 c 257
 993.005859375 595 963.005859375 604 917.005859375 604 c 257
 917.005859375 481 l 257
 943.005859375 481 956.005859375 471 956.005859375 457 c 258
 956.005859375 -1 l 257
 1079.00585938 0 l 257
 1076.00585938 445 l 258
 1076.00585938 467 1104.00585938 482 1141.00585938 482 c 257
 1183.00585938 482 1211.00585938 467 1211.00585938 446 c 258
 1211.00585938 70 l 2xe1f8
 1211.00585938 39 1211.00585938 -33 1113.00585938 -33 c 0
 1024.00585938 -33 391.005859375 -33 299.005859375 -33 c 0
 143.399414062 -33 93.005859375 -102.974609375 93.005859375 -256 c 1
 215.005859375 -256 l 1
 215.005859375 -182.724609375 230.423828125 -155 273.005859375 -155 c 2
 1140.00585938 -155 l 0
 1270.00585938 -153 1333.00585938 -44 1333.00585938 70 c 2
 1333.00585938 473 l 258
 1332.00585938 528 1283.00585938 604 1141.00585938 604 c 257
710.005859375 0 m 257
 710.005859375 477 l 0
 710.005859375 527 751.005859375 604 863.005859375 604 c 257
 863.005859375 481 l 257xe8f8
 838.005859375 481 834.005859375 469 834.005859375 456 c 258
 834.005859375 0 l 257
 710.005859375 0 l 257
267.005859375 0 m 1
 267.005859375 122 l 0
 308.005859375 122 314.005859375 150 313.005859375 181 c 0
 312.005859375 208 309.005859375 237 267.005859375 237 c 1
 267.005859375 359 l 0
 363.005859375 359 436.005859375 276 436.005859375 224 c 0
 436.005859375 152 l 0
 437.005859375 89 376.005859375 0 267.005859375 0 c 1
40.005859375 151 m 0
 40.005859375 193 41.005859375 140 40.005859375 220 c 0xe2f8
 39.005859375 324 162.005859375 359 212.005859375 359 c 1xe4f8
 212.005859375 237 l 0xe4f8
 183.005859375 237 165.005859375 210 165.005859375 181 c 0xe2f8
 165.005859375 149 179.005859375 122 212.005859375 122 c 1
 212.005859375 0 l 0xe4f8
 110.005859375 0 40.005859375 91 40.005859375 151 c 0
40.005859375 226 m 1xf2f8
 40.005859375 282 l 2
 40.005859375 374.994140625 70.01171875 596 298.005859375 596 c 1xf4f8
 298.005859375 474 l 1
 232.89453125 474 183.231445312 432.383789062 176.005859375 356 c 0
 171.005859375 299 46.005859375 256 40.005859375 226 c 1xf2f8
352.005859375 474 m 1
 428.928710938 474 486.98046875 423.732421875 488.005859375 354 c 1
 488.005859375 146 l 0
 488.005859375 127 462.005859375 124 455.005859375 123 c 1
 455.005859375 0 l 1
 656.005859375 0 l 1
 656.005859375 123 l 1
 609.005859375 123 l 1
 609.005859375 355 l 1
 607.958984375 481.998046875 521.182617188 596 352.005859375 596 c 1
 352.005859375 474 l 1
EndSplineSet
Colour: ff0000
EndChar

StartChar: tml_KIi
Encoding: 99 -1 135
Width: 829
VWidth: 0
Flags: HW
LayerCount: 3
Fore
SplineSet
419 474.65625 m 1
 419 598 l 0
 345 757 416.393554688 945 619 945 c 0
 847 945 838.690429688 632 640 632 c 0
 595 632 548 670 538 691 c 1
 609 774 l 0
 609 758 618 741 643 741 c 0
 666 741 677 760 677 781 c 0
 677 796 666 830 609 830 c 1
 537.676757812 829.5703125 468 755 543 596.7265625 c 0
 544 474.65625 l 1
 419 474.65625 l 1
EndSplineSet
Refer: 23 2965 N 1 0 0 1 -8 0 2
Colour: ff0000
EndChar

StartChar: tml_NgIi
Encoding: 100 -1 136
Width: 1092
VWidth: 0
Flags: HW
LayerCount: 3
Fore
SplineSet
862 826 m 1
 711 826 695 629 842 595 c 1
 735 502 l 1
 542 610 594 950 855 950 c 1
 1115 950 1107.69042969 618 898 618 c 0
 853 618 803 656 791 679 c 1
 867 770 l 0
 867 754 876 737 901 737 c 0
 924 737 935 756 935 777 c 0
 935 792 919 826 862 826 c 1
EndSplineSet
Refer: 12 2969 N 1 0 0 1 1 0 2
Colour: ff0000
EndChar

StartChar: tml_CIi
Encoding: 101 -1 137
Width: 829
VWidth: 0
Flags: HW
LayerCount: 3
Fore
SplineSet
419 472.65625 m 1
 419 596 l 0
 345 755 416.393554688 943 619 943 c 0
 847 943 838.690429688 630 640 630 c 0
 595 630 548 668 538 689 c 1
 609 772 l 0
 609 756 618 739 643 739 c 0
 666 739 677 758 677 779 c 0
 677 794 666 828 609 828 c 1
 537.676757812 827.5703125 468 753 543 594.7265625 c 0
 543 472.65625 l 1
 419 472.65625 l 1
EndSplineSet
Refer: 24 2970 N 1 0 0 1 1 0 2
Colour: ff0000
EndChar

StartChar: tml_JIi
Encoding: 102 -1 138
Width: 1033
VWidth: 0
Flags: HW
LayerCount: 3
Fore
SplineSet
623 597.65625 m 1
 623 677 l 0
 549 836 620.393554688 1024 823 1024 c 0
 1051 1024 1042.69042969 711 844 711 c 0
 799 711 752 749 742 770 c 1
 813 853 l 0
 813 837 822 820 847 820 c 0
 870 820 881 839 881 860 c 0
 881 875 870 909 813 909 c 1
 741.676757812 908.5703125 672 834 747 675.7265625 c 0
 747 597.65625 l 1
 623 597.65625 l 1
619 -55 m 0
 682 -55 782 -60 782 -14 c 0
 782 7 758 15 718 16 c 1
 718 140 l 1xf010
 805 140 904 97 904 -16 c 0
 904 -151 774 -177 619 -177 c 0
 619 -55 l 0
347 -55 m 9
 347 -178 l 1
 463 -178 528 -108 529 -59 c 0xf050
 531 13 556 17 580 16 c 1
 664 16 l 1
 664 140 l 17
 598 140 l 1
 501 140 412 90 410 -1 c 0
 409 -50 387 -55 347 -55 c 9
679 686 m 1
 826 686 910 597 910 448 c 1
 910 387 l 0
 908 218 816 158 736 158 c 0
 718 158 l 1
 255 157 l 0
 196 157 177 93 177 46 c 0xf910
 177 -19 210 -58 286 -58 c 9
 286 -180 l 1
 164 -180 55 -92 55 11 c 2
 55 83 l 0
 55 164 125 280 262 280 c 0
 718 281 l 2
 793 281 786 349 786 409 c 2
 786 448 l 1
 786 533 740 561 679 561 c 1
 618 561 583 517 583 451 c 0
 583 371 l 1
 461 371 l 1
 461 468 l 0xf830
 461 601 560 686 679 686 c 1
40 471 m 0
 41 496 l 2
 41 581 136 674 229 686 c 0
 342 700 424 588 424 499 c 2
 424 471 l 2xf690
 424 410 342 307 260 307 c 1
 260 432 l 1
 282 440 302 467 302 499 c 0
 302 538 271 569 232 569 c 0
 193 569 162 538 162 499 c 0
 162 466 183 439 206 431 c 1
 206 307 l 1
 119 307 40 402 40 471 c 0
40 472 m 1
 40 482 l 0
 40 537 72 696 301 696 c 1
 446 696 583 612 583 408 c 0
 583 320 l 1
 461 320 l 17xf630
 461 408 l 0
 461 543 352 582 304 582 c 0
 263 582 159 587 159 483 c 1
 40 472 l 1
EndSplineSet
Colour: ff0000
EndChar

StartChar: tml_NyIi
Encoding: 103 -1 139
Width: 892
VWidth: 0
Flags: HW
LayerCount: 3
Fore
SplineSet
482.005859375 472.65625 m 1
 482.005859375 596 l 0
 408.005859375 755 479.399414062 943 682.005859375 943 c 0
 910.005859375 943 901.696289062 630 703.005859375 630 c 0
 658.005859375 630 611.005859375 668 601.005859375 689 c 1
 672.005859375 772 l 0
 672.005859375 756 681.005859375 739 706.005859375 739 c 0
 729.005859375 739 740.005859375 758 740.005859375 779 c 0
 740.005859375 794 729.005859375 828 672.005859375 828 c 1
 600.682617188 827.5703125 531.005859375 753 606.005859375 594.7265625 c 0
 607.005859375 472.65625 l 1
 482.005859375 472.65625 l 1
EndSplineSet
Refer: 16 2974 N 1 0 0 1 1.00611 0 2
Colour: ff0000
EndChar

StartChar: tml_NnIi
Encoding: 105 -1 140
Width: 0
VWidth: 0
Flags: HW
LayerCount: 3
Fore
SplineSet
1203 476.88671875 m 1
 1203 596.23046875 l 0
 1129 755.23046875 1200.39355469 943.23046875 1403 943.23046875 c 0
 1631 943.23046875 1622.69042969 630.23046875 1424 630.23046875 c 0
 1379 630.23046875 1332 668.23046875 1322 689.23046875 c 1
 1393 772.23046875 l 0
 1393 756.23046875 1402 739.23046875 1427 739.23046875 c 0
 1450 739.23046875 1461 758.23046875 1461 779.23046875 c 0
 1461 794.23046875 1450 828.23046875 1393 828.23046875 c 1
 1321.67675781 827.80078125 1252 753.23046875 1327 594.95703125 c 0
 1327 476.88671875 l 1
 1203 476.88671875 l 1
810 473 m 1
 810 595 l 1
 942 595 1153 586 1153 301 c 2
 1153 168 l 0
 1153 76 1104 1 1007 1 c 1
 1007 123 l 0
 1035 123 1030 157 1030 168 c 0
 1030 290 l 2
 1030 476 933 473 810 473 c 1
423 167 m 1
 423 287 l 2
 423 590 691 595 756 595 c 1
 756 472 l 1
 667 472 545 475 545 289 c 2
 545 168 l 0
 545 156 543 122 568 122 c 1
 568 0 l 0
 473 0 423 82 423 167 c 1
389 472 m 1
 389 595 l 1
 531 595 768 585 768 300 c 2
 768 167 l 0
 768 75 718 0 621 0 c 1
 621 122 l 0
 649 122 646 156 646 167 c 0
 646 289 l 2
 646 475 522 471 389 472 c 1
40 166 m 1
 40 81 90 -1 185 -1 c 0
 185 121 l 1
 160 121 162 155 162 167 c 0
 162 289 l 2
 162 475 255 472 335 472 c 1
 335 595 l 1
 266 595 40 595 40 289 c 2
 40 166 l 1
210 341 m 1
 207 375 238 431 295 436 c 1
 362 436 385 377 385 289 c 2
 385 166 l 0
 385 74 336 -1 239 -1 c 1
 239 121 l 0
 267 121 263 155 263 166 c 0
 263 289 l 2
 263 341 231 341 210 341 c 1
1140 473 m 1
 1052 473 930 476 930 290 c 2
 930 169 l 0
 930 157 928 123 953 123 c 1
 953 1 l 0
 858 1 808 83 808 168 c 1
 808 288 l 2
 808 591 1076 595 1140 595 c 1x2fe0
 1423 595 l 1
 1423 472 l 1
 1140 473 l 1
1204 1 m 1x5fe0
 1204 563 l 1
 1326 563 l 1
 1326 1 l 1
 1204 1 l 1x5fe0
810 473 m 1
 810 595 l 1
 942 595 1153 586 1153 301 c 2
 1153 168 l 0
 1153 76 1104 1 1007 1 c 1
 1007 123 l 0
 1035 123 1030 157 1030 168 c 0
 1030 290 l 2
 1030 476 933 473 810 473 c 1
423 167 m 1
 423 287 l 2
 423 590 691 595 756 595 c 1
 756 472 l 1
 667 472 545 475 545 289 c 2
 545 168 l 0
 545 156 543 122 568 122 c 1
 568 0 l 0
 473 0 423 82 423 167 c 1
389 472 m 1
 389 595 l 1
 531 595 768 585 768 300 c 2
 768 167 l 0
 768 75 718 0 621 0 c 1
 621 122 l 0
 649 122 646 156 646 167 c 0
 646 289 l 2
 646 475 522 471 389 472 c 1
40 166 m 1
 40 81 90 -1 185 -1 c 0
 185 121 l 1
 160 121 162 155 162 167 c 0
 162 289 l 2
 162 475 255 472 335 472 c 1
 335 595 l 1
 266 595 40 595 40 289 c 2
 40 166 l 1
210 341 m 1
 207 375 238 431 295 436 c 1
 362 436 385 377 385 289 c 2
 385 166 l 0
 385 74 336 -1 239 -1 c 1
 239 121 l 0
 267 121 263 155 263 166 c 0
 263 289 l 2
 263 341 231 341 210 341 c 1
1140 473 m 1
 1052 473 930 476 930 290 c 2
 930 169 l 0
 930 157 928 123 953 123 c 1
 953 1 l 0
 858 1 808 83 808 168 c 1
 808 288 l 2
 808 591 1076 595 1140 595 c 1x2fe0
 1423 595 l 1
 1423 472 l 1
 1140 473 l 1
1204 1 m 1x5fe0
 1204 563 l 1
 1326 563 l 1
 1326 1 l 1
 1204 1 l 1x5fe0
EndSplineSet
Colour: ff0000
EndChar

StartChar: tml_TIi
Encoding: 106 -1 141
Width: 830
VWidth: 0
Flags: HW
LayerCount: 3
Fore
SplineSet
420 477.65625 m 1
 420 596 l 0
 346 755 417.393554688 943 620 943 c 0
 848 943 839.690429688 630 641 630 c 0
 596 630 549 668 539 689 c 1
 610 772 l 0
 610 756 619 739 644 739 c 0
 667 739 678 758 678 779 c 0
 678 794 667 828 610 828 c 1
 538.676757812 827.5703125 470 753 545 594.7265625 c 0
 545 477.65625 l 1
 420 477.65625 l 1
EndSplineSet
Refer: 25 2980 N 1 0 0 1 1 0 2
Colour: ff0000
EndChar

StartChar: tml_NIi
Encoding: 107 -1 142
Width: 723
VWidth: 0
Flags: HW
LayerCount: 3
Fore
SplineSet
313 476.65625 m 1
 313 596 l 0
 239 755 310.393554688 943 513 943 c 0
 741 943 732.690429688 630 534 630 c 0
 489 630 442 668 432 689 c 1
 503 772 l 0
 503 756 512 739 537 739 c 0
 560 739 571 758 571 779 c 0
 571 794 560 828 503 828 c 1
 431.676757812 827.5703125 362 753 437 594.7265625 c 0
 437 476.65625 l 1
 313 476.65625 l 1
EndSplineSet
Refer: 10 2984 N 1 0 0 1 1 0 2
Colour: ff0000
EndChar

StartChar: tml_NnnIi
Encoding: 108 -1 143
Width: 1228
VWidth: 0
Flags: HW
LayerCount: 3
Fore
SplineSet
818 487.65625 m 1
 818 607 l 0
 744 766 815.393554688 954 1018 954 c 0
 1246 954 1237.69042969 641 1039 641 c 0
 994 641 947 679 937 700 c 1
 1008 783 l 0
 1008 767 1017 750 1042 750 c 0
 1065 750 1076 769 1076 790 c 0
 1076 805 1065 839 1008 839 c 1
 936.676757812 838.5703125 867 764 942 605.7265625 c 0
 942 487.65625 l 1
 818 487.65625 l 1
EndSplineSet
Refer: 17 2985 N 1 0 0 1 0 0 2
Colour: ff0000
EndChar

StartChar: tml_PIi
Encoding: 109 -1 144
Width: 735
VWidth: 0
Flags: HW
LayerCount: 3
Fore
SplineSet
505 825 m 1
 562 825 578 791 578 776 c 0
 578 755 567 736 544 736 c 0
 519 736 510 753 510 769 c 0
 434 678 l 1
 446 655 496 617 541 617 c 0
 750.690429688 617 758 949 498 949 c 1
 237 949 185 609 378 501 c 1
 485 594 l 1
 338 628 354 825 505 825 c 1
EndSplineSet
Refer: 6 2986 N 1 0 0 1 1 0 2
Colour: ff0000
EndChar

StartChar: tml_MIi
Encoding: 110 -1 145
Width: 783
VWidth: 0
Flags: HW
LayerCount: 3
Fore
SplineSet
373 497.65625 m 1
 373 595 l 0
 299 754 370.393554688 942 573 942 c 0
 801 942 792.690429688 629 594 629 c 0
 549 629 502 667 492 688 c 1
 563 771 l 0
 563 755 572 738 597 738 c 0
 620 738 631 757 631 778 c 0
 631 793 620 827 563 827 c 1
 491.676757812 826.5703125 422 752 497 593.7265625 c 0
 497 497.65625 l 1
 373 497.65625 l 1
406 483 m 1
 372 483 366 459 366 434 c 2
 366 122 l 1
 244 122 l 0x3e
 244 434 l 0
 243 571 325 605 406 605 c 1
 460 605 l 1
 548 605 625 564 625 434 c 0
 625 197 l 0
 625 51 541 0 460 0 c 0
 460 123 l 1x9e
 500 123 503 157 503 179 c 2
 503 434 l 0
 503 457 501 483 460 483 c 1
 406 483 l 1
40 107 m 1x5e
 40 595 l 1
 162 595 l 1
 162 107 l 1
 40 107 l 1x5e
40 0 m 1x9e
 40 123 l 1x5e
 406 123 l 1
 406 0 l 1x9e
 40 0 l 1x9e
EndSplineSet
Colour: ff0000
EndChar

StartChar: tml_YIi
Encoding: 111 -1 146
Width: 0
VWidth: 0
Flags: HW
LayerCount: 3
Fore
SplineSet
736 826 m 5
 585 826 569 629 716 595 c 5
 609 502 l 5
 416 610 468 950 729 950 c 5
 989 950 981.690429688 618 772 618 c 4
 727 618 677 656 665 679 c 5
 741 770 l 4
 741 754 750 737 775 737 c 4
 798 737 809 756 809 777 c 4
 809 792 793 826 736 826 c 5
551 0 m 257
 551 119 l 257xf0
 557 119 l 258
 578 119 609 123 609 145 c 257xe8
 609 595 l 257
 732 595 l 257xe8
 732 0 l 1
 551 0 l 257
40 140 m 258
 40 595 l 257
 162 595 l 257
 162 145 l 257
 162 134 167 119 190 119 c 258
 196 119 l 257
 196 0 l 257
 190 0 l 258
 93 0 40 96 40 140 c 258
250 0 m 257
 250 119 l 257
 256 119 l 258
 278 119 320 121 320 145 c 257
 320 595 l 257
 442 595 l 257
 442 145 l 258
 442 121 470 119 492 119 c 258
 498 119 l 257
 498 0 l 257
 320 0 l 1
 315 33 l 257
 310 12 289 0 256 0 c 258
 250 0 l 257
EndSplineSet
Colour: ff0000
EndChar

StartChar: tml_RIi
Encoding: 112 -1 147
Width: 731
VWidth: 0
Flags: HW
LayerCount: 3
Fore
SplineSet
321 473.65625 m 1
 321 597 l 0
 247 756 318.393554688 944 521 944 c 0
 749 944 740.690429688 631 542 631 c 0
 497 631 450 669 440 690 c 1
 511 773 l 0
 511 757 520 740 545 740 c 0
 568 740 579 759 579 780 c 0
 579 795 568 829 511 829 c 1
 439.676757812 828.5703125 370 754 445 595.7265625 c 0
 445 473.65625 l 1
 321 473.65625 l 1
EndSplineSet
Refer: 8 2992 N 1 0 0 1 1 0 2
Colour: ff0000
EndChar

StartChar: tml_RrIi
Encoding: 113 -1 148
Width: 851
VWidth: 0
Flags: HW
LayerCount: 3
Fore
SplineSet
441 504.65625 m 1
 565 504.65625 l 1
 565 593.7265625 l 0
 490 752 559.676757812 826.5703125 631 827 c 1
 688 827 699 793 699 778 c 0
 699 757 688 738 665 738 c 0
 640 738 631 755 631 771 c 0
 560 688 l 1
 570 667 617 629 662 629 c 0
 860.690429688 629 869 942 641 942 c 0
 438.393554688 942 367 754 441 595 c 0
 441 504.65625 l 1
497 608 m 257
 458 608 405 599 377 576 c 257
 353 597 323 606 277 606 c 257
 277 483 l 257
 303 483 315 472 315 458 c 258
 317 1 l 257
 439 2 l 257
 437 451 l 258
 436.890625 476 479 484 497 484 c 257
 519 484 570 474 570 452 c 258
 570 47 l 0
 570 16 571 -33 473 -33 c 0
 234 -33 l 0
 92 -33 40 -114 40 -256 c 1
 162 -256 l 1
 162 -176 191 -155 238 -155 c 2
 499 -155 l 0
 638 -153 692 -41 692 64 c 0xf6
 692 475 l 258
 692 530 642 608 497 608 c 257
71 0 m 257
 71 479 l 0xee
 71 529 112 606 224 606 c 257
 224 483 l 257
 199 483 193 471 193 458 c 258
 195 1 l 257
 71 0 l 257
EndSplineSet
Colour: ff0000
EndChar

StartChar: tml_LIi
Encoding: 114 -1 149
Width: 1040
VWidth: 0
Flags: HW
LayerCount: 3
Fore
SplineSet
763.005859375 582.030273438 m 1
 642.005859375 619 672.005859375 803 810.005859375 795 c 1
 867.005859375 795 883.005859375 761 883.005859375 746 c 0
 883.005859375 725 872.005859375 706 849.005859375 706 c 0
 824.005859375 706 815.005859375 723 815.005859375 739 c 0
 739.005859375 648 l 1
 751.005859375 625 801.005859375 587 846.005859375 587 c 0
 1055.69628906 587 1063.00585938 919 803.005859375 919 c 0
 613.547851562 919 537.21484375 738.986328125 572.005859375 621 c 0
 595.005859375 543 632.005859375 502 682.005859375 474.65625 c 0
 718.065429688 454.936523438 734.2265625 445.874023438 735.005859375 423 c 0
 735.005859375 166 l 1
 735.005859375 139 716.005859375 123 689.005859375 123 c 1
 689.005859375 0 l 1
 799.005859375 0 855.005859375 81 855.005859375 166 c 2
 855.005859375 424 l 2
 855.005859375 508 852.005859375 555 763.005859375 582.030273438 c 1
266.005859375 0 m 1xe380
 266.005859375 122 l 0
 307.005859375 122 313.005859375 150 312.005859375 181 c 0
 311.005859375 208 308.005859375 237 266.005859375 237 c 1
 266.005859375 359 l 0
 362.005859375 359 435.005859375 276 435.005859375 224 c 0
 435.005859375 152 l 0
 436.005859375 89 375.005859375 0 266.005859375 0 c 1xe380
40.005859375 151 m 0
 40.005859375 193 41.005859375 140 40.005859375 220 c 0xe780
 39.005859375 324 161.005859375 359 211.005859375 359 c 1xf380
 211.005859375 237 l 0xf380
 182.005859375 237 164.005859375 210 164.005859375 181 c 0xe780
 164.005859375 149 178.005859375 122 211.005859375 122 c 1
 211.005859375 0 l 0xf380
 109.005859375 0 40.005859375 91 40.005859375 151 c 0
40.005859375 226 m 1xe780
 40.005859375 323 l 2
 40.005859375 424 119.005859375 606 298.005859375 606 c 1
 298.005859375 485 l 1
 233.005859375 485 171.005859375 427 171.005859375 327 c 0xeb80
 171.005859375 270 46.005859375 256 40.005859375 226 c 1xe780
352.005859375 484 m 1
 430.005859375 484 471.005859375 418 472.005859375 354 c 10
 473.005859375 165 l 18
 473.005859375 84 521.005859375 0 636.005859375 0 c 1
 636.005859375 123 l 1
 611.005859375 123 595.005859375 138 595.005859375 165 c 2
 595.005859375 353 l 2
 594.005859375 456 520.005859375 606 352.005859375 606 c 1
 352.005859375 484 l 1
EndSplineSet
Colour: ff0000
EndChar

StartChar: tml_LlIi
Encoding: 115 -1 150
Width: 1150
VWidth: 0
Flags: HW
LayerCount: 3
Fore
SplineSet
740.005859375 482.65625 m 1
 864.005859375 482.65625 l 1
 864.005859375 604.7265625 l 0
 789.005859375 763 858.682617188 837.5703125 930.005859375 838 c 1
 987.005859375 838 998.005859375 804 998.005859375 789 c 0
 998.005859375 768 987.005859375 749 964.005859375 749 c 0
 939.005859375 749 930.005859375 766 930.005859375 782 c 0
 859.005859375 699 l 1
 869.005859375 678 916.005859375 640 961.005859375 640 c 0
 1159.69628906 640 1168.00585938 953 940.005859375 953 c 0
 737.399414062 953 666.005859375 765 740.005859375 606 c 0
 740.005859375 482.65625 l 1
EndSplineSet
Refer: 14 2995 N 1 0 0 1 -0.993638 0 2
Colour: ff0000
EndChar

StartChar: tml_LllIi
Encoding: 116 -1 151
Width: 779
VWidth: 0
Flags: HW
LayerCount: 3
Fore
SplineSet
369 517.65625 m 1
 369 597 l 0
 295 756 366.393554688 944 569 944 c 0
 797 944 788.690429688 631 590 631 c 0
 545 631 498 669 488 690 c 1
 559 773 l 0
 559 757 568 740 593 740 c 0
 616 740 627 759 627 780 c 0
 627 795 616 829 559 829 c 1
 487.676757812 828.5703125 418 754 493 595.7265625 c 0
 493 517.65625 l 1
 369 517.65625 l 1
406 483 m 1
 372 483 366 459 366 434 c 2
 366 122 l 1
 244 122 l 0x3e
 244 434 l 0
 243 571 325 605 406 605 c 1
 460 605 l 1
 548 605 625 564 625 434 c 0
 625 197 l 0
 625 51 541 0 460 0 c 0
 460 123 l 1x9e
 500 123 503 157 503 179 c 2
 503 434 l 0
 503 457 501 483 460 483 c 1
 406 483 l 1
40 107 m 1x5e
 40 595 l 1
 162 595 l 1
 162 107 l 1
 40 107 l 1x5e
40 0 m 1x9e
 40 123 l 1x5e
 406 123 l 1
 406 0 l 1x9e
 40 0 l 1x9e
54 -67 m 1
 54 -191 184 -260 328 -165 c 1
 282 -160 236 -119 232 -87 c 1
 214 -103 177 -91 176 -67 c 1x8f
 54 -67 l 1
244 1 m 1
 366 1 l 1
 366 -29 402 -22 560 -22 c 1
 560 -146 l 0
 430 -145 l 1
 266 -146 244 -60 244 1 c 1
EndSplineSet
Colour: ff0000
EndChar

StartChar: tml_VIi
Encoding: 117 -1 152
Width: 1068
VWidth: 0
Flags: HW
LayerCount: 3
Fore
SplineSet
838.005859375 826 m 1
 895.005859375 826 911.005859375 792 911.005859375 777 c 0
 911.005859375 756 900.005859375 737 877.005859375 737 c 0
 852.005859375 737 843.005859375 754 843.005859375 770 c 0
 767.005859375 679 l 1
 779.005859375 656 829.005859375 618 874.005859375 618 c 0
 1083.69628906 618 1091.00585938 950 831.005859375 950 c 1
 570.005859375 950 518.005859375 610 711.005859375 502 c 1
 818.005859375 595 l 1
 671.005859375 629 687.005859375 826 838.005859375 826 c 1
EndSplineSet
Refer: 3 2997 N 1 0 0 1 0.00606137 0 2
Colour: ff0000
EndChar

StartChar: tml_SsIi
Encoding: 118 -1 153
Width: 1260
VWidth: 0
Flags: HW
LayerCount: 3
Fore
SplineSet
812 526.65625 m 1
 936 526.65625 l 1
 936 604.7265625 l 0
 861 763 930.676757812 837.5703125 1002 838 c 1
 1059 838 1070 804 1070 789 c 0
 1070 768 1059 749 1036 749 c 0
 1011 749 1002 766 1002 782 c 0
 931 699 l 1
 941 678 988 640 1033 640 c 0
 1231.69042969 640 1240 953 1012 953 c 0
 809.393554688 953 738 765 812 606 c 0
 812 526.65625 l 1
267.005859375 0 m 1xe780
 267.005859375 122 l 1
 299.005859375 123 314.005859375 142 314.005859375 180 c 0
 314.005859375 218 298.005859375 237 267.005859375 237 c 1
 267.005859375 359 l 0
 363.005859375 359 436.005859375 276 436.005859375 224 c 0
 436.005859375 152 l 0
 437.005859375 89 376.005859375 0 267.005859375 0 c 1xe780
40.005859375 151 m 0
 40.005859375 220 l 0xef80
 39.005859375 324 162.005859375 359 212.005859375 359 c 1xf780
 212.005859375 237 l 0xf780
 183.005859375 237 165.005859375 218 165.005859375 181 c 0xef80
 165.005859375 147 179.005859375 122 212.005859375 122 c 1
 212.005859375 0 l 0xf780
 110.005859375 0 40.005859375 91 40.005859375 151 c 0
40.005859375 226 m 1xef80
 40.005859375 305 l 1
 40.005859375 433 91.005859375 605 301.005859375 605 c 1
 301.005859375 483 l 1
 237.005859375 483 178.005859375 439 176.005859375 354 c 0
 40.005859375 226 l 1xef80
351.005859375 483 m 1
 428.005859375 483 486.005859375 424 487.005859375 354 c 1
 487.005859375 146 l 0
 487.005859375 127 461.005859375 124 454.005859375 123 c 1
 454.005859375 0 l 1
 850.005859375 0 l 1
 850.005859375 123 l 1
 608.005859375 123 l 1
 608.005859375 355 l 1
 607.005859375 466 520.005859375 605 351.005859375 605 c 1
 351.005859375 483 l 1
962.005859375 123 m 1
 962.005859375 -178 l 1
 1084.00585938 -178 l 1
 1084.00585938 123 l 1
 962.005859375 123 l 1
903.005859375 158 m 1
 1220.00585938 158 l 1
 1220.00585938 280 l 0
 903.005859375 280 l 9
 903.005859375 158 l 1
877.005859375 485 m 1
 933.005859375 485 962.005859375 472 962.005859375 413 c 2
 962.005859375 158 l 1
 1084.00585938 158 l 1
 1084.00585938 413 l 2
 1084.00585938 561 993.005859375 624 877.005859375 624 c 1
 765.005859375 624 669.005859375 557 669.005859375 433 c 0
 669.005859375 334 l 2
 669.005859375 191 746.005859375 158 850.005859375 158 c 1
 850.005859375 279 l 17
 806.005859375 279 792.005859375 287 792.005859375 340 c 0
 792.005859375 418 l 0
 792.005859375 472 822.005859375 485 877.005859375 485 c 1
1120.00585938 0 m 1
 1220.00585938 0 l 1
 1220.00585938 280 l 1
 1120.00585938 280 l 1
 1120.00585938 0 l 1
903.005859375 1 m 1
 1220.00585938 0 l 1
 1220.00585938 123 l 1
 903.005859375 123 l 1
 903.005859375 1 l 1
EndSplineSet
Colour: ff0000
EndChar

StartChar: tml_SIi
Encoding: 119 -1 154
Width: 1329
VWidth: 0
Flags: HW
LayerCount: 3
Fore
SplineSet
1052.00585938 582.030273438 m 1
 931.005859375 619 961.005859375 803 1099.00585938 795 c 1
 1156.00585938 795 1172.00585938 761 1172.00585938 746 c 0
 1172.00585938 725 1161.00585938 706 1138.00585938 706 c 0
 1113.00585938 706 1104.00585938 723 1104.00585938 739 c 0
 1028.00585938 648 l 1
 1040.00585938 625 1090.00585938 587 1135.00585938 587 c 0
 1344.69628906 587 1352.00585938 919 1092.00585938 919 c 0
 902.546875 919 826.21484375 738.986328125 861.005859375 621 c 0
 884.005859375 543 921.005859375 502 971.005859375 474.65625 c 0
 1007.06445312 454.936523438 1023.2265625 445.874023438 1024.00585938 423 c 0
 1024.00585938 166 l 1
 1024.00585938 139 1005.00585938 123 978.005859375 123 c 1
 978.005859375 0 l 1
 1088.00585938 0 1144.00585938 81 1144.00585938 166 c 2
 1144.00585938 424 l 2
 1144.00585938 508 1141.00585938 555 1052.00585938 582.030273438 c 1
40.005859375 226 m 1xe780
 40.005859375 326 l 2
 40.005859375 427 119.005859375 605 298.005859375 605 c 1xf380
 298.005859375 484 l 1
 233.005859375 484 171.005859375 427 171.005859375 327 c 0xeb80
 171.005859375 270 46.005859375 256 40.005859375 226 c 1xe780
266.005859375 0 m 1
 266.005859375 122 l 0
 307.005859375 122 313.005859375 150 312.005859375 181 c 0
 311.005859375 208 308.005859375 237 266.005859375 237 c 1
 266.005859375 359 l 0
 362.005859375 359 435.005859375 276 435.005859375 224 c 0
 435.005859375 152 l 0
 436.005859375 89 375.005859375 0 266.005859375 0 c 1
352.005859375 484 m 1
 421.005859375 484 472.005859375 417 473.005859375 354 c 1
 474.005859375 0 l 1
 600.005859375 0 l 1
 596.005859375 355 l 1
 596.005859375 456 514.005859375 605 352.005859375 605 c 1
 352.005859375 484 l 1
40.005859375 151 m 0
 40.005859375 193 41.005859375 140 40.005859375 220 c 0xe780
 39.005859375 324 161.005859375 359 211.005859375 359 c 1xf380
 211.005859375 237 l 0xf380
 182.005859375 237 164.005859375 210 164.005859375 181 c 0xe780
 164.005859375 149 178.005859375 122 211.005859375 122 c 1
 211.005859375 0 l 0xf380
 109.005859375 0 40.005859375 91 40.005859375 151 c 0
473.005859375 325 m 1
 596.005859375 326 l 1
 596.005859375 470 603.005859375 482 652.005859375 482 c 1
 652.005859375 605 l 1
 479.005859375 605 473.005859375 440 473.005859375 325 c 1
706.005859375 483 m 1
 750.005859375 483 760.005859375 469 761.005859375 402 c 10
 761.005859375 168 l 18
 761.005859375 96.376953125 791.083007812 0 923.005859375 0 c 1
 923.005859375 124 l 1
 896.005859375 124 883.005859375 138 883.005859375 168 c 2
 883.005859375 402 l 0
 882.005859375 501 869.005859375 606 709.005859375 606 c 2
 706.005859375 606 l 1
 706.005859375 483 l 1
EndSplineSet
Colour: ff0000
EndChar

StartChar: tml_HIi
Encoding: 120 -1 155
Width: 1490
VWidth: 0
Flags: HW
LayerCount: 3
Fore
SplineSet
1080.00585938 515.65625 m 1
 1204.00585938 515.65625 l 1
 1204.00585938 593.7265625 l 0
 1129.00585938 752 1198.68261719 826.5703125 1270.00585938 827 c 1
 1327.00585938 827 1338.00585938 793 1338.00585938 778 c 0
 1338.00585938 757 1327.00585938 738 1304.00585938 738 c 0
 1279.00585938 738 1270.00585938 755 1270.00585938 771 c 0
 1199.00585938 688 l 1
 1209.00585938 667 1256.00585938 629 1301.00585938 629 c 0
 1499.69628906 629 1508.00585938 942 1280.00585938 942 c 0
 1077.39941406 942 1006.00585938 754 1080.00585938 595 c 0
 1080.00585938 515.65625 l 1
1141.00585938 604 m 257
 1102.00585938 604 1045.00585938 597 1017.00585938 574 c 257
 993.005859375 595 963.005859375 604 917.005859375 604 c 257
 917.005859375 481 l 257
 943.005859375 481 956.005859375 471 956.005859375 457 c 258
 956.005859375 -1 l 257
 1079.00585938 0 l 257
 1076.00585938 445 l 258
 1076.00585938 467 1104.00585938 482 1141.00585938 482 c 257
 1183.00585938 482 1211.00585938 467 1211.00585938 446 c 258
 1211.00585938 70 l 2xe1f8
 1211.00585938 39 1211.00585938 -33 1113.00585938 -33 c 0
 1024.00585938 -33 391.005859375 -33 299.005859375 -33 c 0
 143.399414062 -33 93.005859375 -102.974609375 93.005859375 -256 c 1
 215.005859375 -256 l 1
 215.005859375 -182.724609375 230.423828125 -155 273.005859375 -155 c 2
 1140.00585938 -155 l 0
 1270.00585938 -153 1333.00585938 -44 1333.00585938 70 c 2
 1333.00585938 473 l 258
 1332.00585938 528 1283.00585938 604 1141.00585938 604 c 257
710.005859375 0 m 257
 710.005859375 477 l 0
 710.005859375 527 751.005859375 604 863.005859375 604 c 257
 863.005859375 481 l 257xe8f8
 838.005859375 481 834.005859375 469 834.005859375 456 c 258
 834.005859375 0 l 257
 710.005859375 0 l 257
267.005859375 0 m 1
 267.005859375 122 l 0
 308.005859375 122 314.005859375 150 313.005859375 181 c 0
 312.005859375 208 309.005859375 237 267.005859375 237 c 1
 267.005859375 359 l 0
 363.005859375 359 436.005859375 276 436.005859375 224 c 0
 436.005859375 152 l 0
 437.005859375 89 376.005859375 0 267.005859375 0 c 1
40.005859375 151 m 0
 40.005859375 193 41.005859375 140 40.005859375 220 c 0xe2f8
 39.005859375 324 162.005859375 359 212.005859375 359 c 1xe4f8
 212.005859375 237 l 0xe4f8
 183.005859375 237 165.005859375 210 165.005859375 181 c 0xe2f8
 165.005859375 149 179.005859375 122 212.005859375 122 c 1
 212.005859375 0 l 0xe4f8
 110.005859375 0 40.005859375 91 40.005859375 151 c 0
40.005859375 226 m 1xf2f8
 40.005859375 282 l 2
 40.005859375 374.994140625 70.01171875 596 298.005859375 596 c 1xf4f8
 298.005859375 474 l 1
 232.89453125 474 183.231445312 432.383789062 176.005859375 356 c 0
 171.005859375 299 46.005859375 256 40.005859375 226 c 1xf2f8
352.005859375 474 m 1
 428.928710938 474 486.98046875 423.732421875 488.005859375 354 c 1
 488.005859375 146 l 0
 488.005859375 127 462.005859375 124 455.005859375 123 c 1
 455.005859375 0 l 1
 656.005859375 0 l 1
 656.005859375 123 l 1
 609.005859375 123 l 1
 609.005859375 355 l 1
 607.958984375 481.998046875 521.182617188 596 352.005859375 596 c 1
 352.005859375 474 l 1
EndSplineSet
Colour: ff0000
EndChar

StartChar: tml_NgU
Encoding: 122 -1 156
Width: 827
VWidth: 0
Flags: W
LayerCount: 3
Fore
SplineSet
665 -257 m 1
 665 595 l 1
 787 595 l 1
 787 -257 l 1
 665 -257 l 1
319 0 m 1
 319 122 l 1
 667 122 l 1
 667 0 l 1
 319 0 l 1
276 0 m 1
 276 122 l 1
 435 122 l 0
 493 122 489 126 489 145 c 0
 489 211 l 2
 489 232 493 230 458 231 c 0
 458 354 l 1
 528 354 612 322 612 229 c 0
 612 111 l 0
 612 43 551 0 457 0 c 0
 276 0 l 1
282 176 m 1
 404 176 l 1
 404 589 l 1
 282 589 l 1
 282 176 l 1
40 0 m 9
 162 0 l 1
 162 591 l 1
 40 591 l 1
 40 0 l 9
40 595 m 1
 41 473 l 1
 513 473 l 1
 513 595 l 1
 40 595 l 1
EndSplineSet
EndChar

StartChar: tml_PU
Encoding: 130 -1 157
Width: 552
VWidth: 0
Flags: W
LayerCount: 3
Fore
SplineSet
40 106 m 1x60
 40 597 l 1
 162 597 l 1
 162 106 l 1x50
 40 106 l 1x60
303 0 m 1
 390 0 l 1
 390 -258 l 1
 512 -258 l 1
 512 596 l 1
 390 596 l 1
 390 122 l 1
 303 122 l 1
 303 0 l 1
40 0 m 1xa0
 40 122 l 1x60
 249 122 l 1
 249 0 l 1
 40 0 l 1xa0
EndSplineSet
EndChar

StartChar: tml_YU
Encoding: 132 -1 158
Width: 727
VWidth: 0
Flags: W
LayerCount: 3
Fore
SplineSet
565 168 m 1
 687 168 l 1
 687 -258 l 9xe8
 565 -258 l 1
 565 168 l 1
EndSplineSet
Refer: 1 2991 N 1 0 0 1 1 0 2
EndChar

StartChar: tml_VU
Encoding: 138 -1 159
Width: 874
VWidth: 0
Flags: W
LayerCount: 3
Fore
SplineSet
710.005859375 -255 m 1
 710.005859375 596 l 1
 834.005859375 596 l 1
 834.005859375 -255 l 1
 710.005859375 -255 l 1
EndSplineSet
Refer: 3 2997 N 1 0 0 1 0.00606137 0 2
EndChar

StartChar: tml_VUu
Encoding: 156 -1 160
Width: 1030
VWidth: 0
Flags: W
LayerCount: 3
Fore
SplineSet
40 -130 m 0
 40 -153 l 0
 40 -237 119 -260 164 -260 c 0
 491 -260 l 1
 491 -167 l 1xc980
 162 -167 l 0
 144 -167 128 -160 128 -139 c 0
 128 -119 144 -108 166 -108 c 1
 188 -109 200 -122 200 -144 c 0
 288 -144 l 0
 288 -136 l 0
 288 -63 241 -16 166 -16 c 1
 95 -16 40 -56 40 -130 c 0
545 -167 m 0
 901 -167 l 0
 901 -114 l 0
 835 -114 l 0
 835 -21 l 1
 907 -21 l 2
 971 -21 990 -52 990 -102 c 2
 990 -176 l 0
 990 -228 964 -260 901 -260 c 0
 545 -260 l 1
 545 -167 l 0
715 -143 m 1
 715 596 l 1
 839 596 l 1
 839 -143 l 1
 715 -143 l 1
EndSplineSet
Refer: 3 2997 N 1 0 0 1 4 0 2
EndChar

StartChar: tml_KSsI
Encoding: 158 -1 161
Width: 1988
VWidth: 0
Flags: HW
LayerCount: 3
Fore
SplineSet
1408 485 m 9
 1461 485 l 1
 1461 485 1520 486 1520 413 c 2
 1520 158 l 1
 1642 158 l 1
 1642 413 l 2
 1642 561 1564 607 1461 607 c 1
 1408 607 l 1
 1304 607 1227 570 1227 433 c 0
 1227 334 l 2
 1227 191 1304 158 1408 158 c 1
 1408 279 l 17
 1364 279 1350 287 1350 340 c 0
 1350 424 l 0
 1350 463 1363 485 1408 485 c 9
1693.00585938 715 m 1
 1796.00585938 715 1826.00585938 662 1826.00585938 596 c 2
 1826.00585938 57 l 1
 1948.00585938 57 l 1
 1948.00585938 596 l 0
 1948.00585938 699 1900.00585938 837 1693.00585938 837 c 1
 1693.00585938 715 l 1
1391.00585938 596 m 1
 1514.00585938 596 l 0
 1514.00585938 657 1538.00585938 715 1639.00585938 715 c 0
 1639.00585938 715 l 0
 1639.00585938 837 l 1
 1639.00585938 837 l 0
 1443.00585938 837 1391.00585938 700 1391.00585938 596 c 1
 1391.00585938 596 l 1
825 0 m 1xe780
 825 122 l 1
 857 123 872 142 872 180 c 0
 872 218 856 237 825 237 c 1
 825 359 l 0
 921 359 994 276 994 224 c 0
 994 152 l 0
 995 89 934 0 825 0 c 1xe780
598 151 m 0
 598 220 l 0xef80
 597 324 720 359 770 359 c 1xf780
 770 237 l 0xf780
 741 237 723 218 723 181 c 0xef80
 723 147 737 122 770 122 c 1
 770 0 l 0xf780
 668 0 598 91 598 151 c 0
598 226 m 1xef80
 598 268 l 1
 598 340 649 534 859 534 c 1
 859 412 l 1
 795 412 765 378 764 357 c 0
 598 226 l 1xef80
909 412 m 1
 986 412 1044 361 1045 291 c 1
 1045 146 l 0
 1045 127 1019 124 1012 123 c 1
 1012 0 l 1
 1408 0 l 1
 1408 123 l 1
 1166 123 l 1
 1166 292 l 1
 1165 403 1078 534 909 534 c 1
 909 412 l 1
1520 123 m 1
 1520 -178 l 1
 1642 -178 l 1
 1642 123 l 1
 1520 123 l 1
1461 158 m 1
 1778 158 l 1
 1778 280 l 0
 1461 280 l 9
 1461 158 l 1
1678 0 m 1
 1778 0 l 1
 1778 280 l 1
 1678 280 l 1
 1678 0 l 1
1461 1 m 1
 1778 0 l 1
 1778 123 l 1
 1461 123 l 1
 1461 1 l 1
40 151.65625 m 0
 40 212.65625 l 0
 40 320.65625 150 365.65625 236 365.65625 c 0
 700 365.65625 l 9xc480
 700 243.65625 l 1
 239 243.65625 l 2
 175 243.65625 161 233.65625 161 182.65625 c 0
 161 121.65625 181 116.65625 270 116.65625 c 1
 270 -6.34375 l 1
 113 -5.34375 40 62.65625 40 151.65625 c 0
323 -6.34375 m 9
 323 116.65625 l 1
 389 116.65625 420 135.65625 420 181.65625 c 0
 420 663.65625 l 1
 542 663.65625 l 1x8c80
 542 185.65625 l 2
 542 89.65625 490 -6.34375 323 -6.34375 c 9
165 342.65625 m 17xa580
 165 661.65625 l 1xa680
 288 661.65625 l 1
 287 342.65625 l 1
 165 342.65625 l 17xa580
382 545.65625 m 1
 382 670.65625 l 1x9480
 689 670.65625 l 1
 689 545.65625 l 1
 382 545.65625 l 1
165 545.65625 m 1x8e80
 165 670.65625 l 1x9680
 328 670.65625 l 1
 328 545.65625 l 1x9680
 165 545.65625 l 1x8e80
EndSplineSet
EndChar

StartChar: tml_KSsIi
Encoding: 159 -1 162
Width: 1818
VWidth: 0
Flags: HW
LayerCount: 3
Fore
SplineSet
1370 484.65625 m 1
 1494 484.65625 l 1
 1494 604.7265625 l 0
 1419 763 1488.67675781 837.5703125 1560 838 c 1
 1617 838 1628 804 1628 789 c 0
 1628 768 1617 749 1594 749 c 0
 1569 749 1560 766 1560 782 c 0
 1489 699 l 1
 1499 678 1546 640 1591 640 c 0
 1789.69042969 640 1798 953 1570 953 c 0
 1367.39355469 953 1296 765 1370 606 c 0
 1370 484.65625 l 1
825 0 m 1xe780
 825 122 l 1
 857 123 872 142 872 180 c 0
 872 218 856 237 825 237 c 1
 825 359 l 0
 921 359 994 276 994 224 c 0
 994 152 l 0
 995 89 934 0 825 0 c 1xe780
598 151 m 0
 598 220 l 0xef80
 597 324 720 359 770 359 c 1xf780
 770 237 l 0xf780
 741 237 723 218 723 181 c 0xef80
 723 147 737 122 770 122 c 1
 770 0 l 0xf780
 668 0 598 91 598 151 c 0
598 226 m 1xef80
 598 268 l 1
 598 340 649 534 859 534 c 1
 859 412 l 1
 795 412 765 378 764 357 c 0
 598 226 l 1xef80
909 412 m 1
 986 412 1044 361 1045 291 c 1
 1045 146 l 0
 1045 127 1019 124 1012 123 c 1
 1012 0 l 1
 1408 0 l 1
 1408 123 l 1
 1166 123 l 1
 1166 292 l 1
 1165 403 1078 534 909 534 c 1
 909 412 l 1
1461 485 m 1
 1500 485 1520 486 1520 413 c 2
 1520 158 l 1
 1642 158 l 1
 1642 413 l 2
 1642 561 1564 607 1461 607 c 1
 1461 485 l 1
1520 123 m 1
 1520 -178 l 1
 1642 -178 l 1
 1642 123 l 1
 1520 123 l 1
1461 158 m 1
 1778 158 l 1
 1778 280 l 0
 1461 280 l 9
 1461 158 l 1
1227 334 m 2
 1227 191 1304 158 1408 158 c 1
 1408 279 l 17
 1364 279 1350 287 1350 340 c 0
 1350 424 l 0
 1350 463 1363 485 1408 485 c 1
 1408 607 l 1
 1304 607 1227 570 1227 433 c 0
 1227 334 l 2
1678 0 m 1
 1778 0 l 1
 1778 280 l 1
 1678 280 l 1
 1678 0 l 1
1461 1 m 1
 1778 0 l 1
 1778 123 l 1
 1461 123 l 1
 1461 1 l 1
40 151.65625 m 0
 40 212.65625 l 0
 40 320.65625 150 365.65625 236 365.65625 c 0
 700 365.65625 l 9xc480
 700 243.65625 l 1
 239 243.65625 l 2
 175 243.65625 161 233.65625 161 182.65625 c 0
 161 121.65625 181 116.65625 270 116.65625 c 1
 270 -6.34375 l 1
 113 -5.34375 40 62.65625 40 151.65625 c 0
323 -6.34375 m 9
 323 116.65625 l 1
 389 116.65625 420 135.65625 420 181.65625 c 0
 420 663.65625 l 1
 542 663.65625 l 1x8c80
 542 185.65625 l 2
 542 89.65625 490 -6.34375 323 -6.34375 c 9
165 342.65625 m 17xa580
 165 661.65625 l 1xa680
 288 661.65625 l 1
 287 342.65625 l 1
 165 342.65625 l 17xa580
382 545.65625 m 1
 382 670.65625 l 1x9480
 689 670.65625 l 1
 689 545.65625 l 1
 382 545.65625 l 1
165 545.65625 m 1x8e80
 165 670.65625 l 1x9680
 328 670.65625 l 1
 328 545.65625 l 1x9680
 165 545.65625 l 1x8e80
EndSplineSet
EndChar

StartChar: tml_ShIi
Encoding: 161 -1 163
Width: 1163
VWidth: 0
Flags: HW
LayerCount: 3
Fore
SplineSet
933 826 m 1
 990 826 1006 792 1006 777 c 0
 1006 756 995 737 972 737 c 0
 947 737 938 754 938 770 c 0
 862 679 l 1
 874 656 924 618 969 618 c 0
 1178.69042969 618 1186 950 926 950 c 1
 665 950 613 610 806 502 c 1
 913 595 l 1
 766 629 782 826 933 826 c 1
300 473 m 1
 928 473 l 1
 928 595 l 1
 300 595 l 1
 300 473 l 1
762 0 m 1
 788 0 l 0
 895 0 928 109 928 168 c 1
 928 582 l 1
 806 582 l 17
 806 168 l 1
 806 141 788 124 762 124 c 1
 762 0 l 1
546 168 m 0
 546 112 569 0 686 0 c 0
 708 0 l 1
 708 124 l 1
 681 124 668 138 668 168 c 2
 668 582 l 0
 546 582 l 25
 546 168 l 0
256 0 m 1
 282 0 l 0
 389 0 422 109 422 168 c 1
 422 582 l 1
 300 582 l 17
 300 168 l 1
 300 141 282 124 256 124 c 1
 256 0 l 1
40 168 m 0
 40 112 64 0 181 0 c 0
 202 0 l 1
 202 124 l 1
 175 124 162 138 162 168 c 2
 162 595 l 0
 40 595 l 25
 40 168 l 0
EndSplineSet
EndChar

StartChar: tml_ShI
Encoding: 162 -1 164
Width: 1145
VWidth: 0
Flags: HW
LayerCount: 3
Fore
SplineSet
909 690.2890625 m 1
 962 690.2890625 983 653.2890625 983 591.2890625 c 2
 983 66.2890625 l 1
 1105 66.2890625 l 1
 1105 594.2890625 l 0
 1105 697.2890625 1060 812.2890625 909 812.2890625 c 1
 909 690.2890625 l 1
664 592.2890625 m 1
 787 592.2890625 l 0
 787 653.2890625 804 690.2890625 855 690.2890625 c 0
 855 690.2890625 l 0
 855 812.2890625 l 1
 855 812.2890625 l 0
 706 812.2890625 664 696.2890625 664 592.2890625 c 1
 664 592.2890625 l 1
300 473 m 1
 928 473 l 1
 928 595 l 1
 300 595 l 1
 300 473 l 1
762 0 m 1
 788 0 l 0
 895 0 928 109 928 168 c 1
 928 582 l 1
 806 582 l 17
 806 168 l 1
 806 141 788 124 762 124 c 1
 762 0 l 1
546 168 m 0
 546 112 569 0 686 0 c 0
 708 0 l 1
 708 124 l 1
 681 124 668 138 668 168 c 2
 668 582 l 0
 546 582 l 25
 546 168 l 0
256 0 m 1
 282 0 l 0
 389 0 422 109 422 168 c 1
 422 582 l 1
 300 582 l 17
 300 168 l 1
 300 141 282 124 256 124 c 1
 256 0 l 1
40 168 m 0
 40 112 64 0 181 0 c 0
 202 0 l 1
 202 124 l 1
 175 124 162 138 162 168 c 2
 162 595 l 0
 40 595 l 25
 40 168 l 0
EndSplineSet
EndChar

StartChar: tml_NnAi
Encoding: 166 -1 165
Width: 1405
VWidth: 0
Flags: HW
LayerCount: 3
Fore
SplineSet
443.415039062 43 m 1
 396.415039062 174 l 1
 333.415039062 72 100.956054688 72.98046875 206.415039062 244 c 2
 427.958984375 584 l 1
 511.415039062 740 414.565429688 941 220.958984375 941 c 0
 -7.041015625 941 -25.7314453125 606 199.958984375 606 c 0
 244.958984375 606 291.958984375 634 301.958984375 677 c 1
 230.958984375 760 l 0
 230.958984375 744 221.958984375 727 196.958984375 727 c 0
 173.958984375 727 162.958984375 746 162.958984375 767 c 0
 162.958984375 782 173.958984375 816 230.958984375 816 c 1
 302.282226562 815.5703125 387.958984375 741 291.958984375 582.7265625 c 0
 93.4150390625 298.140625 l 2
 -67.6142578125 67.3271484375 192.415039062 -130 443.415039062 43 c 1
751.958984375 154 m 1
 751.958984375 288 l 2
 751.958984375 591 1017.95898438 606 1076.95898438 606 c 1
 1076.95898438 484 l 1x0f80
 995.958984375 484 873.958984375 477 873.958984375 290 c 2
 873.958984375 155 l 0
 873.958984375 143 871.958984375 109 896.958984375 109 c 1
 896.958984375 -13 l 0
 801.958984375 -13 751.958984375 69 751.958984375 154 c 1
717.958984375 483 m 1
 717.958984375 605 l 1x1f80
 859.958984375 605 1096.95898438 586 1096.95898438 301 c 2
 1096.95898438 154 l 0
 1096.95898438 62 1047.95898438 -13 950.958984375 -13 c 1
 950.958984375 109 l 0
 978.958984375 109 974.958984375 143 974.958984375 154 c 0
 974.958984375 290 l 2
 974.958984375 476 850.958984375 482 717.958984375 483 c 1
368.958984375 153 m 1
 368.958984375 68 419.958984375 -14 514.958984375 -14 c 0
 514.958984375 108 l 1x9f80
 489.958984375 108 490.958984375 142 490.958984375 154 c 0
 490.958984375 290 l 2
 490.958984375 476 583.958984375 483 663.958984375 483 c 1
 663.958984375 605 l 1
 594.958984375 605 368.958984375 596 368.958984375 290 c 2
 368.958984375 153 l 1
538.958984375 342 m 1
 535.958984375 376 566.958984375 432 623.958984375 437 c 1
 690.958984375 437 713.958984375 378 713.958984375 290 c 2
 713.958984375 154 l 0
 713.958984375 62 664.958984375 -14 567.958984375 -14 c 1
 567.958984375 109 l 0
 595.958984375 109 591.958984375 143 591.958984375 154 c 0
 591.958984375 290 l 2
 591.958984375 342 559.958984375 342 538.958984375 342 c 1
1129.95898438 483 m 1x2f80
 1129.95898438 605 l 1
 1365.95898438 605 l 1x1f80
 1365.95898438 482 l 1
 1129.95898438 483 l 1x2f80
1147.95898438 0 m 1x6f80
 1147.95898438 573 l 1
 1269.95898438 573 l 1
 1269.95898438 0 l 1
 1147.95898438 0 l 1x6f80
EndSplineSet
EndChar

StartChar: tml_NnnAi
Encoding: 167 -1 166
Width: 1795
VWidth: 0
Flags: HW
LayerCount: 3
Fore
SplineSet
443.415039062 43 m 1
 396.415039062 174 l 1
 333.415039062 72 100.956054688 72.98046875 206.415039062 244 c 2
 427.958984375 584 l 1
 511.415039062 740 414.565429688 941 220.958984375 941 c 0
 -7.041015625 941 -25.7314453125 606 199.958984375 606 c 0
 244.958984375 606 291.958984375 634 301.958984375 677 c 1
 230.958984375 760 l 0
 230.958984375 744 221.958984375 727 196.958984375 727 c 0
 173.958984375 727 162.958984375 746 162.958984375 767 c 0
 162.958984375 782 173.958984375 816 230.958984375 816 c 1
 302.282226562 815.5703125 387.958984375 741 291.958984375 582.7265625 c 0
 93.4150390625 298.140625 l 2
 -67.6142578125 67.3271484375 192.415039062 -130 443.415039062 43 c 1
1140.41503906 168 m 1
 1140.41503906 288 l 2
 1140.41503906 591 1408.41503906 595 1472.41503906 595 c 1
 1472.41503906 473 l 1
 1384.41503906 473 1262.41503906 476 1262.41503906 290 c 2
 1262.41503906 169 l 0
 1262.41503906 157 1260.41503906 123 1285.41503906 123 c 1
 1285.41503906 1 l 0
 1190.41503906 1 1140.41503906 83 1140.41503906 168 c 1
1142.41503906 473 m 1
 1142.41503906 595 l 1
 1274.41503906 595 1485.41503906 586 1485.41503906 301 c 2
 1485.41503906 168 l 0
 1485.41503906 76 1436.41503906 1 1339.41503906 1 c 1
 1339.41503906 123 l 0
 1367.41503906 123 1362.41503906 157 1362.41503906 168 c 0
 1362.41503906 290 l 2
 1362.41503906 476 1265.41503906 473 1142.41503906 473 c 1
755.415039062 167 m 1
 755.415039062 287 l 2
 755.415039062 590 1023.41503906 595 1088.41503906 595 c 1
 1088.41503906 472 l 1
 999.415039062 472 877.415039062 475 877.415039062 289 c 2
 877.415039062 168 l 0
 877.415039062 156 875.415039062 122 900.415039062 122 c 1
 900.415039062 0 l 0
 805.415039062 0 755.415039062 82 755.415039062 167 c 1
721.415039062 472 m 1
 721.415039062 595 l 1
 863.415039062 595 1100.41503906 585 1100.41503906 300 c 2
 1100.41503906 167 l 0
 1100.41503906 75 1050.41503906 0 953.415039062 0 c 1
 953.415039062 122 l 0
 981.415039062 122 978.415039062 156 978.415039062 167 c 0
 978.415039062 289 l 2
 978.415039062 475 854.415039062 471 721.415039062 472 c 1
372.415039062 166 m 1
 372.415039062 81 422.415039062 -1 517.415039062 -1 c 0
 517.415039062 121 l 1
 492.415039062 121 494.415039062 155 494.415039062 167 c 0
 494.415039062 289 l 2
 494.415039062 475 587.415039062 472 667.415039062 472 c 1
 667.415039062 595 l 1
 598.415039062 595 372.415039062 595 372.415039062 289 c 2
 372.415039062 166 l 1
542.415039062 341 m 1
 539.415039062 375 570.415039062 431 627.415039062 436 c 1
 694.415039062 436 717.415039062 377 717.415039062 289 c 2
 717.415039062 166 l 0
 717.415039062 74 668.415039062 -1 571.415039062 -1 c 1
 571.415039062 121 l 0
 599.415039062 121 595.415039062 155 595.415039062 166 c 0
 595.415039062 289 l 2
 595.415039062 341 563.415039062 341 542.415039062 341 c 1
1527.41503906 473 m 1
 1527.41503906 595 l 1x2fe0
 1755.41503906 595 l 1
 1755.41503906 472 l 1
 1527.41503906 473 l 1
1536.41503906 1 m 1x5fe0
 1536.41503906 563 l 1
 1658.41503906 563 l 1
 1658.41503906 1 l 1
 1536.41503906 1 l 1x5fe0
EndSplineSet
EndChar

StartChar: tml_LAi
Encoding: 168 -1 167
Width: 1223
VWidth: 0
Flags: HW
LayerCount: 3
Fore
SplineSet
443.415039062 41 m 1
 396.415039062 172 l 1
 333.415039062 70 100.956054688 70.98046875 206.415039062 242 c 2
 427.958984375 582 l 1
 511.415039062 738 414.565429688 939 220.958984375 939 c 0
 -7.041015625 939 -25.7314453125 604 199.958984375 604 c 0
 244.958984375 604 291.958984375 632 301.958984375 675 c 1
 230.958984375 758 l 0
 230.958984375 742 221.958984375 725 196.958984375 725 c 0
 173.958984375 725 162.958984375 744 162.958984375 765 c 0
 162.958984375 780 173.958984375 814 230.958984375 814 c 1
 304.282226562 813.5703125 387.958984375 739 291.958984375 580.7265625 c 0
 93.4150390625 296.140625 l 2
 -67.6142578125 65.3271484375 192.415039062 -132 443.415039062 41 c 1
594.415039062 0 m 1xe380
 594.415039062 122 l 0
 635.415039062 122 641.415039062 150 640.415039062 181 c 0
 639.415039062 208 636.415039062 237 594.415039062 237 c 1
 594.415039062 359 l 0
 690.415039062 359 763.415039062 276 763.415039062 224 c 0
 763.415039062 152 l 0
 764.415039062 89 703.415039062 0 594.415039062 0 c 1xe380
368.415039062 151 m 0
 368.415039062 193 369.415039062 140 368.415039062 220 c 0xe780
 367.415039062 324 489.415039062 359 539.415039062 359 c 1xf380
 539.415039062 237 l 0xf380
 510.415039062 237 492.415039062 210 492.415039062 181 c 0xe780
 492.415039062 149 506.415039062 122 539.415039062 122 c 1
 539.415039062 0 l 0xf380
 437.415039062 0 368.415039062 91 368.415039062 151 c 0
368.415039062 226 m 1xe780
 368.415039062 323 l 2
 368.415039062 424 447.415039062 606 626.415039062 606 c 1
 626.415039062 485 l 1
 561.415039062 485 499.415039062 427 499.415039062 327 c 0xeb80
 499.415039062 270 374.415039062 256 368.415039062 226 c 1xe780
680.415039062 484 m 1
 758.415039062 484 799.415039062 418 800.415039062 354 c 10
 801.415039062 165 l 18
 801.415039062 84 849.415039062 0 964.415039062 0 c 1
 964.415039062 123 l 1
 939.415039062 123 923.415039062 138 923.415039062 165 c 2
 923.415039062 353 l 2
 922.415039062 456 848.415039062 606 680.415039062 606 c 1
 680.415039062 484 l 1
1009.41503906 594 m 1
 1010.41503906 471 l 1
 1048.41503906 471 1060.41503906 458 1060.41503906 422 c 1
 1060.41503906 166 l 17
 1060.41503906 139 1044.41503906 123 1017.41503906 123 c 1
 1017.41503906 0 l 1
 1127.41503906 0 1183.41503906 81 1183.41503906 166 c 2
 1183.41503906 424 l 2
 1183.41503906 541 1129.41503906 595 1009.41503906 594 c 1
EndSplineSet
EndChar

StartChar: tml_LlAi
Encoding: 169 -1 168
Width: 1304
VWidth: 0
Flags: HW
LayerCount: 3
Fore
SplineSet
443.415039062 43 m 1
 396.415039062 174 l 1
 333.415039062 72 100.956054688 72.98046875 206.415039062 244 c 2
 427.958984375 584 l 1
 511.415039062 740 414.565429688 941 220.958984375 941 c 0
 -7.041015625 941 -25.7314453125 606 199.958984375 606 c 0
 244.958984375 606 291.958984375 634 301.958984375 677 c 1
 230.958984375 760 l 0
 230.958984375 744 221.958984375 727 196.958984375 727 c 0
 173.958984375 727 162.958984375 746 162.958984375 767 c 0
 162.958984375 782 173.958984375 816 230.958984375 816 c 1
 302.282226562 815.5703125 387.958984375 741 291.958984375 582.7265625 c 0
 93.4150390625 298.140625 l 2
 -67.6142578125 67.3271484375 192.415039062 -130 443.415039062 43 c 1
367.415039062 226 m 1xe6
 367.415039062 326 l 2
 367.415039062 427 446.415039062 605 625.415039062 605 c 1xf2
 625.415039062 484 l 1
 560.415039062 484 498.415039062 427 498.415039062 327 c 0xea
 498.415039062 270 373.415039062 256 367.415039062 226 c 1xe6
593.415039062 0 m 1
 593.415039062 122 l 0
 634.415039062 122 640.415039062 150 639.415039062 181 c 0
 638.415039062 208 635.415039062 237 593.415039062 237 c 1
 593.415039062 359 l 0
 689.415039062 359 762.415039062 276 762.415039062 224 c 0
 762.415039062 152 l 0
 763.415039062 89 702.415039062 0 593.415039062 0 c 1
679.415039062 484 m 1
 748.415039062 484 799.415039062 417 800.415039062 354 c 1
 801.415039062 0 l 1
 927.415039062 0 l 1
 923.415039062 355 l 1
 923.415039062 454 841.415039062 605 679.415039062 605 c 1
 679.415039062 484 l 1
367.415039062 151 m 0
 367.415039062 193 368.415039062 140 367.415039062 220 c 0xe6
 366.415039062 324 488.415039062 359 538.415039062 359 c 1xf2
 538.415039062 237 l 0xf2
 509.415039062 237 491.415039062 210 491.415039062 181 c 0xe6
 491.415039062 149 505.415039062 122 538.415039062 122 c 1
 538.415039062 0 l 0xf2
 436.415039062 0 367.415039062 91 367.415039062 151 c 0
1068.41503906 0 m 1
 1190.41503906 0 l 1
 1190.41503906 574 l 1
 1068.41503906 574 l 1
 1068.41503906 0 l 1
1040.41503906 482 m 1
 1264.41503906 482 l 1
 1264.41503906 605 l 1
 1040.41503906 605 l 1
 1040.41503906 482 l 1
800.415039062 325 m 1
 923.415039062 326 l 1
 923.415039062 454 945.415039062 482 986.415039062 482 c 1
 986.415039062 605 l 1
 813.415039062 605 800.415039062 440 800.415039062 325 c 1
EndSplineSet
EndChar

StartChar: tml_RI.alt
Encoding: 170 -1 169
Width: 777
VWidth: 0
Flags: HW
LayerCount: 3
Fore
SplineSet
557 690 m 1
 557 812 l 1
 708 812 737 697 737 594 c 0
 737 68 l 1
 615 68 l 1
 615 591 l 2
 615 653 604 690 557 690 c 1
  Spiro
    557 690 v
    557 812 v
    670.698 778.433 o
    723.919 696.199 o
    737 594 ]
    737 68 v
    615 68 v
    615 591 ]
    610.418 644.178 o
    592.9 678.134 o
    0 0 z
  EndSpiro
322 592 m 1
 445 592 l 0
 445 653 456 690 503 690 c 0
 503 690 l 0
 503 812 l 1
 503 812 l 0
 354 812 322 696 322 592 c 1
 322 592 l 1
  Spiro
    445 592 [
    450.248 644.475 o
    468.433 678.171 o
    503 690 o
    503 690 o
    503 812 v
    503 812 [
    389.932 778.137 o
    335.784 695.161 o
    322 592 v
    322 592 v
    0 0 z
  EndSpiro
324 0 m 1xc0
 446 0 l 1
 446 593 l 1
 324 593 l 1
 324 0 l 1xc0
40 0 m 17xd0
 40 592 l 1xe0
 162 593 l 1
 162 0 l 1
 40 0 l 17xd0
272 473 m 1
 567 473 l 1
 567 595 l 1
 272 595 l 1
 272 473 l 1
40 473 m 1
 40 595 l 1
 219 595 l 1
 219 473 l 1
 40 473 l 1
EndSplineSet
EndChar

StartChar: tml_RIi.alt
Encoding: 171 -1 170
Width: 733
VWidth: 0
Flags: HW
LayerCount: 3
Fore
SplineSet
323 476.65625 m 1
 447 476.65625 l 1
 447 594.7265625 l 0
 372 753 441.676757812 827.5703125 513 828 c 1
 570 828 581 794 581 779 c 0
 581 758 570 739 547 739 c 0
 522 739 513 756 513 772 c 0
 442 689 l 1
 452 668 499 630 544 630 c 0
 742.690429688 630 751 943 523 943 c 0
 320.393554688 943 249 755 323 596 c 0
 323 476.65625 l 1
324 0 m 1xc0
 446 0 l 1
 446 593 l 1
 324 593 l 1
 324 0 l 1xc0
40 0 m 17xd0
 40 592 l 1xe0
 162 593 l 1
 162 0 l 1
 40 0 l 17xd0
272 473 m 1
 567 473 l 1
 567 595 l 1
 272 595 l 1
 272 473 l 1
40 473 m 1
 40 595 l 1
 219 595 l 1
 219 473 l 1
 40 473 l 1
EndSplineSet
EndChar

StartChar: tml_KI.alt
Encoding: 172 -1 171
Width: 1014
VWidth: 0
Flags: HW
LayerCount: 3
Fore
SplineSet
464.702148438 855 m 1
 464.702148438 855 l 1
 464.702148438 733 l 0
 464.702148438 733 l 1
 296.702148438 721 86.7021484375 652 185.702148438 365 c 1
 86.7021484375 272 l 1
 -67.2978515625 650 185.702148438 857 464.702148438 855 c 1
518.702148438 733 m 1
 518.702148438 855 l 1
 718.702148438 855 973.702148438 751 974.702148438 429 c 0
 974.702148438 68 l 1
 852.702148438 68 l 1
 852.702148438 426 l 2
 852.702148438 697 620.702148438 733 518.702148438 733 c 1
EndSplineSet
Refer: 23 2965 N 1 0 0 1 12.7024 0 2
EndChar

StartChar: tml_CI.alt
Encoding: 173 -1 172
Width: 972
VWidth: 0
Flags: HW
LayerCount: 3
Fore
SplineSet
445.328125 855 m 1
 445.328125 855 l 1
 445.328125 733 l 0
 445.328125 733 l 1
 277.328125 721 102.328125 663 188.328125 365 c 1
 89.328125 272 l 1
 -64.671875 650 166.328125 857 445.328125 855 c 1
499.328125 733 m 1
 499.328125 855 l 1
 699.328125 855 931.328125 751 932.328125 429 c 0
 932.328125 68 l 1
 810.328125 68 l 1
 810.328125 426 l 2
 810.328125 697 601.328125 733 499.328125 733 c 1
EndSplineSet
Refer: 24 2970 N 1 0 0 1 24.3284 0 2
EndChar

StartChar: tml_TI.alt
Encoding: 174 -1 173
Width: 972
VWidth: 0
Flags: HW
LayerCount: 3
Fore
SplineSet
445.328125 855 m 1
 445.328125 855 l 1
 445.328125 733 l 0
 445.328125 733 l 1
 277.328125 721 102.328125 663 188.328125 365 c 1
 89.328125 272 l 1
 -64.671875 650 166.328125 857 445.328125 855 c 1
499.328125 733 m 1
 499.328125 855 l 1
 699.328125 855 931.328125 751 932.328125 429 c 0
 932.328125 68 l 1
 810.328125 68 l 1
 810.328125 426 l 2
 810.328125 697 601.328125 733 499.328125 733 c 1
EndSplineSet
Refer: 25 2980 N 1 0 0 1 24.3286 0 2
EndChar

StartChar: tml_KIi.alt
Encoding: 175 -1 174
Width: 0
VWidth: 0
Flags: HW
LayerCount: 3
Fore
SplineSet
559 833 m 0
 614.002479026 818.043185528 622 790 622 775 c 0
 622 754 611 735 588 735 c 0
 563 735 554 752 554 768 c 0
 500 670 l 1
 536 628 576 619 621 619 c 0
 706 619 756.663085938 701.283203125 755 775 c 0
 752.856445312 870.043945312 674 950 549 965 c 1
 412 981 321 962 216 905 c 0
 57.7041015625 819.068359375 -66.6522037916 599.509954761 66 272 c 1
 165 365 l 1
 99.4832298038 592.023226959 142.656659058 729.670870454 276 796 c 0
 339.10546875 827.390625 445 864 559 833 c 0
EndSplineSet
Refer: 23 2965 N 1 0 0 1 0 0 2
EndChar

StartChar: tml_CIi.alt
Encoding: 176 -1 175
Width: 825
VWidth: 0
Flags: HW
LayerCount: 3
Fore
SplineSet
589.026367188 828 m 0
 644.029296875 813.04296875 652.026367188 785 652.026367188 770 c 0
 652.026367188 749 641.026367188 730 618.026367188 730 c 0
 593.026367188 730 584.026367188 747 584.026367188 763 c 0
 530.026367188 665 l 1
 566.026367188 623 606.026367188 614 651.026367188 614 c 0
 736.026367188 614 786.689453125 696.283203125 785.026367188 770 c 0
 782.8828125 865.043945312 704.026367188 945 579.026367188 960 c 1
 442.026367188 976 351.026367188 957 246.026367188 900 c 0
 87.73046875 814.068359375 -36.6259765625 594.509765625 96.0263671875 267 c 1
 195.026367188 360 l 1
 129.509765625 587.0234375 172.682617188 724.670898438 306.026367188 791 c 0
 369.131835938 822.390625 475.026367188 859 589.026367188 828 c 0
EndSplineSet
Refer: 24 2970 N 1 0 0 1 31.0262 0 2
EndChar

StartChar: tml_TIi.alt
Encoding: 177 -1 176
Width: 825
VWidth: 0
Flags: HW
LayerCount: 3
Fore
SplineSet
589.026367188 833 m 0
 644.028320312 818.04296875 652.026367188 790 652.026367188 775 c 0
 652.026367188 754 641.026367188 735 618.026367188 735 c 0
 593.026367188 735 584.026367188 752 584.026367188 768 c 0
 530.026367188 670 l 1
 566.026367188 628 606.026367188 619 651.026367188 619 c 0
 736.026367188 619 786.689453125 701.283203125 785.026367188 775 c 0
 782.8828125 870.043945312 704.026367188 950 579.026367188 965 c 1
 442.026367188 981 351.026367188 962 246.026367188 905 c 0
 87.73046875 819.068359375 -36.6259765625 599.509765625 96.0263671875 272 c 1
 195.026367188 365 l 1
 129.509765625 592.0234375 172.682617188 729.670898438 306.026367188 796 c 0
 369.131835938 827.390625 475.026367188 864 589.026367188 833 c 0
EndSplineSet
Refer: 25 2980 N 1 0 0 1 30.0261 0 2
EndChar

StartChar: tml_RVirama.alt
Encoding: 178 -1 177
Width: 606
VWidth: 0
Flags: HW
LayerCount: 3
Fore
SplineSet
194.552734375 728.009765625 m 0
 194.552734375 771.251953125 228.529296875 806 271 806 c 0
 313.469726562 806 347.446289062 771.251953125 347.446289062 728.009765625 c 0
 347.446289062 684.766601562 313.469726562 650.018554688 271 650.018554688 c 0
 228.529296875 650.018554688 194.552734375 684.766601562 194.552734375 728.009765625 c 0
324 0 m 1xc0
 446 0 l 1
 446 593 l 1
 324 593 l 1
 324 0 l 1xc0
40 0 m 17xd0
 40 592 l 1xe0
 162 593 l 1
 162 0 l 1
 40 0 l 17xd0
272 473 m 1
 566 473 l 1
 566 595 l 1
 272 595 l 1
 272 473 l 1
40 473 m 1
 40 595 l 1
 219 595 l 1
 219 473 l 1
 40 473 l 1
EndSplineSet
EndChar

